<svg width="144" height="39" viewBox="0 0 144 39" fill="none" xmlns="http://www.w3.org/2000/svg">
<path d="M46.196 34.3842C46.3992 34.1752 46.596 33.9473 46.7915 33.702L48.3581 35.0023C47.9103 35.4808 47.4851 35.8703 47.0877 36.1777C46.603 36.5525 46.1042 36.8423 45.5996 37.057C45.0907 37.2647 44.5624 37.4119 44.0137 37.4772L44.0081 37.4779C43.4291 37.5543 42.7837 37.5891 42.0424 37.5891C40.687 37.5891 39.5133 37.3344 38.5187 36.847C37.511 36.3531 36.6667 35.6775 35.9896 34.8275C35.3084 33.9724 34.7921 32.971 34.452 31.8268L34.4514 31.8248C34.101 30.6662 33.9287 29.4443 33.9287 28.1387C33.9287 27.3139 33.9977 26.5092 34.1433 25.7238L34.1434 25.7229C34.2892 24.9283 34.5025 24.1901 34.7989 23.489C35.0967 22.7937 35.4601 22.1548 35.9136 21.5689L35.916 21.5658C36.3572 20.9849 36.8818 20.4866 37.5007 20.0614L37.5029 20.0598C38.1065 19.6395 38.8084 19.3128 39.5981 19.0671C40.3746 18.8343 41.262 18.7148 42.2377 18.7148C42.833 18.7148 43.391 18.7492 43.9208 18.8174C44.4453 18.8849 44.9302 18.9938 45.3861 19.1508L45.393 19.1531C45.8458 19.3007 46.2854 19.507 46.712 19.7655C47.0247 19.9549 47.3313 20.1778 47.6352 20.4321L46.2961 22.0007C46.0839 21.809 45.872 21.634 45.6676 21.4781L45.6618 21.4738L45.6559 21.4696C45.3234 21.2329 44.9783 21.0318 44.6116 20.8682L44.6065 20.866C44.2458 20.7106 43.8567 20.5942 43.4576 20.5263C43.0681 20.46 42.6436 20.4227 42.1844 20.4227C41.2495 20.4227 40.4228 20.6229 39.7126 21.0418C39.0197 21.4503 38.4568 22.0035 38.0141 22.675C37.5751 23.3408 37.2545 24.0963 37.0484 24.9366C36.8444 25.7688 36.7428 26.627 36.7428 27.5193C36.7428 28.6645 36.8613 29.7435 37.1011 30.7455C37.3413 31.7493 37.694 32.6217 38.1343 33.378L38.1363 33.3815C38.59 34.1447 39.138 34.7531 39.7939 35.2019C40.4637 35.6603 41.2174 35.8902 42.0335 35.8902C42.7026 35.8902 43.2899 35.8357 43.8051 35.71C44.3047 35.5949 44.7505 35.4215 45.1414 35.2072L45.1487 35.2031C45.5429 34.9771 45.8859 34.7029 46.196 34.3842Z" fill="#252525" stroke="#252525" stroke-width="1.16248"/>
<path d="M49.0035 34.9513C48.4265 35.606 47.8761 36.1281 47.3612 36.5263C46.8464 36.9245 46.3137 37.2342 45.7722 37.4643C45.2308 37.6855 44.6626 37.8448 44.0678 37.9155C43.4642 37.9952 42.7984 38.0306 42.0438 38.0306C40.6324 38.0306 39.3896 37.7651 38.3243 37.2431C37.2591 36.721 36.3625 36.0042 35.6435 35.1017C34.9244 34.1991 34.3829 33.1462 34.0278 31.9515C33.6639 30.7482 33.4863 29.4828 33.4863 28.1378C33.4863 27.2883 33.5574 26.4565 33.7082 25.6425C33.8592 24.8195 34.0811 24.0496 34.3918 23.3152C34.7025 22.5896 35.0842 21.9171 35.5636 21.2977C36.0341 20.6783 36.5933 20.1474 37.2502 19.6961C37.8982 19.2448 38.644 18.8997 39.4695 18.6432C40.295 18.3954 41.2271 18.2715 42.2392 18.2715C42.8517 18.2715 43.4287 18.3069 43.9791 18.3777C44.5294 18.4485 45.0443 18.5635 45.5325 18.7316C46.0208 18.8909 46.4913 19.1121 46.944 19.3864C47.3967 19.6607 47.8317 19.9969 48.2578 20.3863L46.3315 22.6427C46.0208 22.333 45.7012 22.0587 45.3994 21.8286C45.0887 21.6074 44.7691 21.4216 44.4318 21.2712C44.1034 21.1296 43.7482 21.0234 43.3843 20.9615C43.0203 20.8995 42.6209 20.8642 42.1859 20.8642C41.3159 20.8642 40.5703 21.05 39.94 21.4216C39.3097 21.7933 38.7948 22.2977 38.3865 22.9171C37.9781 23.5364 37.6763 24.2443 37.481 25.0407C37.2858 25.8371 37.1881 26.66 37.1881 27.5184C37.1881 28.6333 37.3035 29.6774 37.5343 30.642C37.7651 31.6065 38.1024 32.4382 38.5196 33.155C38.9457 33.8717 39.4517 34.4292 40.0465 34.8362C40.6413 35.2433 41.3071 35.4468 42.035 35.4468C42.683 35.4468 43.2333 35.3937 43.7039 35.2786C44.1654 35.1725 44.5738 35.0132 44.9289 34.8186C45.284 34.615 45.5947 34.3672 45.8788 34.0753C46.1628 33.7832 46.438 33.447 46.7221 33.0665L49.0035 34.9601V34.9513Z" fill="#252525" stroke="#252525" stroke-width="0.871856" stroke-miterlimit="10"/>
<path d="M54.9682 29.4478V37.2435H52.3494V19.201H54.9682V27.0144V27.4569H55.412H63.6854H64.1293V27.0144V19.201H66.7481V37.2435H64.1293V29.4478V29.0054H63.6854H55.412H54.9682V29.4478Z" fill="#252525" stroke="#252525" stroke-width="1.16248"/>
<path d="M51.9053 18.7578H55.4117V27.0136H63.6851V18.7578H67.1916V37.6852H63.6851V29.4471H55.4117V37.6852H51.9053V18.7578Z" fill="#252525" stroke="#252525" stroke-width="0.871856" stroke-miterlimit="10"/>
<path d="M71.4609 19.2012H74.0797V37.2437H71.4609V19.2012Z" fill="#252525" stroke="#252525" stroke-width="1.16248"/>
<path d="M74.5241 18.7617H71.0176V37.6891H74.5241V18.7617Z" fill="#252525" stroke="#252525" stroke-width="0.871856" stroke-miterlimit="10"/>
<path d="M82.0455 23.9034L81.2258 22.6031V24.1388V37.2437H78.6074V19.2012H81.2281L89.5932 32.6018L90.4137 33.9165V32.3681V19.2012H93.0336L93.0848 37.2437H90.455L82.0455 23.9034Z" fill="#252525" stroke="#252525" stroke-width="1.16248"/>
<path d="M81.671 24.1378V37.6852H78.1641V18.7578H81.4752L89.9711 32.3671V18.7578H93.4773L93.5308 37.6852H90.2105L81.671 24.1378Z" fill="#252525" stroke="#252525" stroke-width="0.871856" stroke-miterlimit="10"/>
<path d="M100.73 35.6773H108.435V37.2435H97.6669V19.201H108.107V20.7672H100.73H100.286V21.2097V26.395V26.8375H100.73H106.508V28.3948H100.73H100.286V28.8373V35.2348V35.6773H100.73Z" fill="#252525" stroke="#252525" stroke-width="1.16248"/>
<path d="M108.549 21.2089H100.728V26.3942H106.951V28.8365H100.728V35.2341H108.877V37.6852H97.2217V18.7578H108.549V21.2089Z" fill="#252525" stroke="#252525" stroke-width="0.871856" stroke-miterlimit="10"/>
<path d="M7.95245 8.33749C8.59649 8.5154 9.09982 8.85849 9.48439 9.35602C9.85535 9.84737 10.0506 10.4415 10.0506 11.1409C10.0506 12.1682 9.72527 12.9709 9.08169 13.6047L9.07978 13.6065C8.47719 14.2073 7.38236 14.5654 5.68303 14.5654H1.20898V2.11523H5.59427C6.9197 2.11523 7.85694 2.41236 8.4752 2.9384C9.09737 3.46779 9.42031 4.17311 9.42031 5.07959C9.42031 5.63444 9.28793 6.10795 9.04506 6.49785C8.79049 6.89247 8.40959 7.23983 7.86788 7.51775L6.85885 8.0354L7.95245 8.33749ZM2.46065 2.80546H2.0168V3.24788V7.2829V7.72532H2.46065H2.46953H5.24806C6.29184 7.72532 7.12909 7.58392 7.70561 7.23694C8.35981 6.84315 8.62134 6.13806 8.62134 5.29195C8.62134 4.44257 8.36853 3.77688 7.77856 3.35688C7.48727 3.14947 7.09912 3.01592 6.65353 2.93154C6.20244 2.84624 5.66021 2.80546 5.03501 2.80546H2.46065ZM2.02568 13.4416V13.884H2.46953H5.67416C6.75713 13.884 7.64541 13.695 8.24748 13.2477C8.87943 12.7781 9.16283 12.0417 9.16283 11.1675C9.16283 10.292 8.86016 9.50405 8.18225 9.03442C7.54479 8.59284 6.59725 8.41554 5.44336 8.41554H2.46953H2.02568V8.85796V13.4416Z" fill="#252525" stroke="#252525" stroke-width="1.16248"/>
<path d="M0.763672 15.0157V1.67188H5.5928C6.97763 1.67188 8.03404 1.98158 8.76196 2.60099C9.48981 3.22041 9.86268 4.05218 9.86268 5.07864C9.86268 5.7069 9.7118 6.26434 9.41884 6.73336C9.11701 7.2023 8.67318 7.60051 8.06952 7.91021C8.80631 8.11374 9.39223 8.51194 9.83607 9.08707C10.271 9.66227 10.4929 10.3524 10.4929 11.14C10.4929 12.2726 10.129 13.1929 9.39223 13.9185C8.66431 14.6441 7.42148 15.0069 5.68157 15.0069H0.763672V15.0157ZM2.46807 7.28196H5.2466C6.26747 7.28196 7.00426 7.1404 7.47475 6.85722C7.94525 6.57405 8.17604 6.05197 8.17604 5.29101C8.17604 4.52997 7.95412 4.02566 7.51913 3.71595C7.08416 3.40625 6.24971 3.24693 5.03355 3.24693H2.45919V7.28196H2.46807ZM2.46807 13.4406H5.6727C6.7202 13.4406 7.4925 13.2548 7.98074 12.892C8.469 12.5292 8.71753 11.9452 8.71753 11.1665C8.71753 10.3879 8.45126 9.75961 7.92751 9.39677C7.40373 9.03401 6.56928 8.85702 5.4419 8.85702H2.46807V13.4406Z" fill="#252525" stroke="#252525" stroke-width="0.581238" stroke-miterlimit="10"/>
<path d="M20.8086 10.8183L20.7015 10.5293H20.3924H15.0128H14.6973L14.5936 10.8264L13.2858 14.5732H12.4277L17.0441 2.12305H18.2702L23.185 14.5732H22.2017L20.8086 10.8183ZM15.0923 9.38853L14.8786 9.98073H15.51H19.8686H20.5013L20.2859 9.38761L18.9456 5.6982C18.9456 5.69805 18.9456 5.69835 18.9456 5.6982C18.5214 4.5263 18.2237 3.61769 18.0417 2.96092L17.1774 2.99805C17.0221 3.83249 16.7976 4.65901 16.5036 5.47783C16.5035 5.47791 16.5036 5.47775 16.5036 5.47783L15.0923 9.38853Z" fill="#252525"/>
<path d="M18.9456 5.6982L20.2859 9.38761L20.5013 9.98073H19.8686H15.51H14.8786L15.0923 9.38853L16.5036 5.47783M18.9456 5.6982C18.9456 5.69805 18.9456 5.69835 18.9456 5.6982ZM18.9456 5.6982C18.5214 4.5263 18.2237 3.61769 18.0417 2.96092L17.1774 2.99805C17.0221 3.83249 16.7976 4.65901 16.5036 5.47783M16.5036 5.47783C16.5035 5.47791 16.5036 5.47775 16.5036 5.47783ZM20.8086 10.8183L20.7015 10.5293H20.3924H15.0128H14.6973L14.5936 10.8264L13.2858 14.5732H12.4277L17.0441 2.12305H18.2702L23.185 14.5732H22.2017L20.8086 10.8183Z" stroke="#252525" stroke-width="1.16248"/>
<path d="M11.7909 15.0164L16.7355 1.68146H18.573L23.8371 15.0164H21.8931L20.3929 10.9726H15.0133L13.6019 15.0164H11.7909ZM15.5105 9.53914H19.8691L18.5287 5.84919C18.1026 4.67234 17.8007 3.75206 17.6143 3.07959C17.4545 3.9379 17.2237 4.78736 16.9219 5.62798L15.5105 9.53914Z" fill="#252525" stroke="#252525" stroke-width="0.581238" stroke-miterlimit="10"/>
<path d="M30.2184 14.5654H26.0195V2.11523H30.0053C31.059 2.11523 31.8773 2.20251 32.4912 2.36556C33.06 2.51893 33.6061 2.84418 34.1288 3.36481C34.6356 3.87834 35.0386 4.53671 35.3308 5.35225C35.6203 6.16009 35.7666 7.12496 35.7666 8.23855C35.7666 9.7995 35.4909 11.069 34.9652 12.068C34.4292 13.0864 33.7847 13.724 33.0425 14.0443C32.2478 14.3873 31.3068 14.5654 30.2184 14.5654ZM26.8274 13.4416V13.884H27.2712H30.0142C31.0467 13.884 31.9286 13.7489 32.5986 13.4356C33.3166 13.104 33.8673 12.4687 34.2771 11.6042L34.2779 11.6026C34.697 10.7087 34.8878 9.5847 34.8878 8.23855C34.8878 6.88782 34.669 5.75472 34.2052 4.88879C33.758 4.0542 33.1941 3.46489 32.4982 3.18308C31.8537 2.92209 30.9982 2.80546 29.9699 2.80546H27.2712H26.8274V3.24788V13.4416Z" fill="#252525" stroke="#252525" stroke-width="1.16248"/>
<path d="M25.5752 15.0157V1.67188H30.0048C31.079 1.67188 31.9401 1.76037 32.6058 1.93737C33.2628 2.11429 33.8752 2.48597 34.4434 3.05225C35.0026 3.61861 35.4376 4.33536 35.7483 5.20251C36.059 6.06966 36.21 7.08728 36.21 8.2376C36.21 9.84811 35.9259 11.193 35.3578 12.2726C34.7896 13.3521 34.0794 14.0777 33.2184 14.4494C32.3573 14.821 31.3542 15.0069 30.2179 15.0069H25.5752V15.0157ZM27.2707 13.4406H30.0137C31.0168 13.4406 31.8247 13.3079 32.4105 13.0336C33.0053 12.7593 33.4936 12.2195 33.8752 11.4143C34.257 10.6002 34.4434 9.54724 34.4434 8.2376C34.4434 6.92804 34.2304 5.87498 33.8131 5.09633C33.3959 4.3176 32.8988 3.82213 32.3307 3.59201C31.7625 3.36196 30.9725 3.24693 29.9693 3.24693H27.2707V13.4406Z" fill="#252525" stroke="#252525" stroke-width="0.581238" stroke-miterlimit="10"/>
<path d="M46.1838 11.094L49.1634 2.11523H50.6891V14.5654H49.9346V3.84076L49.0697 3.70074L45.4337 14.5654H45.1113L45.5049 13.2204C45.6271 12.803 45.8471 12.1009 46.1835 11.095L46.1838 11.094ZM45.0701 14.5654H44.5397L40.9201 3.51756L40.0544 3.65492V14.5654H39.2998V2.12408H41.0979L44.043 11.2563L44.6548 13.2272L45.0701 14.5654Z" fill="#252525" stroke="#252525" stroke-width="1.16248"/>
<path d="M38.8573 15.0156V1.68063H41.4228L44.4677 11.1222L45.0802 13.0955C45.2045 12.6707 45.4264 11.9628 45.7637 10.9541L48.8441 1.67178H51.1344V15.0068H49.4921V3.83973L45.7548 15.0068H44.2191L40.4996 3.65389V15.0068H38.8573V15.0156Z" fill="#252525" stroke="#252525" stroke-width="0.581238" stroke-miterlimit="10"/>
<path d="M54.9336 2.12305H55.7502V14.5732H54.9336V2.12305Z" fill="#252525" stroke="#252525" stroke-width="1.16248"/>
<path d="M56.1927 1.68146H54.4883V15.0164H56.1927V1.68146Z" fill="#252525" stroke="#252525" stroke-width="0.581238" stroke-miterlimit="10"/>
<path d="M68.5765 12.1487V2.12305H69.3221V14.5732H68.2596L61.6352 4.29953L60.8179 3.03212V4.5388V14.5732H60.0723V2.12305H61.1349L67.7593 12.388L68.5765 13.6542V12.1487Z" fill="#252525" stroke="#252525" stroke-width="1.16248"/>
<path d="M59.6289 15.0166V1.68164H61.3777L68.1332 12.1497V1.68164H69.7665V15.0166H68.0178L61.2623 4.53981V15.0166H59.6289Z" fill="#252525" stroke="#252525" stroke-width="0.581238" stroke-miterlimit="10"/>
<path d="M77.4366 3.25569V14.5732H76.6198V3.25569V2.81327H76.1763H72.377V2.12305H81.6891V2.81327H77.8808H77.4366V3.25569Z" fill="#252525" stroke="#252525" stroke-width="1.16248"/>
<path d="M76.176 15.0164V3.25652H71.9328V1.68146H82.1323V3.25652H77.8806V15.0164H76.176Z" fill="#252525" stroke="#252525" stroke-width="0.581238" stroke-miterlimit="10"/>
<path d="M83.7568 8.52036C83.7568 6.29937 84.3334 4.56499 85.4874 3.31733C86.6421 2.06966 88.1157 1.44141 89.9173 1.44141C91.7197 1.44141 93.2017 2.07858 94.3472 3.34393C95.492 4.61812 96.0602 6.29052 96.0602 8.36113C96.0602 10.4317 95.4836 12.0864 94.3297 13.343C93.175 14.6083 91.7014 15.2366 89.9089 15.2366C88.6127 15.2366 87.4848 14.9003 86.5082 14.2366C85.5325 13.5642 84.8305 12.7059 84.4045 11.6528C83.9786 10.5998 83.7568 9.55567 83.7568 8.52036ZM85.5141 8.54697C85.5141 10.0689 85.9141 11.3166 86.704 12.2811C87.5031 13.2456 88.5684 13.7322 89.8997 13.7322C91.2311 13.7322 92.2695 13.2545 93.0862 12.2988C93.903 11.3432 94.3029 10.0247 94.3029 8.35228C94.3029 6.67989 93.8945 5.32604 93.0778 4.37923C92.2611 3.43243 91.2043 2.95457 89.9265 2.95457C88.6479 2.95457 87.6186 3.39698 86.7751 4.29073C85.9317 5.18441 85.5141 6.60023 85.5141 8.53812" fill="#252525"/>
<mask id="mask0_992_31" style="mask-type:luminance" maskUnits="userSpaceOnUse" x="83" y="1" width="14" height="15">
<path d="M83.7559 8.52232C83.7559 6.30132 84.3324 4.56695 85.4864 3.31928C86.6411 2.07161 88.1147 1.44336 89.9163 1.44336C91.7187 1.44336 93.2007 2.08053 94.3463 3.34588C95.491 4.62008 96.0592 6.29248 96.0592 8.36308C96.0592 10.4337 95.4826 12.0884 94.3287 13.3449C93.174 14.6103 91.7004 15.2385 89.9079 15.2385C88.6117 15.2385 87.4838 14.9023 86.5073 14.2386C85.5315 13.5661 84.8295 12.7078 84.4036 11.6547C83.9776 10.6018 83.7559 9.55762 83.7559 8.52232ZM85.5132 8.54892C85.5132 10.0708 85.9131 11.3185 86.703 12.2831C87.5022 13.2476 88.5674 13.7342 89.8987 13.7342C91.2301 13.7342 92.2686 13.2564 93.0853 12.3008C93.902 11.3451 94.3019 10.0266 94.3019 8.35424C94.3019 6.68184 93.8936 5.32799 93.0769 4.38119C92.2602 3.43438 91.2033 2.95652 89.9255 2.95652C88.6469 2.95652 87.6176 3.39894 86.7742 4.29269C85.9307 5.18636 85.5132 6.60218 85.5132 8.54008" fill="white"/>
</mask>
<g mask="url(#mask0_992_31)">
<path d="M94.3474 3.34595L95.0081 2.7555L95.0066 2.75322L94.3474 3.34595ZM94.3298 13.345L93.6744 12.7474L93.6729 12.7497L94.3298 13.345ZM86.5084 14.2386L86.0044 14.9667L86.009 14.9698L86.5084 14.2386ZM86.7041 12.2831L86.0167 12.8428L86.0197 12.8465L86.7041 12.2831ZM84.6448 8.52238C84.6448 6.45315 85.1793 4.95813 86.1406 3.91917L84.8352 2.7196C83.4878 4.17598 82.8691 6.14962 82.8691 8.52238H84.6448ZM86.1406 3.91917C87.1171 2.86321 88.3498 2.32833 89.9174 2.32833V0.558594C87.8818 0.558594 86.1666 1.28023 84.8352 2.7196L86.1406 3.91917ZM89.9174 2.32833C91.4836 2.32833 92.7208 2.87015 93.6882 3.93861L95.0066 2.75322C93.6828 1.29097 91.9554 0.558594 89.9174 0.558594V2.32833ZM93.6859 3.93632C94.6548 5.01469 95.1725 6.4607 95.1725 8.36315H96.9481C96.9481 6.12439 96.3295 4.2256 95.0081 2.7555L93.6859 3.93632ZM95.1725 8.36315C95.1725 10.2616 94.6487 11.6869 93.6744 12.7474L94.9844 13.9424C96.318 12.4899 96.9481 10.6059 96.9481 8.36315H95.1725ZM93.6729 12.7497C92.6964 13.8202 91.466 14.3537 89.909 14.3537V16.1234C91.9378 16.1234 93.6546 15.4004 94.9867 13.9401L93.6729 12.7497ZM89.909 14.3537C88.7765 14.3537 87.8267 14.0633 87.0085 13.5076L86.009 14.9698C87.1438 15.7414 88.4484 16.1234 89.909 16.1234V14.3537ZM87.0131 13.5107C86.1719 12.9313 85.5861 12.2079 85.2283 11.3238L83.5819 11.9859C84.0759 13.2078 84.8926 14.201 86.0044 14.9667L87.0131 13.5107ZM85.2283 11.3238C84.8383 10.361 84.6448 9.42917 84.6448 8.52238H82.8691C82.8691 9.68628 83.1192 10.8427 83.5819 11.9859L85.2283 11.3238ZM84.6264 8.54899C84.6264 10.2295 85.0707 11.6884 86.0167 12.8428L87.3916 11.7235C86.7569 10.9488 86.4021 9.91229 86.4021 8.54899H84.6264ZM86.0197 12.8465C86.997 14.0267 88.32 14.6192 89.8998 14.6192V12.8494C88.817 12.8494 88.0087 12.4685 87.3886 11.7197L86.0197 12.8465ZM89.8998 14.6192C91.4828 14.6192 92.7713 14.0341 93.7624 12.8746L92.4111 11.727C91.7688 12.4788 90.9796 12.8494 89.8998 12.8494V14.6192ZM93.7624 12.8746C94.758 11.7094 95.1909 10.1613 95.1909 8.3543H93.4152C93.4152 9.89201 93.0481 10.9809 92.4111 11.727L93.7624 12.8746ZM95.1909 8.3543C95.1909 6.5495 94.7504 4.96301 93.7509 3.8043L92.405 4.95813C93.039 5.6931 93.4152 6.81431 93.4152 8.3543H95.1909ZM93.7509 3.8043C92.7621 2.65763 91.4576 2.07168 89.9266 2.07168V3.84142C90.9521 3.84142 91.7604 4.21119 92.405 4.95813L93.7509 3.8043ZM89.9266 2.07168C88.4094 2.07168 87.1438 2.61068 86.1283 3.68645L87.4214 4.89898C88.0928 4.18741 88.8866 3.84142 89.9266 3.84142V2.07168ZM86.1283 3.68645C85.0608 4.81818 84.6264 6.50437 84.6264 8.54014H86.4021C86.4021 6.70012 86.8028 5.55475 87.4214 4.89898L86.1283 3.68645Z" fill="#252525"/>
</g>
<path d="M83.7568 8.52036C83.7568 6.29937 84.3334 4.56499 85.4874 3.31733C86.6421 2.06966 88.1157 1.44141 89.9173 1.44141C91.7197 1.44141 93.2017 2.07858 94.3472 3.34393C95.492 4.61812 96.0602 6.29052 96.0602 8.36113C96.0602 10.4317 95.4836 12.0864 94.3297 13.343C93.175 14.6083 91.7014 15.2366 89.9089 15.2366C88.6127 15.2366 87.4848 14.9003 86.5082 14.2366C85.5325 13.5642 84.8305 12.7059 84.4045 11.6528C83.9786 10.5998 83.7568 9.55567 83.7568 8.52036ZM85.5141 8.54697C85.5141 10.0689 85.9141 11.3166 86.704 12.2811C87.5031 13.2456 88.5684 13.7322 89.8997 13.7322C91.2311 13.7322 92.2695 13.2545 93.0862 12.2988C93.903 11.3432 94.3029 10.0247 94.3029 8.35228C94.3029 6.67989 93.8945 5.32604 93.0778 4.37923C92.2611 3.43243 91.2043 2.95457 89.9265 2.95457C88.6479 2.95457 87.6186 3.39698 86.7751 4.29073C85.9317 5.18441 85.5141 6.60023 85.5141 8.53812V8.54697Z" fill="#252525" stroke="#252525" stroke-width="0.581238" stroke-miterlimit="10"/>
<path d="M107.627 12.1487V2.12305H108.373V14.5732H107.311L100.686 4.29953L99.8686 3.03212V4.5388V14.5732H99.123V2.12305H100.186L106.811 12.388L107.627 13.6542V12.1487Z" fill="#252525" stroke="#252525" stroke-width="1.16248"/>
<path d="M98.6797 15.0166V1.68164H100.429L107.184 12.1497V1.68164H108.817V15.0166H107.069L100.313 4.53981V15.0166H98.6797Z" fill="#252525" stroke="#252525" stroke-width="0.581238" stroke-miterlimit="10"/>
<mask id="mask1_992_31" style="mask-type:luminance" maskUnits="userSpaceOnUse" x="119" y="0" width="20" height="32">
<path d="M120.029 1H137.76V31.2433H120.029V1Z" fill="white" stroke="white" stroke-width="1.16248"/>
</mask>
<g mask="url(#mask1_992_31)">
<path d="M131.896 16.802H131.896C132.707 15.5189 133.401 14.1623 133.976 12.7456L133.977 12.7447C134.936 10.3633 135.245 7.90174 135.227 5.39702C135.223 4.82897 135.129 3.81169 135.044 2.87738C135.034 2.76937 135.024 2.66248 135.014 2.55751C134.98 2.19016 134.95 1.84525 134.928 1.55331C135.052 1.71828 135.188 1.90597 135.33 2.10657C135.826 2.80845 136.369 3.64329 136.644 4.19873C137.838 6.61276 138.017 9.1546 137.445 11.7512C137.198 12.8561 136.663 13.9068 136.075 14.951C134.396 17.9302 132.146 20.4596 129.697 22.8589L129.696 22.8591C128.321 24.2084 126.957 25.5422 125.488 26.7509C124.576 27.502 123.138 28.6139 121.898 29.5524C121.763 29.6547 121.63 29.7548 121.5 29.8522C121.879 29.4156 122.304 28.932 122.749 28.4284C123.065 28.0697 123.392 27.7007 123.719 27.3316C124.858 26.0449 125.999 24.7564 126.72 23.894C128.607 21.642 130.329 19.278 131.896 16.802Z" fill="#86B455" stroke="#86B455" stroke-width="1.16248"/>
</g>
<mask id="mask2_992_31" style="mask-type:luminance" maskUnits="userSpaceOnUse" x="124" y="7" width="21" height="26">
<path d="M124.973 8.22304H143.603V31.7653H124.973V8.22304Z" fill="white" stroke="white" stroke-width="1.16248"/>
</mask>
<g mask="url(#mask2_992_31)">
<path d="M124.688 32.0557C127.259 30.4116 129.727 28.6258 132.082 26.6897C133.237 25.741 134.3 24.6893 135.42 23.7019C137.001 22.3111 138.374 20.7399 139.722 19.1473C140.868 17.7993 141.694 16.2368 142.185 14.5153C142.379 13.8413 142.543 13.1631 142.694 12.4805C142.948 11.3386 142.948 10.2053 142.926 9.05487C142.922 8.6814 142.926 8.30788 142.926 7.9001C143.232 8.02459 144.098 12.0341 143.904 13.8628C143.555 17.1168 142.03 19.7697 139.744 22.0578C137.818 23.9896 132.836 27.4925 132.93 27.72C133.026 27.9432 134.657 27.4238 135.247 27.2134C136.277 26.8443 137.319 26.5051 138.349 26.1317C139.83 25.5993 142.676 23.2297 142.871 22.9249C142.887 23.2813 141.949 25.8827 138.461 27.9046C137.591 28.4111 136.643 28.7546 135.669 29.0593C134.291 29.4887 132.874 29.7462 131.501 30.1841C129.856 30.7078 128.172 31.1199 126.497 31.5492C125.954 31.6865 124.391 32.2361 124.684 32.0515" fill="#40579B"/>
<mask id="mask3_992_31" style="mask-type:luminance" maskUnits="userSpaceOnUse" x="124" y="7" width="20" height="26">
<path d="M124.688 32.0557C127.259 30.4116 129.727 28.6258 132.082 26.6897C133.237 25.741 134.3 24.6893 135.42 23.7019C137.001 22.3111 138.374 20.7399 139.722 19.1473C140.868 17.7993 141.694 16.2368 142.185 14.5153C142.379 13.8413 142.543 13.1631 142.694 12.4805C142.948 11.3386 142.948 10.2053 142.926 9.05487C142.922 8.6814 142.926 8.30788 142.926 7.9001C143.232 8.02459 144.098 12.0341 143.904 13.8628C143.555 17.1168 142.03 19.7697 139.744 22.0578C137.818 23.9896 132.836 27.4925 132.93 27.72C133.026 27.9432 134.657 27.4238 135.247 27.2134C136.277 26.8443 137.319 26.5051 138.349 26.1317C139.83 25.5993 142.676 23.2297 142.871 22.9249C142.887 23.2813 141.949 25.8827 138.461 27.9046C137.591 28.4111 136.643 28.7546 135.669 29.0593C134.291 29.4887 132.874 29.7462 131.501 30.1841C129.856 30.7078 128.172 31.1199 126.497 31.5492C125.954 31.6865 124.391 32.2361 124.684 32.0515" fill="white"/>
</mask>
<g mask="url(#mask3_992_31)">
<path d="M135.42 23.7011L134.99 23.2155L134.99 23.2159L135.42 23.7011ZM139.723 19.1464L139.227 18.7277L139.226 18.7287L139.723 19.1464ZM142.186 14.5144L141.561 14.336V14.3373L142.186 14.5144ZM142.694 12.4797L142.06 12.3394L142.059 12.3404L142.694 12.4797ZM142.927 9.05402L142.277 9.06144V9.06607L142.927 9.05402ZM142.927 7.89925L143.172 7.29958L142.277 6.93498V7.89925H142.927ZM143.904 13.862L144.55 13.9308V13.93L143.904 13.862ZM139.744 22.057L139.284 21.5998L139.283 21.6005L139.744 22.057ZM132.931 27.7191L132.331 27.9675L132.333 27.9715L132.931 27.7191ZM135.248 27.2126L135.467 27.8225L135.468 27.8221L135.248 27.2126ZM138.349 26.1308L138.129 25.5214L138.126 25.5221L138.349 26.1308ZM142.871 22.9241L143.52 22.8929L143.421 20.8487L142.322 22.5773L142.871 22.9241ZM138.461 27.9037L138.134 27.3438L138.133 27.3444L138.461 27.9037ZM135.67 29.0585L135.864 29.6768L135.865 29.6765L135.67 29.0585ZM126.497 31.5483L126.657 32.1762L126.659 32.1757L126.497 31.5483ZM125.039 32.6001C127.632 30.9425 130.12 29.1416 132.496 27.1887L131.669 26.1891C129.334 28.1082 126.888 29.879 124.338 31.5097L125.039 32.6001ZM132.496 27.1887C133.654 26.2367 134.776 25.1343 135.851 24.1863L134.99 23.2159C133.826 24.2425 132.82 25.2437 131.669 26.1891L132.496 27.1887ZM135.85 24.1866C137.47 22.7616 138.87 21.1585 140.219 19.5641L139.226 18.7287C137.88 20.3196 136.532 21.8588 134.99 23.2155L135.85 24.1866ZM140.218 19.5651C141.426 18.1447 142.296 16.4992 142.811 14.6916L141.561 14.3373C141.095 15.9725 140.311 17.4522 139.227 18.7277L140.218 19.5651ZM142.811 14.6929C143.009 14.0015 143.176 13.3092 143.329 12.6189L142.059 12.3404C141.911 13.0153 141.75 13.6795 141.561 14.336L142.811 14.6929ZM143.328 12.6199C143.601 11.395 143.598 10.1922 143.576 9.04191L142.277 9.06607C142.298 10.2167 142.296 11.2805 142.06 12.3394L143.328 12.6199ZM143.576 9.04654C143.573 8.67743 143.576 8.31747 143.576 7.89925H142.277C142.277 8.29665 142.273 8.68362 142.277 9.06144L143.576 9.04654ZM142.681 8.49887C142.57 8.45362 142.505 8.3885 142.483 8.36462C142.456 8.33594 142.442 8.31423 142.44 8.31111C142.436 8.30508 142.445 8.31903 142.465 8.36635C142.503 8.45752 142.554 8.60389 142.611 8.80443C142.725 9.20094 142.852 9.74961 142.964 10.3589C143.193 11.5985 143.345 12.9791 143.258 13.7939L144.55 13.93C144.658 12.9161 144.474 11.3776 144.242 10.1241C144.124 9.48686 143.989 8.89555 143.861 8.44809C143.797 8.22668 143.731 8.02508 143.664 7.86605C143.631 7.78821 143.59 7.7015 143.541 7.62215C143.515 7.58237 143.48 7.53086 143.431 7.47958C143.388 7.4331 143.303 7.35264 143.172 7.29958L142.681 8.49887ZM143.259 13.7931C142.929 16.8689 141.491 19.3915 139.284 21.5998L140.205 22.5141C142.571 20.1463 144.183 17.3629 144.55 13.9308L143.259 13.7931ZM139.283 21.6005C138.356 22.5308 136.666 23.8618 135.181 25.0163C134.448 25.5856 133.766 26.1112 133.276 26.5067C133.032 26.7034 132.824 26.878 132.675 27.0153C132.604 27.0815 132.529 27.1555 132.469 27.2287C132.441 27.2627 132.394 27.3221 132.356 27.3985C132.339 27.4318 132.21 27.677 132.331 27.9675L133.532 27.4708C133.646 27.7471 133.522 27.9717 133.518 27.9783C133.504 28.0063 133.491 28.0256 133.485 28.0344C133.479 28.0441 133.474 28.0494 133.473 28.0499C133.473 28.0504 133.48 28.0429 133.496 28.0262C133.512 28.0102 133.533 27.9897 133.56 27.9642C133.674 27.8588 133.854 27.7074 134.094 27.5135C134.572 27.1279 135.238 26.6143 135.98 26.038C137.443 24.9012 139.207 23.5148 140.205 22.5134L139.283 21.6005ZM132.333 27.9715C132.418 28.1719 132.571 28.2811 132.682 28.3348C132.788 28.3864 132.888 28.4049 132.954 28.4129C133.086 28.4292 133.221 28.4194 133.326 28.4071C133.547 28.3811 133.813 28.3214 134.068 28.2553C134.585 28.1208 135.16 27.932 135.467 27.8225L135.029 26.6027C134.746 26.7035 134.21 26.8796 133.74 27.0017C133.501 27.0637 133.304 27.1052 133.175 27.1205C133.104 27.1287 133.091 27.1245 133.114 27.1272C133.124 27.1286 133.18 27.1355 133.251 27.1703C133.327 27.2072 133.457 27.2943 133.529 27.4668L132.333 27.9715ZM135.468 27.8221C135.978 27.6393 136.491 27.4639 137.01 27.2858C137.527 27.1083 138.05 26.9285 138.571 26.7395L138.126 25.5221C137.618 25.7067 137.105 25.8831 136.587 26.0608C136.07 26.238 135.548 26.4167 135.028 26.6031L135.468 27.8221ZM138.569 26.7402C139.415 26.4363 140.569 25.6519 141.486 24.958C141.956 24.6018 142.387 24.2518 142.716 23.9689C142.88 23.8279 143.022 23.7002 143.131 23.5948C143.219 23.5112 143.346 23.387 143.42 23.2709L142.322 22.5773C142.347 22.5374 142.343 22.5539 142.232 22.6603C142.143 22.7448 142.02 22.8565 141.866 22.9888C141.56 23.2526 141.15 23.5855 140.7 23.9262C139.774 24.6265 138.765 25.293 138.129 25.5214L138.569 26.7402ZM142.222 22.9553C142.218 22.8885 142.232 22.8824 142.204 22.9819C142.182 23.0591 142.143 23.1709 142.082 23.3128C141.961 23.5957 141.758 23.9782 141.449 24.4167C140.832 25.2913 139.794 26.3819 138.134 27.3438L138.788 28.4637C140.616 27.4037 141.792 26.1826 142.512 25.1619C142.871 24.6527 143.119 24.1918 143.277 23.8234C143.356 23.6398 143.415 23.4741 143.455 23.333C143.489 23.2141 143.527 23.0488 143.52 22.8929L142.222 22.9553ZM138.133 27.3444C137.327 27.8138 136.435 28.14 135.475 28.4405L135.865 29.6765C136.852 29.3675 137.855 29.0068 138.789 28.4631L138.133 27.3444ZM135.476 28.4402C134.809 28.6481 134.13 28.8152 133.428 28.989C132.732 29.1612 132.014 29.3398 131.304 29.5663L131.699 30.8003C132.362 30.5888 133.04 30.4197 133.741 30.2463C134.435 30.0745 135.153 29.8982 135.864 29.6768L135.476 28.4402ZM131.304 29.5663C129.681 30.0828 128.021 30.4891 126.336 30.921L126.659 32.1757C128.324 31.7491 130.031 31.3312 131.699 30.8003L131.304 29.5663ZM126.337 30.9205C126.043 30.995 125.484 31.1774 125.083 31.302C124.868 31.3689 124.704 31.4181 124.614 31.4401C124.592 31.4453 124.585 31.4463 124.589 31.4457C124.591 31.4454 124.603 31.4434 124.622 31.442C124.633 31.4411 124.684 31.4369 124.753 31.4472C124.787 31.4523 124.854 31.4652 124.932 31.5024C125.011 31.5402 125.139 31.6224 125.224 31.7841C125.411 32.141 125.193 32.4344 125.173 32.4616C125.123 32.5299 125.071 32.5692 125.062 32.5763C125.045 32.5898 125.032 32.5973 125.031 32.5981L124.337 31.5031C124.317 31.5154 124.291 31.5331 124.262 31.5552C124.242 31.5711 124.183 31.6178 124.127 31.6922C124.103 31.7254 123.883 32.0237 124.072 32.3841C124.158 32.5476 124.289 32.6313 124.37 32.6702C124.45 32.7087 124.521 32.7224 124.559 32.7281C124.682 32.7466 124.791 32.7256 124.804 32.7235C124.845 32.7165 124.886 32.7072 124.922 32.6986C125.059 32.6651 125.264 32.603 125.471 32.5385C125.915 32.4001 126.408 32.2391 126.657 32.1762L126.337 30.9205Z" fill="#40579B"/>
</g>
</g>
<mask id="mask4_992_31" style="mask-type:luminance" maskUnits="userSpaceOnUse" x="113" y="5" width="17" height="25">
<path d="M113.766 5.93695H129.094V28.6034H113.766V5.93695Z" fill="white" stroke="white" stroke-width="1.16248"/>
</mask>
<g mask="url(#mask4_992_31)">
<path d="M113.441 9.08174C113.785 8.87567 117.028 7.31307 118.346 6.84519C119.681 6.37296 121.042 5.96943 122.459 5.75479C123.738 5.56162 124.987 5.53156 126.232 5.86211C127.36 6.16261 128.217 6.8323 128.781 7.86687C129.651 9.47239 129.539 11.1294 129.018 12.7907C127.989 16.0876 126.029 18.8522 123.945 21.5395C122.127 23.8876 117.554 28.8243 117.102 28.9274C117.627 27.9615 121.839 22.3165 123.217 20.2688C124.233 18.762 125.194 17.2209 126.081 15.6368C126.946 14.0914 127.493 12.4387 127.433 10.64C127.394 9.53678 126.951 8.58373 126.167 7.80248C125.883 7.51913 124.156 6.21842 121.189 6.87091C120.133 7.09846 119.065 7.28305 118.036 7.60501C117.058 7.91408 113.462 9.12894 113.446 9.07744" fill="#40579B"/>
<mask id="mask5_992_31" style="mask-type:luminance" maskUnits="userSpaceOnUse" x="113" y="5" width="17" height="24">
<path d="M113.44 9.08174C113.785 8.87567 117.027 7.31307 118.346 6.84519C119.68 6.37296 121.042 5.96943 122.458 5.75479C123.738 5.56162 124.986 5.53156 126.231 5.86211C127.359 6.16261 128.216 6.8323 128.78 7.86687C129.65 9.47239 129.538 11.1294 129.017 12.7907C127.988 16.0876 126.028 18.8522 123.944 21.5395C122.127 23.8876 117.553 28.8243 117.101 28.9274C117.626 27.9615 121.838 22.3165 123.216 20.2688C124.232 18.762 125.193 17.2209 126.08 15.6368C126.946 14.0914 127.493 12.4387 127.432 10.64C127.394 9.53678 126.95 8.58373 126.166 7.80248C125.882 7.51913 124.155 6.21842 121.188 6.87091C120.133 7.09846 119.065 7.28305 118.036 7.60501C117.058 7.91408 113.462 9.12894 113.445 9.07744" fill="white"/>
</mask>
<g mask="url(#mask5_992_31)">
<path d="M118.346 6.8467L118.128 6.23622L118.128 6.23649L118.346 6.8467ZM122.459 5.7563L122.362 5.11586L122.361 5.11591L122.459 5.7563ZM126.231 5.86362L126.399 5.23782L126.399 5.23771L126.231 5.86362ZM128.781 7.86838L129.353 7.56054L129.352 7.55903L128.781 7.86838ZM129.018 12.7922L128.398 12.5989L128.397 12.5997L129.018 12.7922ZM117.101 28.9289L116.53 28.6201L115.845 29.8796L117.246 29.5603L117.101 28.9289ZM127.433 10.6415L128.083 10.6199V10.6188L127.433 10.6415ZM121.188 6.87242L121.326 7.50552L121.328 7.50496L121.188 6.87242ZM118.036 7.60652L117.841 6.98848L117.84 6.9891L118.036 7.60652ZM113.775 9.63867C113.912 9.55693 114.773 9.13079 115.804 8.64985C116.825 8.17372 117.939 7.679 118.564 7.45686L118.128 6.23649C117.435 6.48227 116.269 7.00282 115.253 7.47639C114.247 7.94527 113.314 8.4035 113.107 8.52776L113.775 9.63867ZM118.563 7.45714C119.879 6.99177 121.197 6.60269 122.556 6.39667L122.361 5.11591C120.887 5.33919 119.483 5.75716 118.128 6.23622L118.563 7.45714ZM122.556 6.39667C123.785 6.21111 124.937 6.19003 126.064 6.48952L126.399 5.23771C125.037 4.87612 123.691 4.91508 122.362 5.11586L122.556 6.39667ZM126.063 6.48941C127.02 6.74403 127.731 7.29917 128.21 8.17773L129.352 7.55903C128.703 6.36844 127.7 5.58423 126.399 5.23782L126.063 6.48941ZM128.209 8.17617C128.964 9.57026 128.89 11.029 128.398 12.5989L129.638 12.9855C130.188 11.2328 130.337 9.37753 129.353 7.56054L128.209 8.17617ZM128.397 12.5997C127.405 15.7773 125.51 18.4634 123.43 21.1448L124.458 21.9372C126.548 19.2439 128.572 16.4009 129.638 12.9847L128.397 12.5997ZM123.43 21.1448C122.539 22.2961 120.956 24.1013 119.534 25.6374C118.824 26.404 118.16 27.0964 117.649 27.601C117.392 27.8542 117.18 28.0538 117.023 28.19C116.945 28.2589 116.888 28.304 116.852 28.33C116.834 28.343 116.829 28.3454 116.835 28.342C116.838 28.3401 116.849 28.3343 116.866 28.3269C116.881 28.3203 116.913 28.3075 116.957 28.2974L117.246 29.5603C117.352 29.5362 117.435 29.4919 117.476 29.4686C117.526 29.4404 117.573 29.4088 117.613 29.3795C117.695 29.3207 117.785 29.2469 117.878 29.1663C118.065 29.0037 118.299 28.7823 118.563 28.5216C119.094 27.9982 119.771 27.2903 120.489 26.5163C121.92 24.9712 123.533 23.1335 124.459 21.9366L123.43 21.1448ZM117.673 29.2377C117.782 29.0364 118.118 28.5374 118.617 27.8283C119.105 27.135 119.721 26.2778 120.366 25.3836C121.652 23.603 123.06 21.6666 123.757 20.6312L122.677 19.9089C121.996 20.9211 120.608 22.8317 119.312 24.6269C118.666 25.5207 118.046 26.3839 117.552 27.0846C117.071 27.7696 116.683 28.3384 116.53 28.6201L117.673 29.2377ZM123.756 20.6317C124.781 19.1121 125.751 17.5557 126.648 15.9541L125.513 15.3226C124.636 16.8891 123.685 18.415 122.677 19.9089L123.756 20.6317ZM126.648 15.9541C127.553 14.3388 128.147 12.5692 128.083 10.6199L126.783 10.6632C126.839 12.3112 126.34 13.847 125.513 15.3226L126.648 15.9541ZM128.083 10.6188C128.037 9.34048 127.518 8.23493 126.626 7.34593L125.707 8.26199C126.383 8.93555 126.751 9.73604 126.783 10.6642L128.083 10.6188ZM126.626 7.34593C126.213 6.9338 124.268 5.53193 121.048 6.23989L121.328 7.50496C124.043 6.90791 125.552 8.10748 125.707 8.26199L126.626 7.34593ZM121.051 6.23933C120.031 6.45923 118.908 6.65475 117.841 6.98848L118.23 8.22455C119.222 7.91436 120.235 7.74066 121.326 7.50552L121.051 6.23933ZM117.84 6.9891C117.346 7.145 116.194 7.52901 115.177 7.86269C114.666 8.03059 114.188 8.18616 113.837 8.29625C113.661 8.35166 113.522 8.39385 113.43 8.42013C113.381 8.4338 113.356 8.44021 113.347 8.44217C113.338 8.44401 113.357 8.43943 113.387 8.4362C113.396 8.43514 113.446 8.42939 113.512 8.43575C113.542 8.43876 113.618 8.44786 113.707 8.48686C113.795 8.52525 113.981 8.63278 114.062 8.87411L112.828 9.28379C112.91 9.5259 113.096 9.63404 113.185 9.67299C113.275 9.71244 113.353 9.72193 113.385 9.72511C113.455 9.73186 113.51 9.72589 113.528 9.72405C113.572 9.71919 113.612 9.71071 113.631 9.70636C113.677 9.69604 113.731 9.68136 113.785 9.66618C113.896 9.63466 114.049 9.58795 114.227 9.53187C114.587 9.41899 115.072 9.26119 115.584 9.09318C116.614 8.75504 117.748 8.37711 118.233 8.22394L117.84 6.9891Z" fill="#40579B"/>
</g>
</g>
<path d="M116.572 37.9882C115.379 38.0539 114.661 37.3396 114.005 36.5801C112.339 34.6589 112.884 32.6802 114.616 31.1325C114.919 30.8615 115.108 31.0422 115.17 31.3501C115.362 32.282 115.805 33.0948 116.375 33.8338C117.208 34.9216 118.303 35.636 119.62 36.0054C120.051 36.1245 120.112 36.2681 119.821 36.6048C119.538 36.9332 119.189 37.1754 118.799 37.356C118.073 37.6886 117.351 38.058 116.576 37.9923M113.853 34.7451C114.041 34.2238 114.041 33.7763 113.807 33.2467C113.582 33.7886 113.451 34.236 113.853 34.7451Z" fill="#40579B"/>
<mask id="mask6_992_31" style="mask-type:luminance" maskUnits="userSpaceOnUse" x="112" y="30" width="9" height="9">
<path d="M116.452 38.0204C115.198 38.0891 114.445 37.3421 113.756 36.5479C112.007 34.5389 112.58 32.4698 114.397 30.8514C114.716 30.568 114.914 30.757 114.979 31.0789C115.181 32.0533 115.646 32.9033 116.245 33.676C117.119 34.8136 118.269 35.5606 119.652 35.947C120.104 36.0715 120.168 36.2217 119.863 36.5737C119.565 36.9171 119.199 37.1704 118.79 37.3592C118.028 37.707 117.27 38.0933 116.456 38.0247M113.596 34.629C113.795 34.0839 113.795 33.6159 113.549 33.0622C113.312 33.6288 113.174 34.0967 113.596 34.629Z" fill="white"/>
</mask>
<g mask="url(#mask6_992_31)">
<path d="M113.755 36.5461L114.247 36.1223L114.246 36.1216L113.755 36.5461ZM114.979 31.077L114.341 31.204L114.342 31.2083L114.979 31.077ZM116.244 33.6742L116.76 33.2803L116.759 33.2783L116.244 33.6742ZM119.651 35.9451L119.475 36.5688L119.478 36.5694L119.651 35.9451ZM119.862 36.5718L119.371 36.1478L119.37 36.1488L119.862 36.5718ZM118.79 37.3574L119.06 37.9464L119.063 37.9452L118.79 37.3574ZM113.596 34.6272L113.086 35.0288L113.81 35.9413L114.207 34.8477L113.596 34.6272ZM113.548 33.0603L114.143 32.7985L113.531 31.4181L112.949 32.8112L113.548 33.0603ZM116.415 37.3717C115.499 37.4219 114.931 36.911 114.247 36.1223L113.264 36.9698C113.957 37.7695 114.897 38.7524 116.487 38.6653L116.415 37.3717ZM114.246 36.1216C113.475 35.2353 113.263 34.402 113.381 33.6511C113.502 32.876 113.991 32.0796 114.83 31.3325L113.964 30.3661C112.986 31.2374 112.279 32.2851 112.097 33.4515C111.91 34.642 112.287 35.8478 113.264 36.9705L114.246 36.1216ZM114.83 31.3325C114.863 31.3028 114.847 31.3285 114.78 31.3462C114.698 31.368 114.583 31.3647 114.476 31.3072C114.383 31.2574 114.344 31.1938 114.337 31.1804C114.329 31.1654 114.334 31.1701 114.341 31.204L115.616 30.95C115.573 30.7386 115.453 30.3595 115.09 30.1653C114.633 29.9214 114.204 30.153 113.964 30.3661L114.83 31.3325ZM114.342 31.2083C114.57 32.3059 115.09 33.2446 115.73 34.0701L116.759 33.2783C116.201 32.5584 115.791 31.7971 115.614 30.9457L114.342 31.2083ZM115.729 34.0681C116.693 35.3232 117.966 36.1468 119.475 36.5688L119.826 35.3214C118.572 34.9707 117.544 34.3003 116.76 33.2803L115.729 34.0681ZM119.478 36.5694C119.572 36.5952 119.599 36.6107 119.595 36.6079C119.591 36.6056 119.483 36.545 119.428 36.389C119.369 36.2241 119.419 36.0982 119.43 36.0749C119.438 36.0572 119.432 36.0777 119.371 36.1478L120.353 36.9958C120.445 36.8899 120.546 36.7597 120.613 36.6109C120.683 36.4565 120.746 36.2192 120.653 35.9572C120.563 35.7041 120.375 35.5606 120.241 35.4841C120.106 35.4071 119.957 35.3572 119.824 35.3207L119.478 36.5694ZM119.37 36.1488C119.144 36.41 118.858 36.612 118.516 36.7696L119.063 37.9452C119.54 37.725 119.986 37.4205 120.354 36.9949L119.37 36.1488ZM118.519 36.7684C117.694 37.1449 117.115 37.4284 116.51 37.3774L116.4 38.6682C117.424 38.7545 118.361 38.2653 119.06 37.9464L118.519 36.7684ZM114.207 34.8477C114.458 34.1555 114.46 33.5142 114.143 32.7985L112.954 33.3221C113.128 33.7139 113.13 34.0085 112.985 34.4066L114.207 34.8477ZM112.949 32.8112C112.83 33.095 112.693 33.4478 112.676 33.828C112.657 34.2468 112.784 34.6479 113.086 35.0288L114.106 34.2255C113.985 34.0742 113.97 33.9751 113.974 33.8853C113.98 33.7567 114.03 33.5923 114.148 33.3094L112.949 32.8112Z" fill="#40579B"/>
</g>
<mask id="mask7_992_31" style="mask-type:luminance" maskUnits="userSpaceOnUse" x="123" y="5" width="18" height="25">
<path d="M124.181 5.73958H140.189V29.0414H124.181V5.73958Z" fill="white" stroke="white" stroke-width="1.16248"/>
</mask>
<g mask="url(#mask7_992_31)">
<path d="M123.855 29.3661C124.622 28.6491 125.311 27.988 126.021 27.3527C127.029 26.4512 128.076 25.5927 129.066 24.674C130.306 23.5192 131.521 22.3301 132.722 21.1282C134.467 19.3853 136.194 17.6166 137.602 15.5818C138.596 14.1481 139.2 12.5296 139.583 10.8297C139.944 9.23274 140.052 5.60533 140.246 5.41216C140.461 5.70406 140.651 9.79084 140.366 11.4865C139.931 14.0665 138.666 16.2429 136.9 18.1704C135.543 19.6557 134.079 21.0294 132.61 22.3945C131.051 23.8412 129.385 25.1719 127.748 26.5328C126.646 27.4515 124.161 29.4304 123.851 29.3618" fill="#86B455"/>
<mask id="mask8_992_31" style="mask-type:luminance" maskUnits="userSpaceOnUse" x="123" y="5" width="18" height="25">
<path d="M123.855 29.3646C124.622 28.6477 125.311 27.9866 126.021 27.3513C127.029 26.4498 128.076 25.5913 129.066 24.6726C130.306 23.5178 131.521 22.3287 132.722 21.1267C134.467 19.3839 136.194 17.6152 137.602 15.5804C138.596 14.1466 139.2 12.5282 139.583 10.8282C139.944 9.23132 140.052 5.60391 140.246 5.41074C140.461 5.70265 140.651 9.78942 140.366 11.4851C139.931 14.0651 138.666 16.2415 136.9 18.169C135.543 19.6543 134.079 21.028 132.61 22.3931C131.051 23.8398 129.385 25.1705 127.748 26.5314C126.646 27.45 124.161 29.429 123.851 29.3603" fill="white"/>
</mask>
<g mask="url(#mask8_992_31)">
<path d="M129.066 24.6744L129.509 25.1487L129.51 25.1478L129.066 24.6744ZM137.602 15.5822L137.068 15.2138L137.067 15.2144L137.602 15.5822ZM139.583 10.8301L138.949 10.6874V10.6881L139.583 10.8301ZM140.246 5.41258L140.77 5.02886L140.322 4.42136L139.787 4.95455L140.246 5.41258ZM140.366 11.4869L141.007 11.5943V11.5936L140.366 11.4869ZM136.9 18.1708L136.42 17.734L136.419 17.7348L136.9 18.1708ZM132.611 22.395L133.053 22.869L133.054 22.8686L132.611 22.395ZM124.3 29.8389C125.074 29.1144 125.752 28.4642 126.455 27.8353L125.588 26.871C124.87 27.5127 124.169 28.1848 123.411 28.8941L124.3 29.8389ZM126.455 27.8353C127.425 26.9677 128.523 26.0633 129.509 25.1487L128.623 24.2002C127.629 25.1229 126.633 25.9356 125.588 26.871L126.455 27.8353ZM129.51 25.1478C130.758 23.9858 131.978 22.7908 133.183 21.5858L132.262 20.6711C131.064 21.87 129.855 23.0535 128.623 24.2011L129.51 25.1478ZM133.183 21.5858C134.925 19.8443 136.691 18.0387 138.137 15.9501L137.067 15.2144C135.696 17.1953 134.008 18.9267 132.262 20.6711L133.183 21.5858ZM138.136 15.9507C139.192 14.4291 139.821 12.7267 140.217 10.9721L138.949 10.6881C138.578 12.3335 138.001 13.8677 137.068 15.2138L138.136 15.9507ZM140.217 10.9728C140.41 10.1209 140.53 8.76333 140.625 7.64974C140.674 7.0793 140.716 6.56857 140.758 6.18636C140.778 5.99416 140.798 5.84915 140.816 5.75203C140.82 5.72879 140.824 5.71066 140.827 5.69706C140.831 5.683 140.832 5.67699 140.832 5.67708C140.832 5.67736 140.831 5.68064 140.829 5.68628C140.827 5.69172 140.823 5.70172 140.817 5.71488C140.809 5.73112 140.777 5.79943 140.706 5.8706L139.787 4.95455C139.703 5.03779 139.659 5.12488 139.639 5.16628C139.616 5.21568 139.6 5.26236 139.59 5.29833C139.567 5.3703 139.551 5.44764 139.537 5.51861C139.511 5.66308 139.488 5.84564 139.466 6.04562C139.422 6.44777 139.378 6.97998 139.33 7.5401C139.232 8.68778 139.118 9.94237 138.949 10.6874L140.217 10.9728ZM139.723 5.79629C139.661 5.71267 139.649 5.64583 139.661 5.68639C139.666 5.70349 139.674 5.73959 139.685 5.80006C139.706 5.91944 139.728 6.09093 139.749 6.30855C139.791 6.74122 139.825 7.31757 139.844 7.94302C139.883 9.20967 139.857 10.6001 139.726 11.3802L141.007 11.5936C141.161 10.678 141.182 9.17725 141.143 7.90363C141.124 7.25892 141.088 6.65294 141.043 6.1842C141.02 5.95116 140.994 5.74224 140.965 5.57563C140.95 5.4931 140.933 5.40981 140.912 5.33415C140.897 5.28194 140.859 5.14897 140.77 5.02886L139.723 5.79629ZM139.726 11.3795C139.317 13.8065 138.125 15.8732 136.42 17.734L137.38 18.6076C139.207 16.6135 140.547 14.3272 141.007 11.5943L139.726 11.3795ZM136.419 17.7348C135.083 19.198 133.637 20.5551 132.167 21.9212L133.054 22.8686C134.521 21.5046 136.004 20.1143 137.381 18.6069L136.419 17.7348ZM132.168 21.9208C130.626 23.3516 128.982 24.6638 127.332 26.0358L128.165 27.0306C129.788 25.681 131.477 24.3316 133.053 22.869L132.168 21.9208ZM127.332 26.0358C126.786 26.4905 125.898 27.2083 125.111 27.8012C124.716 28.0987 124.356 28.3575 124.082 28.5351C123.943 28.6251 123.84 28.6848 123.773 28.7178C123.739 28.7347 123.731 28.7364 123.741 28.733C123.748 28.7311 123.77 28.7245 123.804 28.7202C123.835 28.7162 123.904 28.7103 123.992 28.7299L123.71 29.9945C123.903 30.0372 124.068 29.9884 124.125 29.9706C124.208 29.9453 124.286 29.9106 124.351 29.8783C124.484 29.8126 124.635 29.7218 124.79 29.6215C125.103 29.4187 125.491 29.1382 125.894 28.8347C126.703 28.2256 127.608 27.4942 128.165 27.0302L127.332 26.0358Z" fill="#86B455"/>
</g>
</g>
<mask id="mask9_992_31" style="mask-type:luminance" maskUnits="userSpaceOnUse" x="126" y="2" width="8" height="20">
<path d="M127.162 2.84721H132.644V20.8174H127.162V2.84721Z" fill="white" stroke="white" stroke-width="1.16248"/>
</mask>
<g mask="url(#mask9_992_31)">
<path d="M129.501 2.52123C130.53 2.81314 131.159 3.55579 131.723 4.31563C132.951 5.96836 133.175 7.83143 132.8 9.8233C132.321 12.3689 131.163 14.6227 129.889 16.8378C129.178 18.0741 126.831 21.1391 126.831 21.1391C126.831 21.1391 128.42 17.8509 129.01 16.6574C130.104 14.4553 131.262 12.2401 131.715 9.81471C132.145 7.51376 131.56 4.36284 129.497 2.51694" fill="#86B455"/>
<mask id="mask10_992_31" style="mask-type:luminance" maskUnits="userSpaceOnUse" x="126" y="2" width="7" height="20">
<path d="M129.5 2.52141C130.529 2.81332 131.158 3.55598 131.722 4.31581C132.95 5.96854 133.174 7.83161 132.799 9.82348C132.321 12.3691 131.163 14.6228 129.888 16.838C129.177 18.0743 126.83 21.1393 126.83 21.1393C126.83 21.1393 128.419 17.8511 129.009 16.6576C130.103 14.4554 131.262 12.2403 131.714 9.81489C132.144 7.51395 131.559 4.36303 129.496 2.51712" fill="white"/>
</mask>
<g mask="url(#mask10_992_31)">
<path d="M129.888 16.839L129.324 16.5167L129.324 16.517L129.888 16.839ZM126.83 21.1404L126.245 20.8592L127.347 21.5334L126.83 21.1404ZM129.009 16.6587L128.427 16.3712L128.427 16.3724L129.009 16.6587ZM129.323 3.14547C130.125 3.37309 130.642 3.95072 131.2 4.70219L132.245 3.9315C131.674 3.16332 130.934 2.25564 129.678 1.89943L129.323 3.14547ZM131.2 4.70219C132.292 6.17322 132.511 7.83951 132.16 9.70517L133.438 9.94388C133.836 7.82579 133.607 5.76594 132.245 3.9315L131.2 4.70219ZM132.16 9.70517C131.704 12.1371 130.593 14.3114 129.324 16.5167L130.452 17.1613C131.732 14.9364 132.938 12.6032 133.438 9.94388L132.16 9.70517ZM129.324 16.517C128.99 17.0981 128.249 18.1438 127.568 19.0709C127.233 19.5285 126.918 19.9479 126.688 20.253C126.574 20.4056 126.48 20.5294 126.415 20.615C126.382 20.6577 126.357 20.691 126.34 20.7134C126.331 20.7247 126.325 20.7332 126.32 20.7389C126.318 20.7418 126.316 20.7439 126.315 20.7454C126.314 20.746 126.314 20.7466 126.314 20.7469C126.314 20.7469 126.314 20.7474 126.83 21.1404C127.347 21.5334 127.347 21.5334 127.347 21.5334C127.347 21.5334 127.347 21.5335 127.347 21.5334C127.347 21.5333 127.347 21.533 127.347 21.5327C127.348 21.5324 127.348 21.5317 127.348 21.531C127.35 21.5294 127.352 21.5272 127.354 21.5241C127.358 21.5182 127.365 21.5094 127.374 21.4979C127.392 21.4748 127.417 21.441 127.45 21.3975C127.516 21.3107 127.612 21.1854 127.727 21.0312C127.96 20.723 128.277 20.299 128.617 19.8357C129.288 18.9212 130.075 17.8164 130.452 17.1613L129.324 16.517ZM126.83 21.1404C127.416 21.4215 127.416 21.4215 127.416 21.4215C127.416 21.4214 127.416 21.4215 127.416 21.4215C127.416 21.4214 127.416 21.4211 127.416 21.4209C127.416 21.4205 127.417 21.4199 127.417 21.4191C127.418 21.4175 127.419 21.4152 127.42 21.412C127.423 21.4058 127.428 21.3965 127.433 21.3843C127.445 21.36 127.463 21.3241 127.485 21.278C127.53 21.1858 127.594 21.0528 127.673 20.8894C127.831 20.5626 128.048 20.1144 128.284 19.629C128.755 18.6572 129.299 17.5391 129.592 16.945L128.427 16.3724C128.13 16.9716 127.584 18.0944 127.113 19.0651C126.878 19.551 126.661 19.9995 126.503 20.3265C126.423 20.49 126.359 20.6232 126.314 20.7155C126.292 20.7616 126.275 20.7976 126.263 20.822C126.257 20.8342 126.252 20.8435 126.25 20.8498C126.248 20.8529 126.247 20.8553 126.246 20.8568C126.246 20.8577 126.245 20.8582 126.245 20.8586C126.245 20.8589 126.245 20.8591 126.245 20.8592C126.245 20.8592 126.245 20.8592 126.83 21.1404ZM129.591 16.9461C130.672 14.7711 131.88 12.4672 132.353 9.93428L131.075 9.69713C130.643 12.015 129.534 14.1418 128.427 16.3712L129.591 16.9461ZM132.353 9.93428C132.812 7.47927 132.208 4.07413 129.93 2.03614L129.062 3.00017C130.91 4.65401 131.477 7.55031 131.075 9.69713L132.353 9.93428Z" fill="#86B455"/>
</g>
</g>
<mask id="mask11_992_31" style="mask-type:luminance" maskUnits="userSpaceOnUse" x="115" y="29" width="7" height="7">
<path d="M115.8 29.9579H120.758V35.1484H115.8V29.9579Z" fill="white" stroke="white" stroke-width="1.16248"/>
</mask>
<g mask="url(#mask11_992_31)">
<path d="M115.479 30.449C115.462 30.1356 115.501 29.9596 115.647 29.8136C115.759 29.7063 115.884 29.599 116.057 29.6462C116.216 29.6934 116.207 29.848 116.246 29.9768C116.849 32.1489 118.085 33.7716 120.251 34.5959C120.38 34.6431 120.518 34.6688 120.639 34.7289C120.824 34.8233 121.13 34.8663 121.078 35.1453C121.031 35.3986 120.746 35.4201 120.526 35.4501C119.967 35.5317 119.493 35.2999 119.015 35.038C117.516 34.2138 116.427 33.0247 115.721 31.4706C115.553 31.1058 115.505 30.7151 115.475 30.4404" fill="#40579B"/>
<mask id="mask12_992_31" style="mask-type:luminance" maskUnits="userSpaceOnUse" x="115" y="29" width="7" height="7">
<path d="M115.479 30.4504C115.462 30.137 115.501 29.961 115.647 29.8151C115.759 29.7078 115.884 29.6005 116.057 29.6477C116.216 29.6949 116.207 29.8494 116.246 29.9782C116.849 32.1504 118.085 33.773 120.251 34.5973C120.38 34.6445 120.518 34.6702 120.639 34.7303C120.824 34.8248 121.13 34.8677 121.078 35.1467C121.031 35.4 120.746 35.4215 120.526 35.4515C119.967 35.5331 119.493 35.3013 119.015 35.0394C117.516 34.2152 116.427 33.0261 115.721 31.4721C115.553 31.1072 115.505 30.7166 115.475 30.4418" fill="white"/>
</mask>
<g mask="url(#mask12_992_31)">
<path d="M115.649 29.8144L115.198 29.3475L115.194 29.3519L115.189 29.3564L115.649 29.8144ZM116.058 29.6471L116.243 29.0262L116.237 29.0243L116.23 29.0225L116.058 29.6471ZM116.247 29.9776L116.874 29.8049L116.872 29.7982L116.87 29.7915L116.247 29.9776ZM120.253 34.5967L120.021 35.2018L120.025 35.2033L120.029 35.2048L120.253 34.5967ZM120.64 34.7297L120.936 34.1531L120.931 34.1504L120.64 34.7297ZM121.079 35.1461L121.718 35.2649L121.719 35.2637L121.079 35.1461ZM120.528 35.4509L120.44 34.8092L120.434 34.81L120.528 35.4509ZM119.017 35.0388L118.702 35.606L118.704 35.6065L119.017 35.0388ZM115.722 31.4715L116.314 31.2042L116.313 31.2013L115.722 31.4715ZM116.13 30.4143C116.126 30.3514 116.126 30.3067 116.128 30.2747C116.13 30.2432 116.133 30.23 116.133 30.2288C116.134 30.2285 116.133 30.2309 116.131 30.2355C116.129 30.2401 116.126 30.2458 116.123 30.2519C116.12 30.2579 116.116 30.263 116.113 30.267C116.11 30.2708 116.108 30.2727 116.108 30.2725L115.189 29.3564C114.844 29.7002 114.811 30.1123 114.832 30.4852L116.13 30.4143ZM116.099 30.2814C116.124 30.2573 116.137 30.2458 116.145 30.2391C116.153 30.2327 116.147 30.239 116.129 30.2484C116.109 30.2586 116.073 30.2735 116.024 30.28C115.974 30.2869 115.925 30.2825 115.886 30.2716L116.23 29.0225C115.664 28.8672 115.281 29.2687 115.198 29.3475L116.099 30.2814ZM115.873 30.2679C115.812 30.25 115.741 30.2124 115.68 30.1482C115.623 30.0886 115.597 30.031 115.589 30.0074C115.582 29.9887 115.581 29.9798 115.588 30.0134C115.592 30.0322 115.606 30.0995 115.625 30.1637L116.87 29.7915C116.871 29.7949 116.87 29.7941 116.869 29.7852C116.866 29.7739 116.864 29.7659 116.86 29.7431C116.852 29.71 116.837 29.6354 116.807 29.5561C116.776 29.4718 116.721 29.3587 116.619 29.2528C116.513 29.1423 116.383 29.0676 116.243 29.0262L115.873 30.2679ZM115.621 30.1503C116.268 32.481 117.626 34.2906 120.021 35.2018L120.484 33.9915C118.547 33.2543 117.433 31.8185 116.874 29.8049L115.621 30.1503ZM120.029 35.2048C120.116 35.2369 120.218 35.2652 120.261 35.2782C120.32 35.2961 120.341 35.3047 120.349 35.3091L120.931 34.1504C120.819 34.0947 120.71 34.0604 120.638 34.0385C120.55 34.0118 120.518 34.0036 120.476 33.9885L120.029 35.2048ZM120.344 35.3064C120.389 35.3294 120.432 35.3479 120.465 35.3615C120.495 35.3737 120.533 35.3888 120.551 35.3961C120.605 35.4175 120.612 35.4229 120.607 35.4196C120.599 35.4149 120.536 35.3756 120.487 35.285C120.462 35.2384 120.446 35.188 120.439 35.1381C120.432 35.0895 120.436 35.0514 120.441 35.0285L121.719 35.2637C121.754 35.0703 121.735 34.8614 121.63 34.6683C121.532 34.4882 121.391 34.38 121.29 34.3178C121.192 34.2571 121.092 34.2166 121.037 34.1946C121.001 34.1803 120.986 34.1743 120.963 34.1651C120.954 34.1614 120.948 34.1585 120.943 34.1564C120.941 34.1553 120.939 34.1545 120.938 34.1539C120.937 34.1534 120.936 34.1531 120.936 34.1531L120.344 35.3064ZM120.441 35.0274C120.446 35.0017 120.455 34.9702 120.472 34.9364C120.49 34.9024 120.512 34.8724 120.536 34.8475C120.583 34.7987 120.625 34.7815 120.631 34.7791C120.637 34.7772 120.626 34.7815 120.588 34.7882C120.546 34.7957 120.511 34.7995 120.44 34.8092L120.616 36.0927C120.684 36.0835 120.91 36.0617 121.106 35.9854C121.345 35.8918 121.641 35.6789 121.718 35.2649L120.441 35.0274ZM120.434 34.81C120.112 34.8569 119.814 34.7366 119.329 34.4711L118.704 35.6065C119.175 35.8648 119.825 36.2081 120.622 36.0919L120.434 34.81ZM119.331 34.4717C117.957 33.7162 116.964 32.6334 116.314 31.2042L115.13 31.7388C115.893 33.4176 117.079 34.713 118.702 35.606L119.331 34.4717ZM116.313 31.2013C116.193 30.9418 116.153 30.6466 116.122 30.3708L114.83 30.5117C114.861 30.7853 114.915 31.2714 115.132 31.7416L116.313 31.2013Z" fill="#40579B"/>
</g>
</g>
<path d="M13.2353 37.6597H1.08496V18.7324H4.59842V35.2087H13.2353V37.6597Z" fill="#252525"/>
<path d="M13.2353 37.6597H1.08496V18.7324H4.59842V35.2087H13.2353V37.6597Z" fill="#252525" stroke="#252525" stroke-width="0.871856" stroke-miterlimit="10"/>
<path d="M21.383 18.7227H24.5139L31.6031 37.6588H27.4759L25.3945 31.739H19.4616L17.4692 37.6588H14.1426L21.3741 18.7227H21.383ZM20.2 29.3145H24.763L22.5393 22.4833L20.2 29.3145Z" fill="#252525"/>
<path d="M21.383 18.7227H24.5139L31.6031 37.6588H27.4759L25.3945 31.739H19.4616L17.4692 37.6588H14.1426L21.3741 18.7227H21.383ZM20.2 29.3145H24.763L22.5393 22.4833L20.2 29.3145Z" fill="#252525" stroke="#252525" stroke-width="0.871856" stroke-miterlimit="10"/>
</svg>
