<svg width="156" height="53" viewBox="0 0 156 53" fill="none" xmlns="http://www.w3.org/2000/svg">
<path d="M46.4323 47.9408C46.6356 47.7319 46.8323 47.504 47.0278 47.2587L48.5944 48.5589C48.1466 49.0375 47.7214 49.427 47.324 49.7343C46.8393 50.1091 46.3405 50.3989 45.8359 50.6137C45.327 50.8213 44.7987 50.9686 44.2501 51.0338L44.2445 51.0345C43.6654 51.111 43.02 51.1457 42.2787 51.1457C40.9234 51.1457 39.7496 50.8911 38.755 50.4036C37.7474 49.9097 36.9031 49.2341 36.2259 48.3841C35.5447 47.529 35.0284 46.5277 34.6883 45.3834L34.6877 45.3814C34.3373 44.2229 34.165 43.0009 34.165 41.6954C34.165 40.8705 34.234 40.0658 34.3796 39.2804L34.3798 39.2796C34.5255 38.4849 34.7388 37.7467 35.0353 37.0456C35.333 36.3503 35.6964 35.7114 36.1499 35.1255L36.1524 35.1224C36.5935 34.5416 37.1181 34.0432 37.737 33.618L37.7393 33.6164C38.3428 33.1961 39.0447 32.8694 39.8344 32.6237C40.611 32.3909 41.4983 32.2715 42.474 32.2715C43.0693 32.2715 43.6273 32.3059 44.1571 32.374C44.6817 32.4415 45.1666 32.5504 45.6225 32.7074L45.6294 32.7097C46.0821 32.8574 46.5218 33.0636 46.9483 33.3221C47.261 33.5115 47.5677 33.7344 47.8715 33.9888L46.5324 35.5574C46.3203 35.3657 46.1084 35.1906 45.9039 35.0348L45.8982 35.0304L45.8923 35.0262C45.5598 34.7895 45.2147 34.5885 44.8479 34.4249L44.8429 34.4227C44.4821 34.2672 44.093 34.1508 43.6939 34.0829C43.3044 34.0167 42.8799 33.9793 42.4207 33.9793C41.4859 33.9793 40.6592 34.1796 39.9489 34.5984C39.2561 35.0069 38.6931 35.5602 38.2504 36.2317C37.8115 36.8975 37.4908 37.653 37.2847 38.4933C37.0807 39.3254 36.9791 40.1837 36.9791 41.076C36.9791 42.2211 37.0976 43.3001 37.3374 44.3022C37.5776 45.306 37.9304 46.1783 38.3706 46.9346L38.3727 46.9381C38.8264 47.7013 39.3744 48.3097 40.0302 48.7586C40.7001 49.217 41.4537 49.4468 42.2698 49.4468C42.9389 49.4468 43.5262 49.3923 44.0414 49.2667C44.541 49.1515 44.9868 48.9781 45.3777 48.7638L45.385 48.7597C45.7792 48.5337 46.1222 48.2596 46.4323 47.9408Z" fill="#252525" stroke="#252525" stroke-width="1.16248"/>
<path d="M49.2398 48.5079C48.6628 49.1627 48.1124 49.6848 47.5976 50.083C47.0827 50.4812 46.5501 50.7909 46.0086 51.0209C45.4671 51.2421 44.8989 51.4014 44.3041 51.4722C43.7005 51.5518 43.0347 51.5873 42.2802 51.5873C40.8688 51.5873 39.626 51.3218 38.5606 50.7997C37.4954 50.2776 36.5989 49.5609 35.8798 48.6583C35.1608 47.7558 34.6193 46.7028 34.2641 45.5082C33.9002 44.3048 33.7227 43.0394 33.7227 41.6944C33.7227 40.8449 33.7937 40.0131 33.9446 39.1991C34.0955 38.3762 34.3174 37.6063 34.6281 36.8718C34.9388 36.1463 35.3205 35.4738 35.7999 34.8544C36.2704 34.235 36.8297 33.704 37.4865 33.2528C38.1346 32.8015 38.8803 32.4564 39.7058 32.1998C40.5314 31.952 41.4635 31.8281 42.4755 31.8281C43.088 31.8281 43.665 31.8635 44.2154 31.9343C44.7658 32.0051 45.2807 32.1201 45.7688 32.2882C46.2571 32.4475 46.7276 32.6687 47.1803 32.9431C47.633 33.2173 48.068 33.5536 48.4942 33.9429L46.5678 36.1994C46.2571 35.8897 45.9375 35.6153 45.6357 35.3853C45.325 35.1641 45.0054 34.9782 44.6681 34.8278C44.3397 34.6862 43.9846 34.58 43.6206 34.5181C43.2566 34.4562 42.8572 34.4208 42.4222 34.4208C41.5523 34.4208 40.8066 34.6066 40.1763 34.9782C39.546 35.3499 39.0312 35.8543 38.6228 36.4737C38.2145 37.0931 37.9126 37.801 37.7173 38.5974C37.5221 39.3938 37.4244 40.2166 37.4244 41.075C37.4244 42.1899 37.5398 43.234 37.7706 44.1986C38.0014 45.1631 38.3387 45.9949 38.756 46.7116C39.182 47.4284 39.6881 47.9858 40.2828 48.3929C40.8776 48.7999 41.5434 49.0034 42.2713 49.0034C42.9193 49.0034 43.4697 48.9503 43.9402 48.8353C44.4018 48.7291 44.8101 48.5699 45.1653 48.3752C45.5203 48.1717 45.831 47.9239 46.1151 47.6319C46.3991 47.3399 46.6743 47.0037 46.9584 46.6231L49.2398 48.5167V48.5079Z" fill="#252525" stroke="#252525" stroke-width="0.871856" stroke-miterlimit="10"/>
<path d="M55.2045 43.0045V50.8002H52.5858V32.7576H55.2045V40.571V41.0135H55.6483H63.9218H64.3657V40.571V32.7576H66.9844V50.8002H64.3657V43.0045V42.562H63.9218H55.6483H55.2045V43.0045Z" fill="#252525" stroke="#252525" stroke-width="1.16248"/>
<path d="M52.1416 32.3145H55.648V40.5703H63.9214V32.3145H67.4279V51.2418H63.9214V43.0037H55.648V51.2418H52.1416V32.3145Z" fill="#252525" stroke="#252525" stroke-width="0.871856" stroke-miterlimit="10"/>
<path d="M71.6973 32.7578H74.316V50.8004H71.6973V32.7578Z" fill="#252525" stroke="#252525" stroke-width="1.16248"/>
<path d="M74.7604 32.3184H71.2539V51.2457H74.7604V32.3184Z" fill="#252525" stroke="#252525" stroke-width="0.871856" stroke-miterlimit="10"/>
<path d="M82.2819 37.46L81.4621 36.1597V37.6954V50.8004H78.8438V32.7578H81.4644L89.8295 46.1584L90.65 47.4732V45.9247V32.7578H93.2699L93.3212 50.8004H90.6913L82.2819 37.46Z" fill="#252525" stroke="#252525" stroke-width="1.16248"/>
<path d="M81.9073 37.6945V51.2418H78.4004V32.3145H81.7116L90.2075 45.9238V32.3145H93.7136L93.7672 51.2418H90.4468L81.9073 37.6945Z" fill="#252525" stroke="#252525" stroke-width="0.871856" stroke-miterlimit="10"/>
<path d="M100.966 49.234H108.671V50.8002H97.9032V32.7576H108.343V34.3238H100.966H100.522V34.7663V39.9516V40.3941H100.966H106.745V41.9515H100.966H100.522V42.3939V48.7915V49.234H100.966Z" fill="#252525" stroke="#252525" stroke-width="1.16248"/>
<path d="M108.785 34.7656H100.964V39.9509H107.187V42.3931H100.964V48.7907H109.114V51.2418H97.458V32.3145H108.785V34.7656Z" fill="#252525" stroke="#252525" stroke-width="0.871856" stroke-miterlimit="10"/>
<path d="M8.18878 21.8941C8.83282 22.072 9.33614 22.4151 9.72072 22.9127C10.0917 23.404 10.2869 23.9981 10.2869 24.6976C10.2869 25.7249 9.9616 26.5275 9.31802 27.1613L9.31611 27.1632C8.71352 27.7639 7.61868 28.122 5.91936 28.122H1.44531V15.6719H5.83059C7.15603 15.6719 8.09327 15.969 8.71153 16.495C9.3337 17.0244 9.65663 17.7297 9.65663 18.6362C9.65663 19.1911 9.52426 19.6646 9.28139 20.0545C9.02682 20.4491 8.64592 20.7965 8.1042 21.0744L7.09517 21.592L8.18878 21.8941ZM2.69698 16.3621H2.25313V16.8045V20.8395V21.282H2.69698H2.70586H5.48439C6.52817 21.282 7.36541 21.1406 7.94193 20.7936C8.59614 20.3998 8.85767 19.6947 8.85767 18.8486C8.85767 17.9992 8.60486 17.3335 8.01489 16.9135C7.72359 16.7061 7.33544 16.5726 6.88986 16.4882C6.43877 16.4029 5.89654 16.3621 5.27134 16.3621H2.69698ZM2.26201 26.9982V27.4406H2.70586H5.91049C6.99346 27.4406 7.88173 27.2517 8.4838 26.8043C9.11576 26.3347 9.39916 25.5983 9.39916 24.7241C9.39916 23.8486 9.09649 23.0607 8.41857 22.5911C7.78112 22.1495 6.83358 21.9722 5.67969 21.9722H2.70586H2.26201V22.4146V26.9982Z" fill="#252525" stroke="#252525" stroke-width="1.16248"/>
<path d="M1 28.5723V15.2285H5.82913C7.21395 15.2285 8.27036 15.5382 8.99829 16.1576C9.72614 16.777 10.099 17.6088 10.099 18.6353C10.099 19.2635 9.94813 19.821 9.65517 20.29C9.35334 20.7589 8.90951 21.1571 8.30585 21.4669C9.04264 21.6704 9.62856 22.0686 10.0724 22.6437C10.5074 23.2189 10.7293 23.9091 10.7293 24.6966C10.7293 25.8293 10.3654 26.7495 9.62856 27.4751C8.90064 28.2007 7.65781 28.5635 5.9179 28.5635H1V28.5723ZM2.7044 20.8386H5.48293C6.50379 20.8386 7.24059 20.697 7.71107 20.4139C8.18158 20.1307 8.41237 19.6086 8.41237 18.8477C8.41237 18.0866 8.19045 17.5823 7.75546 17.2726C7.32049 16.9629 6.48604 16.8036 5.26987 16.8036H2.69552V20.8386H2.7044ZM2.7044 26.9973H5.90903C6.95652 26.9973 7.72883 26.8114 8.21707 26.4487C8.70533 26.0858 8.95386 25.5019 8.95386 24.7232C8.95386 23.9445 8.68759 23.3162 8.16384 22.9534C7.64006 22.5907 6.80561 22.4137 5.67823 22.4137H2.7044V26.9973Z" fill="#252525" stroke="#252525" stroke-width="0.581238" stroke-miterlimit="10"/>
<path d="M21.0449 24.3749L20.9378 24.086H20.6287H15.2491H14.9336L14.8299 24.383L13.5221 28.1298H12.6641L17.2804 15.6797H18.5066L23.4213 28.1298H22.438L21.0449 24.3749ZM15.3286 22.9452L15.1149 23.5374H15.7463H20.105H20.7377L20.5223 22.9443L19.182 19.2548C19.182 19.255 19.182 19.2547 19.182 19.2548C18.7577 18.0829 18.46 17.1743 18.278 16.5176L17.4137 16.5547C17.2584 17.3891 17.0339 18.2157 16.7399 19.0345C16.7399 19.0344 16.7399 19.0345 16.7399 19.0345L15.3286 22.9452Z" fill="#252525"/>
<path d="M19.182 19.2548L20.5223 22.9443L20.7377 23.5374H20.105H15.7463H15.1149L15.3286 22.9452L16.7399 19.0345M19.182 19.2548C19.182 19.2547 19.182 19.255 19.182 19.2548ZM19.182 19.2548C18.7577 18.0829 18.46 17.1743 18.278 16.5176L17.4137 16.5547C17.2584 17.3891 17.0339 18.2157 16.7399 19.0345M16.7399 19.0345C16.7399 19.0345 16.7399 19.0344 16.7399 19.0345ZM21.0449 24.3749L20.9378 24.086H20.6287H15.2491H14.9336L14.8299 24.383L13.5221 28.1298H12.6641L17.2804 15.6797H18.5066L23.4213 28.1298H22.438L21.0449 24.3749Z" stroke="#252525" stroke-width="1.16248"/>
<path d="M12.0273 28.5731L16.9718 15.2381H18.8094L24.0734 28.5731H22.1294L20.6292 24.5292H15.2496L13.8382 28.5731H12.0273ZM15.7468 23.0958H20.1055L18.765 19.4058C18.3389 18.229 18.0371 17.3087 17.8506 16.6362C17.6908 17.4945 17.46 18.344 17.1582 19.1846L15.7468 23.0958Z" fill="#252525" stroke="#252525" stroke-width="0.581238" stroke-miterlimit="10"/>
<path d="M30.4547 28.122H26.2559V15.6719H30.2417C31.2953 15.6719 32.1137 15.7592 32.7276 15.9222C33.2964 16.0756 33.8424 16.4008 34.3651 16.9214C34.8719 17.435 35.275 18.0933 35.5671 18.9089C35.8566 19.7167 36.003 20.6816 36.003 21.7952C36.003 23.3561 35.7273 24.6256 35.2015 25.6246C34.6656 26.6431 34.0211 27.2806 33.2788 27.6009C32.4841 27.944 31.5431 28.122 30.4547 28.122ZM27.0637 26.9982V27.4406H27.5075H30.2505C31.283 27.4406 32.1649 27.3056 32.8349 26.9922C33.5529 26.6606 34.1036 26.0253 34.5134 25.1609L34.5142 25.1592C34.9333 24.2654 35.1241 23.1413 35.1241 21.7952C35.1241 20.4445 34.9054 19.3114 34.4415 18.4454C33.9943 17.6108 33.4304 17.0215 32.7345 16.7397C32.09 16.4787 31.2345 16.3621 30.2062 16.3621H27.5075H27.0637V16.8045V26.9982Z" fill="#252525" stroke="#252525" stroke-width="1.16248"/>
<path d="M25.8115 28.5723V15.2285H30.2412C31.3153 15.2285 32.1764 15.317 32.8422 15.494C33.4991 15.6709 34.1116 16.0426 34.6797 16.6089C35.239 17.1753 35.6739 17.892 35.9846 18.7592C36.2953 19.6263 36.4463 20.6439 36.4463 21.7942C36.4463 23.4047 36.1622 24.7497 35.5941 25.8293C35.0259 26.9088 34.3157 27.6344 33.4547 28.0061C32.5936 28.3777 31.5905 28.5635 30.4542 28.5635H25.8115V28.5723ZM27.507 26.9973H30.25C31.2532 26.9973 32.061 26.8646 32.6468 26.5902C33.2416 26.3159 33.7299 25.7761 34.1116 24.971C34.4933 24.1569 34.6797 23.1039 34.6797 21.7942C34.6797 20.4847 34.4667 19.4316 34.0495 18.653C33.6322 17.8742 33.1351 17.3788 32.567 17.1486C31.9988 16.9186 31.2088 16.8036 30.2057 16.8036H27.507V26.9973Z" fill="#252525" stroke="#252525" stroke-width="0.581238" stroke-miterlimit="10"/>
<path d="M46.4201 24.6507L49.3997 15.6719H50.9254V28.122H50.1709V17.3974L49.306 17.2574L45.67 28.122H45.3477L45.7413 26.777C45.8634 26.3597 46.0834 25.6576 46.4198 24.6517L46.4201 24.6507ZM45.3065 28.122H44.7761L41.1565 17.0742L40.2907 17.2116V28.122H39.5361V15.6807H41.3343L44.2793 24.813L44.8911 26.7839L45.3065 28.122Z" fill="#252525" stroke="#252525" stroke-width="1.16248"/>
<path d="M39.0937 28.5722V15.2372H41.6592L44.704 24.6788L45.3165 26.6521C45.4408 26.2273 45.6627 25.5194 46 24.5107L49.0804 15.2284H51.3707V28.5634H49.7284V17.3963L45.9912 28.5634H44.4554L40.7359 17.2105V28.5634H39.0937V28.5722Z" fill="#252525" stroke="#252525" stroke-width="0.581238" stroke-miterlimit="10"/>
<path d="M55.1699 15.6797H55.9866V28.1298H55.1699V15.6797Z" fill="#252525" stroke="#252525" stroke-width="1.16248"/>
<path d="M56.4291 15.2381H54.7246V28.5731H56.4291V15.2381Z" fill="#252525" stroke="#252525" stroke-width="0.581238" stroke-miterlimit="10"/>
<path d="M68.8128 25.7053V15.6797H69.5585V28.1298H68.4959L61.8715 17.8562L61.0543 16.5888V18.0954V28.1298H60.3086V15.6797H61.3712L67.9956 25.9447L68.8128 27.2109V25.7053Z" fill="#252525" stroke="#252525" stroke-width="1.16248"/>
<path d="M59.8652 28.5733V15.2383H61.614L68.3695 25.7063V15.2383H70.0029V28.5733H68.2541L61.4986 18.0965V28.5733H59.8652Z" fill="#252525" stroke="#252525" stroke-width="0.581238" stroke-miterlimit="10"/>
<path d="M77.6729 16.8123V28.1298H76.8562V16.8123V16.3699H76.4126H72.6133V15.6797H81.9254V16.3699H78.1172H77.6729V16.8123Z" fill="#252525" stroke="#252525" stroke-width="1.16248"/>
<path d="M76.4124 28.5731V16.8132H72.1692V15.2381H82.3687V16.8132H78.1169V28.5731H76.4124Z" fill="#252525" stroke="#252525" stroke-width="0.581238" stroke-miterlimit="10"/>
<path d="M83.9932 22.077C83.9932 19.856 84.5698 18.1216 85.7237 16.874C86.8784 15.6263 88.352 14.998 90.1536 14.998C91.956 14.998 93.438 15.6352 94.5836 16.9006C95.7283 18.1748 96.2965 19.8472 96.2965 21.9178C96.2965 23.9884 95.7199 25.6431 94.566 26.8996C93.4113 28.1649 91.9377 28.7932 90.1452 28.7932C88.849 28.7932 87.7211 28.457 86.7446 27.7933C85.7688 27.1208 85.0668 26.2625 84.6409 25.2094C84.2149 24.1564 83.9932 23.1123 83.9932 22.077ZM85.7505 22.1036C85.7505 23.6255 86.1504 24.8732 86.9403 25.8378C87.7395 26.8023 88.8047 27.2889 90.136 27.2889C91.4674 27.2889 92.5059 26.8111 93.3226 25.8555C94.1393 24.8998 94.5392 23.5813 94.5392 21.9089C94.5392 20.2365 94.1309 18.8827 93.3142 17.9359C92.4975 16.9891 91.4406 16.5112 90.1628 16.5112C88.8842 16.5112 87.8549 16.9536 87.0115 17.8474C86.168 18.741 85.7505 20.1569 85.7505 22.0948" fill="#252525"/>
<mask id="mask0_842_100" style="mask-type:luminance" maskUnits="userSpaceOnUse" x="83" y="15" width="14" height="14">
<path d="M83.9922 22.079C83.9922 19.858 84.5688 18.1236 85.7227 16.8759C86.8774 15.6283 88.351 15 90.1527 15C91.9551 15 93.4371 15.6372 94.5826 16.9025C95.7274 18.1767 96.2955 19.8491 96.2955 21.9197C96.2955 23.9903 95.7189 25.645 94.565 26.9015C93.4103 28.1669 91.9367 28.7952 90.1442 28.7952C88.8481 28.7952 87.7201 28.4589 86.7436 27.7952C85.7678 27.1228 85.0658 26.2645 84.6399 25.2114C84.214 24.1584 83.9922 23.1143 83.9922 22.079ZM85.7495 22.1056C85.7495 23.6275 86.1494 24.8752 86.9394 25.8397C87.7385 26.8042 88.8037 27.2908 90.1351 27.2908C91.4664 27.2908 92.5049 26.813 93.3216 25.8574C94.1383 24.9018 94.5382 23.5833 94.5382 21.9109C94.5382 20.2385 94.1299 18.8846 93.3132 17.9378C92.4965 16.991 91.4397 16.5132 90.1618 16.5132C88.8832 16.5132 87.854 16.9556 87.0105 17.8493C86.167 18.743 85.7495 20.1588 85.7495 22.0967" fill="white"/>
</mask>
<g mask="url(#mask0_842_100)">
<path d="M94.5837 16.9026L95.2444 16.3121L95.2429 16.3099L94.5837 16.9026ZM94.5661 26.9016L93.9108 26.3041L93.9092 26.3064L94.5661 26.9016ZM86.7447 27.7953L86.2408 28.5233L86.2454 28.5264L86.7447 27.7953ZM86.9405 25.8398L86.253 26.3994L86.2561 26.4032L86.9405 25.8398ZM84.8811 22.079C84.8811 20.0098 85.4156 18.5148 86.3769 17.4758L85.0715 16.2762C83.7241 17.7326 83.1055 19.7063 83.1055 22.079H84.8811ZM86.3769 17.4758C87.3534 16.4199 88.5861 15.885 90.1538 15.885V14.1152C88.1181 14.1152 86.4029 14.8369 85.0715 16.2762L86.3769 17.4758ZM90.1538 15.885C91.7199 15.885 92.9572 16.4268 93.9245 17.4952L95.2429 16.3099C93.9192 14.8476 92.1917 14.1152 90.1538 14.1152V15.885ZM93.9222 17.493C94.8911 18.5713 95.4088 20.0173 95.4088 21.9198H97.1845C97.1845 19.681 96.5658 17.7822 95.2444 16.3121L93.9222 17.493ZM95.4088 21.9198C95.4088 23.8182 94.885 25.2435 93.9108 26.3041L95.2207 27.4991C96.5544 26.0466 97.1845 24.1626 97.1845 21.9198H95.4088ZM93.9092 26.3064C92.9327 27.3768 91.7023 27.9103 90.1454 27.9103V29.6801C92.1741 29.6801 93.8909 28.957 95.223 27.4968L93.9092 26.3064ZM90.1454 27.9103C89.0128 27.9103 88.0631 27.6199 87.2448 27.0642L86.2454 28.5264C87.3802 29.298 88.6848 29.6801 90.1454 29.6801V27.9103ZM87.2494 27.0673C86.4082 26.4879 85.8225 25.7646 85.4646 24.8805L83.8182 25.5425C84.3122 26.7644 85.1289 27.7576 86.2408 28.5233L87.2494 27.0673ZM85.4646 24.8805C85.0746 23.9177 84.8811 22.9858 84.8811 22.079H83.1055C83.1055 23.2429 83.3555 24.3993 83.8182 25.5425L85.4646 24.8805ZM84.8628 22.1056C84.8628 23.7862 85.3071 25.2451 86.253 26.3994L87.6279 25.2801C86.9932 24.5054 86.6384 23.4689 86.6384 22.1056H84.8628ZM86.2561 26.4032C87.2334 27.5834 88.5563 28.1758 90.1362 28.1758V26.4061C89.0534 26.4061 88.2451 26.0251 87.6249 25.2763L86.2561 26.4032ZM90.1362 28.1758C91.7191 28.1758 93.0076 27.5908 93.9987 26.4312L92.6475 25.2836C92.0051 26.0355 91.2159 26.4061 90.1362 26.4061V28.1758ZM93.9987 26.4312C94.9944 25.266 95.4272 23.718 95.4272 21.9109H93.6515C93.6515 23.4487 93.2845 24.5375 92.6475 25.2836L93.9987 26.4312ZM95.4272 21.9109C95.4272 20.1061 94.9867 18.5197 93.9872 17.3609L92.6414 18.5148C93.2753 19.2497 93.6515 20.371 93.6515 21.9109H95.4272ZM93.9872 17.3609C92.9985 16.2143 91.6939 15.6283 90.1629 15.6283V17.3981C91.1884 17.3981 91.9967 17.7678 92.6414 18.5148L93.9872 17.3609ZM90.1629 15.6283C88.6458 15.6283 87.3802 16.1673 86.3646 17.2431L87.6578 18.4556C88.3292 17.7441 89.1229 17.3981 90.1629 17.3981V15.6283ZM86.3646 17.2431C85.2971 18.3748 84.8628 20.061 84.8628 22.0968H86.6384C86.6384 20.2568 87.0391 19.1114 87.6578 18.4556L86.3646 17.2431Z" fill="#252525"/>
</g>
<path d="M83.9932 22.077C83.9932 19.856 84.5698 18.1216 85.7237 16.874C86.8784 15.6263 88.352 14.998 90.1536 14.998C91.956 14.998 93.438 15.6352 94.5836 16.9006C95.7283 18.1748 96.2965 19.8472 96.2965 21.9178C96.2965 23.9884 95.7199 25.6431 94.566 26.8996C93.4113 28.1649 91.9377 28.7932 90.1452 28.7932C88.849 28.7932 87.7211 28.457 86.7446 27.7933C85.7688 27.1208 85.0668 26.2625 84.6409 25.2094C84.2149 24.1564 83.9932 23.1123 83.9932 22.077ZM85.7505 22.1036C85.7505 23.6255 86.1504 24.8732 86.9403 25.8378C87.7395 26.8023 88.8047 27.2889 90.136 27.2889C91.4674 27.2889 92.5059 26.8111 93.3226 25.8555C94.1393 24.8998 94.5392 23.5813 94.5392 21.9089C94.5392 20.2365 94.1309 18.8827 93.3142 17.9359C92.4975 16.9891 91.4406 16.5112 90.1628 16.5112C88.8842 16.5112 87.8549 16.9536 87.0115 17.8474C86.168 18.741 85.7505 20.1569 85.7505 22.0948V22.1036Z" fill="#252525" stroke="#252525" stroke-width="0.581238" stroke-miterlimit="10"/>
<path d="M107.864 25.7053V15.6797H108.609V28.1298H107.547L100.922 17.8562L100.105 16.5888V18.0954V28.1298H99.3594V15.6797H100.422L107.047 25.9447L107.864 27.2109V25.7053Z" fill="#252525" stroke="#252525" stroke-width="1.16248"/>
<path d="M98.916 28.5733V15.2383H100.665L107.42 25.7063V15.2383H109.054V28.5733H107.305L100.549 18.0965V28.5733H98.916Z" fill="#252525" stroke="#252525" stroke-width="0.581238" stroke-miterlimit="10"/>
<mask id="mask1_842_100" style="mask-type:luminance" maskUnits="userSpaceOnUse" x="122" y="0" width="26" height="43">
<path d="M122.948 1H147.169V42.3146H122.948V1Z" fill="white" stroke="white" stroke-width="1.16248"/>
</mask>
<g mask="url(#mask1_842_100)">
<path d="M139.158 22.5867H139.159C140.267 20.8338 141.215 18.9807 142.001 17.0454L142.002 17.0442C143.311 13.7909 143.734 10.4283 143.71 7.00664C143.705 6.23065 143.576 4.84097 143.459 3.56463C143.445 3.41708 143.432 3.27106 143.419 3.12766C143.373 2.62584 143.331 2.15466 143.301 1.75586C143.47 1.98121 143.656 2.23761 143.85 2.51164C144.528 3.47046 145.27 4.61091 145.645 5.36969C147.276 8.66743 147.521 12.1398 146.74 15.6869C146.402 17.1963 145.671 18.6316 144.868 20.0581C142.574 24.1279 139.501 27.5832 136.155 30.8609L136.154 30.8611C134.276 32.7043 132.412 34.5264 130.406 36.1776C129.16 37.2036 127.195 38.7225 125.501 40.0046C125.316 40.1444 125.135 40.2812 124.958 40.4141C125.475 39.8178 126.055 39.1572 126.663 38.4692C127.095 37.9792 127.542 37.4751 127.988 36.9709C129.544 35.2132 131.104 33.4529 132.088 32.2748C134.666 29.1984 137.019 25.969 139.158 22.5867Z" fill="#86B455" stroke="#86B455" stroke-width="1.16248"/>
</g>
<mask id="mask2_842_100" style="mask-type:luminance" maskUnits="userSpaceOnUse" x="129" y="10" width="27" height="34">
<path d="M129.701 10.8672H155.152V43.0276H129.701V10.8672Z" fill="white" stroke="white" stroke-width="1.16248"/>
</mask>
<g mask="url(#mask2_842_100)">
<path d="M129.312 43.4243C132.824 41.1783 136.196 38.7387 139.414 36.0939C140.99 34.7979 142.443 33.3612 143.973 32.0124C146.132 30.1124 148.009 27.966 149.85 25.7904C151.415 23.949 152.544 21.8144 153.215 19.4628C153.48 18.5421 153.704 17.6156 153.909 16.6831C154.256 15.1232 154.256 13.5751 154.227 12.0035C154.221 11.4933 154.227 10.983 154.227 10.426C154.645 10.596 155.827 16.0732 155.563 18.5715C155.086 23.0166 153.003 26.6407 149.879 29.7664C147.249 32.4054 140.443 37.1906 140.572 37.5014C140.702 37.8063 142.931 37.0968 143.737 36.8094C145.143 36.3051 146.567 35.8418 147.974 35.3316C149.997 34.6044 153.886 31.3673 154.151 30.951C154.174 31.4377 152.891 34.9915 148.127 37.7535C146.938 38.4455 145.644 38.9147 144.314 39.331C142.431 39.9175 140.496 40.2694 138.619 40.8675C136.372 41.583 134.071 42.1459 131.783 42.7323C131.042 42.92 128.906 43.6706 129.306 43.4185" fill="#40579B"/>
<mask id="mask3_842_100" style="mask-type:luminance" maskUnits="userSpaceOnUse" x="129" y="10" width="27" height="34">
<path d="M129.312 43.4243C132.824 41.1783 136.196 38.7387 139.414 36.0939C140.99 34.7979 142.443 33.3612 143.973 32.0124C146.132 30.1124 148.009 27.966 149.85 25.7904C151.415 23.949 152.544 21.8144 153.215 19.4628C153.48 18.5421 153.704 17.6156 153.909 16.6831C154.256 15.1232 154.256 13.5751 154.227 12.0035C154.221 11.4933 154.227 10.983 154.227 10.426C154.645 10.596 155.827 16.0732 155.563 18.5715C155.086 23.0166 153.003 26.6407 149.879 29.7664C147.249 32.4054 140.443 37.1906 140.572 37.5014C140.702 37.8063 142.931 37.0968 143.737 36.8094C145.143 36.3051 146.567 35.8418 147.974 35.3316C149.997 34.6044 153.886 31.3673 154.151 30.951C154.174 31.4377 152.891 34.9915 148.127 37.7535C146.938 38.4455 145.644 38.9147 144.314 39.331C142.431 39.9175 140.496 40.2694 138.619 40.8675C136.372 41.583 134.071 42.1459 131.783 42.7323C131.042 42.92 128.906 43.6706 129.306 43.4185" fill="white"/>
</mask>
<g mask="url(#mask3_842_100)">
<path d="M143.974 32.0113L143.386 31.348L143.386 31.3485L143.974 32.0113ZM149.851 25.7893L149.174 25.2174L149.172 25.2187L149.851 25.7893ZM153.216 19.4617L152.362 19.2179V19.2197L153.216 19.4617ZM153.91 16.682L153.044 16.4904L153.043 16.4918L153.91 16.682ZM154.228 12.0024L153.341 12.0125V12.0188L154.228 12.0024ZM154.228 10.4249L154.563 9.60567L153.341 9.1076V10.4249H154.228ZM155.563 18.5704L156.446 18.6644V18.6633L155.563 18.5704ZM149.88 29.7653L149.252 29.1408L149.251 29.1417L149.88 29.7653ZM140.573 37.5003L139.753 37.8396L139.756 37.845L140.573 37.5003ZM143.738 36.8083L144.037 37.6415L144.039 37.6409L143.738 36.8083ZM147.975 35.3305L147.673 34.498L147.67 34.499L147.975 35.3305ZM154.152 30.9499L155.038 30.9073L154.903 28.1148L153.402 30.4762L154.152 30.9499ZM148.128 37.7524L147.681 36.9875L147.679 36.9884L148.128 37.7524ZM144.315 39.3299L144.58 40.1745L144.581 40.1741L144.315 39.3299ZM131.784 42.7312L132.002 43.5889L132.005 43.5882L131.784 42.7312ZM129.792 44.168C133.333 41.9036 136.733 39.4435 139.979 36.7756L138.849 35.4102C135.66 38.0318 132.317 40.4508 128.834 42.6785L129.792 44.168ZM139.979 36.7756C141.561 35.4752 143.093 33.9693 144.562 32.6741L143.386 31.3485C141.795 32.7509 140.421 34.1186 138.849 35.4102L139.979 36.7756ZM144.561 32.6746C146.773 30.728 148.686 28.5379 150.529 26.3599L149.172 25.2187C147.333 27.3919 145.492 29.4946 143.386 31.348L144.561 32.6746ZM150.528 26.3613C152.177 24.421 153.366 22.173 154.07 19.7037L152.362 19.2197C151.725 21.4536 150.654 23.4748 149.174 25.2174L150.528 26.3613ZM154.069 19.7055C154.341 18.761 154.569 17.8152 154.777 16.8723L153.043 16.4918C152.84 17.4137 152.621 18.321 152.362 19.2179L154.069 19.7055ZM154.777 16.8737C155.149 15.2004 155.145 13.5572 155.115 11.9858L153.341 12.0188C153.37 13.5907 153.366 15.0439 153.044 16.4904L154.777 16.8737ZM155.115 11.9921C155.11 11.4879 155.115 10.9962 155.115 10.4249H153.341C153.341 10.9677 153.334 11.4964 153.341 12.0125L155.115 11.9921ZM153.893 11.244C153.74 11.1822 153.652 11.0932 153.621 11.0606C153.584 11.0214 153.565 10.9918 153.563 10.9875C153.558 10.9793 153.57 10.9983 153.597 11.063C153.649 11.1875 153.718 11.3874 153.796 11.6614C153.952 12.2031 154.125 12.9526 154.279 13.7849C154.592 15.4783 154.799 17.3643 154.68 18.4774L156.446 18.6633C156.593 17.2782 156.341 15.1765 156.025 13.4642C155.864 12.5936 155.679 11.7859 155.504 11.1746C155.417 10.8722 155.326 10.5968 155.235 10.3795C155.19 10.2732 155.134 10.1547 155.066 10.0463C155.032 9.99198 154.983 9.92162 154.917 9.85157C154.858 9.78807 154.741 9.67816 154.563 9.60567L153.893 11.244ZM154.681 18.4763C154.231 22.678 152.267 26.1241 149.252 29.1408L150.51 30.3898C153.742 27.1552 155.944 23.3529 156.446 18.6644L154.681 18.4763ZM149.251 29.1417C147.984 30.4126 145.676 32.2309 143.646 33.808C142.645 34.5858 141.714 35.3037 141.045 35.844C140.711 36.1127 140.426 36.3512 140.224 36.5388C140.126 36.6292 140.023 36.7303 139.941 36.8302C139.903 36.8767 139.84 36.9579 139.788 37.0622C139.765 37.1077 139.588 37.4426 139.753 37.8396L141.394 37.1611C141.55 37.5385 141.38 37.8453 141.375 37.8543C141.356 37.8926 141.338 37.919 141.33 37.9309C141.321 37.9441 141.315 37.9515 141.314 37.9521C141.314 37.9527 141.322 37.9426 141.345 37.9197C141.366 37.8979 141.395 37.8699 141.432 37.8351C141.588 37.6911 141.833 37.4843 142.162 37.2194C142.814 36.6926 143.725 35.9909 144.738 35.2037C146.737 33.6507 149.147 31.7569 150.51 30.3889L149.251 29.1417ZM139.756 37.845C139.872 38.1188 140.081 38.2679 140.233 38.3413C140.377 38.4118 140.515 38.437 140.604 38.4481C140.785 38.4703 140.969 38.4569 141.113 38.4401C141.415 38.4046 141.778 38.3231 142.126 38.2326C142.833 38.049 143.618 37.7911 144.037 37.6415L143.439 35.9751C143.053 36.1129 142.32 36.3534 141.678 36.5202C141.352 36.6049 141.083 36.6616 140.906 36.6824C140.809 36.6936 140.792 36.6879 140.822 36.6917C140.837 36.6935 140.912 36.703 141.01 36.7505C141.114 36.801 141.291 36.9199 141.39 37.1555L139.756 37.845ZM144.039 37.6409C144.735 37.3913 145.436 37.1515 146.145 36.9083C146.852 36.6658 147.566 36.4201 148.278 36.162L147.67 34.499C146.976 34.7511 146.275 34.9921 145.567 35.2349C144.861 35.4769 144.148 35.721 143.438 35.9757L144.039 37.6409ZM148.275 36.163C149.431 35.7478 151.007 34.6762 152.259 33.7284C152.902 33.2418 153.491 32.7636 153.94 32.3772C154.163 32.1845 154.358 32.0102 154.507 31.8662C154.627 31.7519 154.8 31.5822 154.901 31.4236L153.402 30.4762C153.436 30.4216 153.43 30.4442 153.279 30.5895C153.158 30.705 152.989 30.8576 152.778 31.0383C152.36 31.3987 151.801 31.8534 151.186 32.3189C149.921 33.2754 148.542 34.186 147.673 34.498L148.275 36.163ZM153.265 30.9925C153.26 30.9012 153.279 30.8929 153.24 31.0288C153.21 31.1343 153.158 31.287 153.074 31.4809C152.908 31.8673 152.632 32.3899 152.209 32.9889C151.366 34.1837 149.948 35.6734 147.681 36.9875L148.573 38.5174C151.072 37.0694 152.677 35.4012 153.661 34.0069C154.152 33.3113 154.49 32.6816 154.706 32.1785C154.814 31.9276 154.895 31.7013 154.949 31.5084C154.995 31.346 155.048 31.1202 155.038 30.9073L153.265 30.9925ZM147.679 36.9884C146.578 37.6295 145.36 38.0752 144.049 38.4857L144.581 40.1741C145.929 39.752 147.299 39.2593 148.575 38.5165L147.679 36.9884ZM144.05 38.4853C143.139 38.7693 142.211 38.9975 141.251 39.2349C140.301 39.4702 139.32 39.7143 138.35 40.0236L138.89 41.7093C139.796 41.4205 140.722 41.1895 141.679 40.9525C142.627 40.7179 143.609 40.477 144.58 40.1745L144.05 38.4853ZM138.35 40.0236C136.134 40.7292 133.866 41.2842 131.563 41.8742L132.005 43.5882C134.279 43.0055 136.612 42.4346 138.89 41.7093L138.35 40.0236ZM131.565 41.8736C131.164 41.9753 130.399 42.2245 129.853 42.3947C129.559 42.4861 129.334 42.5533 129.211 42.5833C129.181 42.5904 129.172 42.5919 129.177 42.591C129.18 42.5906 129.196 42.5879 129.222 42.5859C129.237 42.5847 129.307 42.579 129.401 42.593C129.447 42.6 129.54 42.6176 129.646 42.6685C129.754 42.7201 129.929 42.8324 130.045 43.0533C130.301 43.5408 130.002 43.9417 129.975 43.9788C129.906 44.0721 129.836 44.1258 129.823 44.1355C129.8 44.1539 129.783 44.1642 129.781 44.1652L128.832 42.6695C128.806 42.6863 128.77 42.7104 128.731 42.7407C128.702 42.7624 128.622 42.8262 128.546 42.9277C128.513 42.9731 128.213 43.3806 128.471 43.8729C128.588 44.0963 128.767 44.2106 128.878 44.2637C128.987 44.3163 129.084 44.3351 129.136 44.3429C129.303 44.3682 129.453 44.3395 129.47 44.3365C129.527 44.3271 129.583 44.3143 129.632 44.3025C129.82 44.2569 130.1 44.1719 130.382 44.0838C130.989 43.8949 131.663 43.6748 132.002 43.5889L131.565 41.8736Z" fill="#40579B"/>
</g>
</g>
<mask id="mask4_842_100" style="mask-type:luminance" maskUnits="userSpaceOnUse" x="113" y="7" width="23" height="33">
<path d="M114.393 7.74426H135.332V38.7083H114.393V7.74426Z" fill="white" stroke="white" stroke-width="1.16248"/>
</mask>
<g mask="url(#mask4_842_100)">
<path d="M113.948 12.0403C114.418 11.7588 118.848 9.62413 120.649 8.98497C122.472 8.33987 124.332 7.78863 126.267 7.49541C128.015 7.23152 129.721 7.19047 131.421 7.64202C132.962 8.05252 134.133 8.96736 134.903 10.3807C136.092 12.5739 135.939 14.8375 135.227 17.107C133.821 21.6107 131.144 25.3874 128.297 29.0584C125.814 32.2661 119.566 39.0101 118.948 39.1509C119.666 37.8314 125.42 30.1199 127.303 27.3226C128.691 25.2642 130.003 23.159 131.215 20.995C132.397 18.8838 133.144 16.6261 133.062 14.169C133.009 12.6619 132.403 11.3599 131.333 10.2927C130.944 9.90563 128.585 8.12875 124.532 9.02011C123.09 9.33096 121.631 9.58312 120.225 10.0229C118.89 10.4452 113.977 12.1047 113.954 12.0344" fill="#40579B"/>
<mask id="mask5_842_100" style="mask-type:luminance" maskUnits="userSpaceOnUse" x="113" y="7" width="23" height="33">
<path d="M113.947 12.0403C114.418 11.7588 118.848 9.62413 120.648 8.98497C122.471 8.33987 124.331 7.78863 126.267 7.49541C128.014 7.23152 129.72 7.19047 131.42 7.64202C132.962 8.05252 134.132 8.96736 134.903 10.3807C136.091 12.5739 135.938 14.8375 135.227 17.107C133.82 21.6107 131.143 25.3874 128.296 29.0584C125.813 32.2661 119.566 39.0101 118.948 39.1509C119.666 37.8314 125.419 30.1199 127.302 27.3226C128.69 25.2642 130.002 23.159 131.214 20.995C132.397 18.8838 133.144 16.6261 133.061 14.169C133.008 12.6619 132.403 11.3599 131.332 10.2927C130.944 9.90563 128.585 8.12875 124.531 9.02011C123.089 9.33096 121.63 9.58312 120.225 10.0229C118.889 10.4452 113.976 12.1047 113.953 12.0344" fill="white"/>
</mask>
<g mask="url(#mask5_842_100)">
<path d="M120.649 8.98703L120.352 8.15307L120.351 8.15344L120.649 8.98703ZM126.267 7.49747L126.134 6.62258L126.133 6.62264L126.267 7.49747ZM131.421 7.64408L131.65 6.78919L131.649 6.78904L131.421 7.64408ZM134.903 10.3827L135.685 9.96219L135.683 9.96013L134.903 10.3827ZM135.227 17.1091L134.38 16.845L134.379 16.8461L135.227 17.1091ZM118.948 39.1529L118.168 38.7311L117.232 40.4516L119.146 40.0155L118.948 39.1529ZM133.062 14.171L133.95 14.1415V14.1401L133.062 14.171ZM124.531 9.02217L124.72 9.88703L124.723 9.88627L124.531 9.02217ZM120.225 10.025L119.959 9.18072L119.957 9.18156L120.225 10.025ZM114.404 12.8011C114.591 12.6894 115.767 12.1073 117.176 11.4503C118.571 10.7998 120.092 10.124 120.947 9.82056L120.351 8.15344C119.405 8.4892 117.811 9.20031 116.423 9.84724C115.05 10.4878 113.775 11.1137 113.491 11.2835L114.404 12.8011ZM120.946 9.82094C122.743 9.18522 124.543 8.65369 126.4 8.37227L126.133 6.62264C124.12 6.92767 122.202 7.49864 120.352 8.15307L120.946 9.82094ZM126.4 8.37227C128.078 8.11878 129.652 8.08998 131.192 8.49911L131.649 6.78904C129.79 6.29508 127.95 6.3483 126.134 6.62258L126.4 8.37227ZM131.191 8.49896C132.497 8.84677 133.469 9.60515 134.124 10.8053L135.683 9.96013C134.797 8.3337 133.427 7.26241 131.65 6.78919L131.191 8.49896ZM134.122 10.8032C135.154 12.7076 135.052 14.7004 134.38 16.845L136.075 17.3731C136.826 14.9787 137.03 12.4443 135.685 9.96219L134.122 10.8032ZM134.379 16.8461C133.024 21.1869 130.436 24.8563 127.594 28.5193L128.999 29.6017C131.853 25.9225 134.618 22.0388 136.075 17.372L134.379 16.8461ZM127.594 28.5193C126.377 30.092 124.215 32.5581 122.271 34.6565C121.301 35.7037 120.394 36.6496 119.696 37.3389C119.345 37.6848 119.056 37.9574 118.842 38.1436C118.734 38.2376 118.657 38.2992 118.608 38.3347C118.583 38.3526 118.576 38.3558 118.584 38.3512C118.589 38.3486 118.603 38.3406 118.626 38.3306C118.647 38.3215 118.691 38.304 118.751 38.2903L119.146 40.0155C119.291 39.9825 119.405 39.922 119.461 39.8902C119.529 39.8516 119.593 39.8086 119.648 39.7685C119.76 39.6882 119.883 39.5874 120.009 39.4773C120.264 39.2552 120.584 38.9527 120.945 38.5965C121.67 37.8815 122.596 36.9145 123.576 35.8572C125.531 33.7465 127.734 31.236 129 29.601L127.594 28.5193ZM119.729 39.5747C119.878 39.2998 120.337 38.6181 121.018 37.6495C121.685 36.7023 122.527 35.5313 123.409 34.3098C125.165 31.8773 127.088 29.2321 128.04 27.8176L126.566 26.8309C125.635 28.2137 123.738 30.8236 121.968 33.2761C121.086 34.4971 120.238 35.6763 119.565 36.6335C118.907 37.5693 118.377 38.3463 118.168 38.7311L119.729 39.5747ZM128.039 27.8184C129.439 25.7424 130.765 23.6163 131.99 21.4284L130.44 20.5657C129.241 22.7057 127.942 24.7901 126.566 26.8309L128.039 27.8184ZM131.99 21.4284C133.226 19.2218 134.038 16.8044 133.95 14.1415L132.175 14.2006C132.25 16.4519 131.569 18.55 130.44 20.5657L131.99 21.4284ZM133.95 14.1401C133.888 12.3937 133.179 10.8835 131.96 9.66902L130.705 10.9204C131.628 11.8406 132.13 12.9341 132.175 14.202L133.95 14.1401ZM131.96 9.66902C131.395 9.10602 128.738 7.19097 124.34 8.1581L124.723 9.88627C128.431 9.07065 130.493 10.7094 130.705 10.9204L131.96 9.66902ZM124.344 8.15733C122.951 8.45772 121.417 8.72481 119.959 9.18072L120.491 10.8693C121.846 10.4455 123.23 10.2082 124.72 9.88703L124.344 8.15733ZM119.957 9.18156C119.283 9.39453 117.709 9.91912 116.32 10.375C115.621 10.6043 114.968 10.8168 114.489 10.9672C114.248 11.0429 114.059 11.1005 113.933 11.1365C113.866 11.1551 113.832 11.1639 113.819 11.1666C113.808 11.1691 113.833 11.1628 113.874 11.1584C113.887 11.157 113.956 11.1491 114.045 11.1578C114.086 11.1619 114.19 11.1743 114.312 11.2276C114.432 11.2801 114.686 11.4269 114.796 11.7566L113.111 12.3163C113.222 12.647 113.477 12.7947 113.598 12.848C113.722 12.9018 113.828 12.9148 113.871 12.9191C113.967 12.9284 114.043 12.9202 114.066 12.9177C114.127 12.9111 114.181 12.8995 114.207 12.8935C114.271 12.8794 114.345 12.8594 114.418 12.8387C114.57 12.7956 114.778 12.7318 115.022 12.6552C115.513 12.501 116.176 12.2854 116.875 12.0559C118.282 11.594 119.832 11.0777 120.494 10.8684L119.957 9.18156Z" fill="#40579B"/>
</g>
</g>
<path d="M118.062 51.5706C116.35 51.6644 115.321 50.644 114.379 49.5591C111.99 46.8146 112.773 43.988 115.256 41.7772C115.691 41.3901 115.962 41.6482 116.05 42.088C116.326 43.4192 116.962 44.5803 117.779 45.6359C118.974 47.1899 120.544 48.2104 122.433 48.7381C123.051 48.9082 123.139 49.1134 122.722 49.5943C122.315 50.0634 121.815 50.4094 121.256 50.6674C120.215 51.1425 119.179 51.6703 118.068 51.5764M114.161 46.9378C114.432 46.193 114.432 45.5538 114.096 44.7973C113.773 45.5714 113.585 46.2106 114.161 46.9378Z" fill="#40579B"/>
<mask id="mask6_842_100" style="mask-type:luminance" maskUnits="userSpaceOnUse" x="112" y="41" width="11" height="11">
<path d="M118.061 51.5725C116.349 51.6663 115.32 50.646 114.378 49.5611C111.989 46.8165 112.772 43.99 115.255 41.7791C115.69 41.3921 115.961 41.6502 116.049 42.0899C116.325 43.4211 116.961 44.5823 117.778 45.6379C118.973 47.1919 120.543 48.2123 122.432 48.7401C123.05 48.9102 123.138 49.1154 122.721 49.5963C122.314 50.0654 121.814 50.4114 121.255 50.6694C120.214 51.1444 119.178 51.6722 118.067 51.5784M114.16 46.9397C114.431 46.195 114.431 45.5558 114.095 44.7993C113.772 45.5734 113.584 46.2125 114.16 46.9397Z" fill="white"/>
</mask>
<g mask="url(#mask6_842_100)">
<path d="M114.378 49.5585L115.049 48.9796L115.048 48.9786L114.378 49.5585ZM116.049 42.0874L115.178 42.2609L115.179 42.2668L116.049 42.0874ZM117.778 45.6353L118.483 45.0972L118.48 45.0945L117.778 45.6353ZM122.432 48.7375L122.191 49.5895L122.195 49.5904L122.432 48.7375ZM122.72 49.5937L122.048 49.0145L122.048 49.0158L122.72 49.5937ZM121.255 50.6668L121.624 51.4715L121.628 51.4698L121.255 50.6668ZM114.16 46.9372L113.463 47.4858L114.452 48.7324L114.994 47.2385L114.16 46.9372ZM114.095 44.7967L114.907 44.4391L114.071 42.5533L113.276 44.4564L114.095 44.7967ZM118.012 50.6864C116.76 50.755 115.984 50.057 115.049 48.9796L113.706 50.1374C114.654 51.2298 115.937 52.5725 118.109 52.4535L118.012 50.6864ZM115.048 48.9786C113.995 47.7679 113.705 46.6296 113.866 45.6037C114.032 44.545 114.7 43.4571 115.845 42.4365L114.663 41.1162C113.326 42.3065 112.361 43.7377 112.112 45.3312C111.857 46.9574 112.372 48.6046 113.707 50.1383L115.048 48.9786ZM115.845 42.4365C115.89 42.3958 115.869 42.431 115.778 42.4551C115.665 42.485 115.509 42.4804 115.362 42.4019C115.235 42.3339 115.182 42.247 115.172 42.2286C115.161 42.2081 115.168 42.2145 115.178 42.2609L116.919 41.9139C116.861 41.6251 116.697 41.1072 116.201 40.842C115.577 40.5088 114.991 40.8251 114.663 41.1162L115.845 42.4365ZM115.179 42.2668C115.49 43.7661 116.201 45.0484 117.076 46.1761L118.48 45.0945C117.719 44.111 117.159 43.0711 116.917 41.908L115.179 42.2668ZM117.073 46.1734C118.391 47.888 120.129 49.013 122.191 49.5895L122.671 47.8855C120.957 47.4064 119.553 46.4906 118.483 45.0972L117.073 46.1734ZM122.195 49.5904C122.323 49.6256 122.36 49.6468 122.354 49.643C122.349 49.6399 122.202 49.557 122.127 49.344C122.047 49.1187 122.115 48.9467 122.129 48.9148C122.14 48.8907 122.132 48.9187 122.048 49.0145L123.39 50.1729C123.517 50.0283 123.654 49.8503 123.746 49.6471C123.842 49.4362 123.927 49.112 123.8 48.7541C123.678 48.4083 123.42 48.2123 123.238 48.1078C123.053 48.0026 122.849 47.9344 122.668 47.8846L122.195 49.5904ZM122.048 49.0158C121.739 49.3726 121.348 49.6485 120.881 49.8639L121.628 51.4698C122.279 51.1691 122.889 50.753 123.392 50.1717L122.048 49.0158ZM120.885 49.8623C119.758 50.3766 118.967 50.7639 118.141 50.6941L117.991 52.4575C119.389 52.5754 120.669 51.9072 121.624 51.4715L120.885 49.8623ZM114.994 47.2385C115.338 46.2928 115.34 45.4168 114.907 44.4391L113.283 45.1543C113.52 45.6896 113.523 46.092 113.325 46.6358L114.994 47.2385ZM113.276 44.4564C113.114 44.8441 112.926 45.326 112.903 45.8454C112.877 46.4175 113.051 46.9654 113.463 47.4858L114.856 46.3885C114.692 46.1818 114.671 46.0464 114.677 45.9237C114.684 45.748 114.753 45.5235 114.914 45.137L113.276 44.4564Z" fill="#40579B"/>
</g>
<mask id="mask7_842_100" style="mask-type:luminance" maskUnits="userSpaceOnUse" x="128" y="6" width="24" height="34">
<path d="M128.619 7.47461H150.487V39.3066H128.619V7.47461Z" fill="white" stroke="white" stroke-width="1.16248"/>
</mask>
<g mask="url(#mask7_842_100)">
<path d="M128.174 39.7501C129.222 38.7708 130.163 37.8676 131.134 36.9997C132.51 35.7682 133.94 34.5954 135.293 33.3404C136.988 31.7629 138.646 30.1385 140.288 28.4966C142.671 26.1156 145.03 23.6995 146.953 20.9198C148.312 18.9612 149.136 16.7504 149.659 14.4281C150.153 12.2465 150.301 7.29123 150.566 7.02734C150.86 7.42611 151.119 13.009 150.73 15.3253C150.136 18.8498 148.407 21.823 145.994 24.456C144.141 26.485 142.141 28.3616 140.135 30.2265C138.005 32.2027 135.729 34.0207 133.493 35.8797C131.987 37.1346 128.593 39.8381 128.169 39.7442" fill="#86B455"/>
<mask id="mask8_842_100" style="mask-type:luminance" maskUnits="userSpaceOnUse" x="128" y="7" width="23" height="33">
<path d="M128.174 39.7481C129.222 38.7688 130.163 37.8657 131.134 36.9978C132.51 35.7663 133.94 34.5934 135.293 33.3385C136.988 31.761 138.646 30.1366 140.288 28.4946C142.671 26.1137 145.03 23.6975 146.953 20.9179C148.312 18.9593 149.136 16.7484 149.659 14.4261C150.153 12.2446 150.301 7.28928 150.566 7.02539C150.86 7.42416 151.119 13.007 150.73 15.3234C150.136 18.8478 148.407 21.821 145.994 24.4541C144.141 26.4831 142.141 28.3597 140.135 30.2245C138.005 32.2008 135.729 34.0187 133.493 35.8777C131.987 37.1327 128.593 39.8361 128.169 39.7423" fill="white"/>
</mask>
<g mask="url(#mask8_842_100)">
<path d="M135.293 33.341L135.898 33.9888L135.9 33.9877L135.293 33.341ZM146.953 20.9204L146.224 20.4171L146.223 20.4179L146.953 20.9204ZM149.66 14.4286L148.794 14.2337V14.2346L149.66 14.4286ZM150.566 7.02791L151.281 6.50372L150.669 5.67383L149.938 6.40221L150.566 7.02791ZM150.73 15.3259L151.606 15.4725V15.4717L150.73 15.3259ZM145.994 24.4566L145.339 23.8599L145.338 23.8609L145.994 24.4566ZM140.135 30.2271L140.74 30.8747L140.741 30.8741L140.135 30.2271ZM128.783 40.396C129.84 39.4064 130.766 38.5181 131.727 37.659L130.541 36.3416C129.561 37.2183 128.604 38.1364 127.567 39.1053L128.783 40.396ZM131.727 37.659C133.052 36.4738 134.551 35.2382 135.898 33.9888L134.688 32.6931C133.329 33.9537 131.97 35.0638 130.541 36.3416L131.727 37.659ZM135.9 33.9877C137.604 32.4003 139.271 30.7678 140.917 29.1216L139.66 27.8721C138.022 29.5099 136.371 31.1267 134.688 32.6943L135.9 33.9877ZM140.917 29.1216C143.297 26.7427 145.71 24.2761 147.685 21.4229L146.223 20.4179C144.35 23.124 142.044 25.4892 139.66 27.8721L140.917 29.1216ZM147.684 21.4237C149.126 19.3452 149.986 17.0195 150.526 14.6227L148.794 14.2346C148.287 16.4824 147.499 18.5783 146.224 20.4171L147.684 21.4237ZM150.526 14.6235C150.789 13.4599 150.954 11.6053 151.084 10.084C151.15 9.30478 151.207 8.60708 151.265 8.08496C151.293 7.8224 151.32 7.6243 151.344 7.49163C151.351 7.45987 151.355 7.43511 151.36 7.41653C151.364 7.39733 151.367 7.38911 151.367 7.38924C151.367 7.38962 151.365 7.3941 151.362 7.40181C151.36 7.40924 151.354 7.4229 151.346 7.44088C151.335 7.46307 151.291 7.55637 151.194 7.6536L149.938 6.40221C149.824 6.51592 149.764 6.63489 149.737 6.69145C149.706 6.75894 149.683 6.82271 149.669 6.87184C149.638 6.97016 149.616 7.07581 149.598 7.17276C149.562 7.37012 149.53 7.6195 149.5 7.89269C149.439 8.44205 149.38 9.1691 149.314 9.93425C149.181 11.5021 149.024 13.2159 148.794 14.2337L150.526 14.6235ZM149.851 7.55209C149.767 7.43785 149.751 7.34655 149.766 7.40196C149.773 7.42532 149.784 7.47463 149.799 7.55724C149.828 7.72031 149.858 7.95459 149.887 8.25187C149.944 8.84292 149.991 9.63026 150.017 10.4847C150.07 12.215 150.034 14.1144 149.855 15.1801L151.606 15.4717C151.816 14.2209 151.845 12.1707 151.792 10.4309C151.765 9.55015 151.716 8.72233 151.654 8.08201C151.623 7.76366 151.588 7.47825 151.548 7.25065C151.528 7.13791 151.504 7.02413 151.475 6.92076C151.455 6.84945 151.403 6.6678 151.281 6.50372L149.851 7.55209ZM149.856 15.1792C149.297 18.4947 147.668 21.3179 145.339 23.8599L146.651 25.0532C149.146 22.3291 150.977 19.2059 151.606 15.4725L149.856 15.1792ZM145.338 23.8609C143.513 25.8598 141.537 27.7137 139.53 29.5799L140.741 30.8741C142.745 29.0107 144.77 27.1115 146.651 25.0523L145.338 23.8609ZM139.53 29.5794C137.424 31.534 135.179 33.3265 132.924 35.2007L134.062 36.5597C136.279 34.716 138.587 32.8726 140.74 30.8747L139.53 29.5794ZM132.924 35.2007C132.179 35.8218 130.965 36.8025 129.89 37.6124C129.351 38.0188 128.859 38.3723 128.484 38.615C128.295 38.7379 128.154 38.8194 128.063 38.8645C128.016 38.8876 128.005 38.8899 128.019 38.8853C128.028 38.8828 128.058 38.8737 128.105 38.8677C128.147 38.8624 128.241 38.8543 128.361 38.881L127.977 40.6086C128.24 40.6669 128.465 40.6003 128.544 40.576C128.656 40.5414 128.763 40.494 128.852 40.4499C129.033 40.3601 129.24 40.236 129.452 40.0991C129.879 39.822 130.41 39.4388 130.96 39.0242C132.065 38.1921 133.302 37.193 134.063 36.5592L132.924 35.2007Z" fill="#86B455"/>
</g>
</g>
<mask id="mask9_842_100" style="mask-type:luminance" maskUnits="userSpaceOnUse" x="132" y="2" width="9" height="27">
<path d="M132.691 3.52344H140.181V28.072H132.691V3.52344Z" fill="white" stroke="white" stroke-width="1.16248"/>
</mask>
<g mask="url(#mask9_842_100)">
<path d="M135.887 3.07813C137.293 3.4769 138.152 4.49142 138.923 5.5294C140.6 7.78716 140.906 10.3322 140.393 13.0533C139.74 16.5308 138.158 19.6096 136.417 22.6356C135.446 24.3244 132.239 28.5115 132.239 28.5115C132.239 28.5115 134.41 24.0195 135.216 22.3892C136.71 19.3809 138.293 16.3549 138.911 13.0415C139.499 9.89829 138.699 5.59391 135.882 3.07227" fill="#86B455"/>
<mask id="mask10_842_100" style="mask-type:luminance" maskUnits="userSpaceOnUse" x="132" y="3" width="9" height="26">
<path d="M135.886 3.07831C137.292 3.47708 138.151 4.4916 138.922 5.52959C140.599 7.78734 140.905 10.3324 140.392 13.0535C139.739 16.531 138.157 19.6097 136.416 22.6358C135.445 24.3246 132.238 28.5117 132.238 28.5117C132.238 28.5117 134.409 24.0197 135.215 22.3894C136.71 19.3811 138.292 16.355 138.91 13.0417C139.498 9.89847 138.699 5.59409 135.881 3.07245" fill="white"/>
</mask>
<g mask="url(#mask10_842_100)">
<path d="M136.416 22.6372L135.646 22.1969L135.645 22.1973L136.416 22.6372ZM132.239 28.5132L131.439 28.1292L132.944 29.0501L132.239 28.5132ZM135.216 22.3909L134.42 21.9982L134.42 21.9998L135.216 22.3909ZM135.644 3.93088C136.74 4.24183 137.446 5.0309 138.209 6.05748L139.636 5.00466C138.856 3.95527 137.845 2.7153 136.129 2.2287L135.644 3.93088ZM138.209 6.05748C139.701 8.067 140 10.3433 139.52 12.8919L141.265 13.218C141.81 10.3245 141.497 7.51064 139.636 5.00466L138.209 6.05748ZM139.52 12.8919C138.896 16.2141 137.38 19.1843 135.646 22.1969L137.186 23.0775C138.935 20.0382 140.583 16.8509 141.265 13.218L139.52 12.8919ZM135.645 22.1973C135.19 22.9912 134.176 24.4197 133.246 25.6862C132.788 26.3113 132.359 26.8843 132.045 27.3011C131.888 27.5095 131.76 27.6786 131.671 27.7955C131.627 27.8539 131.592 27.8994 131.569 27.93C131.557 27.9454 131.548 27.9571 131.542 27.9648C131.539 27.9687 131.537 27.9716 131.535 27.9736C131.534 27.9745 131.534 27.9753 131.534 27.9757C131.534 27.9757 131.534 27.9763 132.239 28.5132C132.944 29.0501 132.944 29.0501 132.944 29.0501C132.944 29.0502 132.944 29.0501 132.944 29.0501C132.945 29.05 132.945 29.0495 132.945 29.0492C132.946 29.0487 132.946 29.0479 132.947 29.0468C132.949 29.0447 132.951 29.0416 132.954 29.0375C132.96 29.0293 132.97 29.0173 132.982 29.0016C133.006 28.9701 133.041 28.9238 133.086 28.8645C133.176 28.7458 133.306 28.5747 133.464 28.3641C133.782 27.9431 134.215 27.3638 134.68 26.7309C135.596 25.4816 136.672 23.9725 137.186 23.0775L135.645 22.1973ZM132.239 28.5132C133.038 28.8972 133.038 28.8972 133.038 28.8972C133.038 28.8973 133.038 28.8972 133.038 28.8972C133.038 28.8971 133.039 28.8967 133.039 28.8965C133.039 28.8959 133.04 28.8951 133.04 28.894C133.042 28.8918 133.043 28.8886 133.045 28.8843C133.049 28.8758 133.055 28.8632 133.063 28.8465C133.079 28.8132 133.103 28.7642 133.133 28.7013C133.194 28.5753 133.282 28.3935 133.39 28.1703C133.606 27.7239 133.903 27.1116 134.225 26.4485C134.868 25.1211 135.611 23.5937 136.012 22.7821L134.42 21.9998C134.015 22.8184 133.269 24.3522 132.626 25.6783C132.304 26.342 132.008 26.9547 131.791 27.4014C131.683 27.6248 131.595 27.8067 131.534 27.9328C131.504 27.9959 131.48 28.0449 131.464 28.0783C131.456 28.0949 131.449 28.1077 131.446 28.1162C131.443 28.1205 131.442 28.1238 131.441 28.1259C131.44 28.127 131.439 28.1278 131.439 28.1283C131.439 28.1286 131.439 28.129 131.439 28.1292C131.439 28.1292 131.439 28.1292 132.239 28.5132ZM136.011 22.7835C137.487 19.8124 139.138 16.6651 139.783 13.2049L138.037 12.8809C137.447 16.0474 135.933 18.9527 134.42 21.9982L136.011 22.7835ZM139.783 13.2049C140.411 9.85117 139.585 5.19949 136.474 2.41546L135.287 3.73239C137.813 5.99165 138.586 9.94821 138.037 12.8809L139.783 13.2049Z" fill="#86B455"/>
</g>
</g>
<mask id="mask11_842_100" style="mask-type:luminance" maskUnits="userSpaceOnUse" x="116" y="39" width="9" height="10">
<path d="M117.171 40.5586H123.943V47.6491H117.171V40.5586Z" fill="white" stroke="white" stroke-width="1.16248"/>
</mask>
<g mask="url(#mask11_842_100)">
<path d="M116.733 41.2294C116.709 40.8013 116.762 40.5609 116.962 40.3615C117.115 40.2149 117.286 40.0683 117.521 40.1328C117.739 40.1973 117.727 40.4085 117.78 40.5844C118.603 43.5517 120.292 45.7684 123.251 46.8944C123.428 46.9589 123.616 46.994 123.781 47.0761C124.033 47.2051 124.452 47.2638 124.381 47.645C124.316 47.991 123.928 48.0203 123.627 48.0613C122.863 48.1728 122.216 47.8561 121.563 47.4984C119.516 46.3725 118.027 44.748 117.062 42.6251C116.833 42.1267 116.768 41.593 116.727 41.2177" fill="#40579B"/>
<mask id="mask12_842_100" style="mask-type:luminance" maskUnits="userSpaceOnUse" x="116" y="40" width="9" height="9">
<path d="M116.733 41.2314C116.709 40.8033 116.762 40.5629 116.962 40.3634C117.115 40.2169 117.286 40.0703 117.521 40.1348C117.739 40.1993 117.727 40.4104 117.78 40.5863C118.603 43.5537 120.292 45.7703 123.251 46.8963C123.428 46.9608 123.616 46.996 123.781 47.078C124.033 47.2071 124.452 47.2657 124.381 47.6469C124.316 47.9929 123.928 48.0223 123.627 48.0633C122.863 48.1747 122.216 47.8581 121.563 47.5003C119.516 46.3744 118.027 44.75 117.062 42.6271C116.833 42.1286 116.768 41.595 116.727 41.2196" fill="white"/>
</mask>
<g mask="url(#mask12_842_100)">
<path d="M116.964 40.3626L116.349 39.7248L116.343 39.7308L116.336 39.737L116.964 40.3626ZM117.523 40.134L117.776 39.2858L117.767 39.2832L117.759 39.2808L117.523 40.134ZM117.782 40.5855L118.637 40.3495L118.635 40.3404L118.632 40.3312L117.782 40.5855ZM123.253 46.8955L122.937 47.7222L122.942 47.7242L122.947 47.7262L123.253 46.8955ZM123.783 47.0772L124.187 46.2895L124.18 46.2858L123.783 47.0772ZM124.383 47.6461L125.255 47.8083L125.256 47.8067L124.383 47.6461ZM123.629 48.0624L123.509 47.1858L123.502 47.1869L123.629 48.0624ZM121.565 47.4995L121.136 48.2743L121.137 48.275L121.565 47.4995ZM117.064 42.6262L117.873 42.2611L117.871 42.2572L117.064 42.6262ZM117.621 41.1821C117.617 41.0962 117.617 41.0351 117.619 40.9914C117.621 40.9483 117.626 40.9303 117.626 40.9287C117.626 40.9282 117.626 40.9316 117.623 40.9378C117.62 40.9442 117.617 40.9519 117.612 40.9602C117.607 40.9684 117.603 40.9754 117.598 40.9808C117.594 40.9861 117.591 40.9886 117.592 40.9884L116.336 39.737C115.865 40.2066 115.82 40.7695 115.849 41.2789L117.621 41.1821ZM117.58 41.0005C117.613 40.9676 117.631 40.9519 117.643 40.9428C117.653 40.934 117.645 40.9426 117.62 40.9554C117.593 40.9694 117.544 40.9897 117.477 40.9987C117.409 41.008 117.342 41.0021 117.288 40.9871L117.759 39.2808C116.985 39.0686 116.461 39.6171 116.349 39.7248L117.58 41.0005ZM117.27 40.9821C117.188 40.9577 117.09 40.9062 117.006 40.8186C116.928 40.7371 116.894 40.6585 116.882 40.6262C116.872 40.6007 116.872 40.5885 116.882 40.6344C116.887 40.6601 116.905 40.7521 116.931 40.8397L118.632 40.3312C118.634 40.3359 118.633 40.3348 118.631 40.3226C118.627 40.3072 118.624 40.2963 118.618 40.2652C118.608 40.22 118.587 40.118 118.546 40.0097C118.504 39.8946 118.429 39.74 118.289 39.5953C118.145 39.4445 117.968 39.3424 117.776 39.2858L117.27 40.9821ZM116.927 40.8214C117.81 44.0054 119.665 46.4773 122.937 47.7222L123.57 46.0688C120.923 45.0617 119.401 43.1003 118.637 40.3495L116.927 40.8214ZM122.947 47.7262C123.067 47.77 123.206 47.8087 123.265 47.8265C123.345 47.8509 123.374 47.8627 123.385 47.8687L124.18 46.2858C124.027 46.2097 123.879 46.1629 123.78 46.133C123.66 46.0966 123.616 46.0854 123.559 46.0647L122.947 47.7262ZM123.379 47.865C123.44 47.8964 123.499 47.9217 123.544 47.9403C123.584 47.957 123.636 47.9776 123.662 47.9876C123.734 48.0169 123.744 48.0242 123.737 48.0197C123.727 48.0132 123.641 47.9596 123.574 47.8358C123.539 47.7722 123.517 47.7033 123.508 47.6351C123.499 47.5687 123.504 47.5167 123.51 47.4854L125.256 47.8067C125.305 47.5424 125.278 47.2571 125.135 46.9934C125.001 46.7472 124.809 46.5995 124.671 46.5145C124.536 46.4317 124.399 46.3763 124.325 46.3463C124.276 46.3267 124.255 46.3185 124.224 46.3059C124.212 46.3009 124.204 46.297 124.197 46.294C124.194 46.2926 124.191 46.2914 124.189 46.2907C124.188 46.2899 124.187 46.2895 124.187 46.2895L123.379 47.865ZM123.51 47.4839C123.517 47.4488 123.53 47.4058 123.554 47.3596C123.577 47.3131 123.607 47.2722 123.64 47.2381C123.704 47.1715 123.762 47.148 123.771 47.1448C123.778 47.1421 123.764 47.148 123.711 47.1572C123.654 47.1673 123.606 47.1725 123.509 47.1858L123.75 48.9391C123.842 48.9266 124.151 48.8969 124.419 48.7925C124.746 48.6647 125.15 48.3739 125.255 47.8083L123.51 47.4839ZM123.502 47.1869C123.061 47.251 122.654 47.0866 121.992 46.724L121.137 48.275C121.781 48.6278 122.669 49.0968 123.758 48.9381L123.502 47.1869ZM121.994 46.7248C120.117 45.6927 118.761 44.2135 117.873 42.2611L116.255 42.9914C117.298 45.2848 118.918 47.0544 121.136 48.2743L121.994 46.7248ZM117.871 42.2572C117.708 41.9027 117.652 41.4995 117.611 41.1226L115.846 41.3151C115.888 41.6889 115.962 42.3529 116.258 42.9952L117.871 42.2572Z" fill="#40579B"/>
</g>
</g>
<mask id="mask13_842_100" style="mask-type:luminance" maskUnits="userSpaceOnUse" x="113" y="43" width="3" height="5">
<path d="M114.179 44.3535H113.735V44.7959V46.9364V47.3788H114.179H114.351H114.795V46.9364V44.7959V44.3535H114.351H114.179Z" fill="white" stroke="white" stroke-width="1.16248"/>
</mask>
<g mask="url(#mask13_842_100)">
<path d="M113.861 47.0395L114.734 46.9834C114.818 46.2073 114.82 45.5321 114.712 44.7363L113.832 44.7397C113.733 45.5186 113.665 46.2277 113.861 47.0395Z" fill="#40579B" stroke="#40579B" stroke-width="1.16248"/>
</g>
<path d="M13.4716 51.2164H1.32129V32.2891H4.83475V48.7653H13.4716V51.2164Z" fill="#252525"/>
<path d="M13.4716 51.2164H1.32129V32.2891H4.83475V48.7653H13.4716V51.2164Z" fill="#252525" stroke="#252525" stroke-width="0.871856" stroke-miterlimit="10"/>
<path d="M21.6193 32.2793H24.7502L31.8394 51.2154H27.7122L25.6309 45.2957H19.698L17.7055 51.2154H14.3789L21.6104 32.2793H21.6193ZM20.4363 42.8711H24.9993L22.7756 36.04L20.4363 42.8711Z" fill="#252525"/>
<path d="M21.6193 32.2793H24.7502L31.8394 51.2154H27.7122L25.6309 45.2957H19.698L17.7055 51.2154H14.3789L21.6104 32.2793H21.6193ZM20.4363 42.8711H24.9993L22.7756 36.04L20.4363 42.8711Z" fill="#252525" stroke="#252525" stroke-width="0.871856" stroke-miterlimit="10"/>
</svg>
