<svg xmlns="http://www.w3.org/2000/svg"><symbol id="icon-facebook" viewBox="0 0 24 24"><path d="M14.2 2.875A4.625 4.625 0 0 0 9.575 7.5v2.575H7.1c-.124 0-.225.1-.225.225v3.4c0 .124.1.225.225.225h2.475V20.9c0 .124.1.225.225.225h3.4c.124 0 .225-.1.225-.225v-6.975h2.497c.103 0 .193-.07.218-.17l.85-3.4a.225.225 0 0 0-.218-.28h-3.347V7.5a.775.775 0 0 1 .775-.775h2.6c.124 0 .225-.1.225-.225V3.1c0-.124-.1-.225-.225-.225h-2.6Z"/></symbol><symbol id="icon-reddit" viewBox="0 0 24 24"><path fill-rule="evenodd" clip-rule="evenodd" d="M19.96 1.75c-.873 0-1.636.479-2.038 1.188l-3.6-.739a.75.75 0 0 0-.841.442c-.411.966-1.027 2.431-1.542 3.685-.226.552-.434 1.066-.596 1.48-1.918.092-3.692.59-5.157 1.384a3.066 3.066 0 1 0-3.817 4.57 5.371 5.371 0 0 0-.132 1.187c0 2.04 1.151 3.842 2.921 5.114 1.77 1.273 4.191 2.044 6.842 2.044 2.65 0 5.071-.771 6.842-2.044 1.77-1.272 2.921-3.073 2.921-5.114 0-.405-.045-.802-.132-1.186a3.065 3.065 0 1 0-3.817-4.57c-1.39-.755-3.059-1.241-4.864-1.368l.377-.928c.419-1.021.907-2.185 1.295-3.103l3.018.62a2.343 2.343 0 1 0 2.32-2.662Zm-.842 2.342a.842.842 0 1 1 1.685 0 .842.842 0 0 1-1.685 0Zm1.983 8.25c-.47-.883-1.166-1.673-2.024-2.334a1.566 1.566 0 1 1 2.024 2.334ZM4.923 10.008A1.566 1.566 0 1 0 2.9 12.342c.47-.883 1.166-1.673 2.024-2.334Zm10.614 4.94a1.447 1.447 0 1 0 0-2.895 1.447 1.447 0 0 0 0 2.894ZM9.905 13.5a1.447 1.447 0 1 1-2.895 0 1.447 1.447 0 0 1 2.895 0ZM8.85 16.629a.75.75 0 0 0-.8 1.268l.345.218a6.75 6.75 0 0 0 7.202 0l.345-.217a.75.75 0 1 0-.8-1.27l-.345.218a5.25 5.25 0 0 1-5.602 0l-.345-.217Z"/></symbol><symbol id="icon-telegram" viewBox="0 0 24 24"><path fill-rule="evenodd" clip-rule="evenodd" d="M18.483 19.79v-.002l.018-.043L21.5 4.625v-.048c0-.377-.14-.706-.442-.903-.265-.173-.57-.185-.784-.169a2.681 2.681 0 0 0-.586.12 3.231 3.231 0 0 0-.24.088l-.013.005-16.72 6.56H2.71a1.968 1.968 0 0 0-.149.062 2.27 2.27 0 0 0-.341.19c-.215.148-.624.496-.555 1.049.057.457.372.747.585.898a2.062 2.062 0 0 0 .435.234l.01.003.007.003 2.926.985c-.01.183.008.37.057.555l1.465 5.559a1.5 1.5 0 0 0 2.834.196l2.288-2.446 3.929 3.012.056.024c.357.156.69.205.995.164.305-.042.547-.17.729-.315a1.742 1.742 0 0 0 .49-.634l.008-.018.003-.006.001-.003ZM7.135 13.875a.3.3 0 0 1 .13-.33l9.921-6.3s.584-.355.563 0c0 0 .104.062-.209.353-.296.278-7.071 6.819-7.757 7.48a.278.278 0 0 0-.077.136L8.6 19.434l-1.465-5.56Z"/></symbol><symbol id="icon-twitch" viewBox="0 0 24 24"><path fill-rule="evenodd" clip-rule="evenodd" d="M3.9 2.5a.9.9 0 0 0-.9.9v14.194a.9.9 0 0 0 .9.9h4.116v3.03a.7.7 0 0 0 1.194.494l3.525-3.524h4.643a.9.9 0 0 0 .636-.264l2.722-2.722a.9.9 0 0 0 .264-.636V3.4a.9.9 0 0 0-.9-.9H3.9Zm7.319 5.2a.75.75 0 0 0-1.5 0v4.272a.75.75 0 1 0 1.5 0V7.7Zm5.016 0a.75.75 0 0 0-1.5 0v4.272a.75.75 0 1 0 1.5 0V7.7Z"/></symbol><symbol id="icon-twitter" viewBox="0 0 24 24"><path d="M21.81 6.227c.058-.08-.028-.185-.12-.149a8.49 8.49 0 0 1-2.05.513 4.13 4.13 0 0 0 1.72-2.02c.034-.086-.06-.163-.14-.118a8.21 8.21 0 0 1-2.325.857.1.1 0 0 1-.093-.03 4.1 4.1 0 0 0-6.991 3.65.102.102 0 0 1-.105.123 11.64 11.64 0 0 1-8.223-4.17.098.098 0 0 0-.163.015 4.16 4.16 0 0 0-.48 1.943 4.09 4.09 0 0 0 1.82 3.41 4.05 4.05 0 0 1-1.709-.43c-.068-.035-.15.014-.147.09a4.23 4.23 0 0 0 .933 2.468A4.1 4.1 0 0 0 6.1 13.79a3.93 3.93 0 0 1-1.1.17 4.901 4.901 0 0 1-.606-.045c-.075-.01-.136.06-.11.13A4.11 4.11 0 0 0 8.06 16.73a8.22 8.22 0 0 1-5.625 1.741c-.106-.007-.155.134-.064.188a11.57 11.57 0 0 0 5.919 1.62A11.59 11.59 0 0 0 20 8.6v-.48a.1.1 0 0 1 .04-.08 8.429 8.429 0 0 0 1.77-1.813Z"/></symbol><symbol id="icon-youtube" viewBox="0 0 24 24"><path fill-rule="evenodd" clip-rule="evenodd" d="M6.989 4.89a64.248 64.248 0 0 1 10.022 0l2.24.176a2.725 2.725 0 0 1 2.476 2.268c.517 3.09.517 6.243 0 9.332a2.725 2.725 0 0 1-2.475 2.268l-2.24.175a64.249 64.249 0 0 1-10.023 0l-2.24-.175a2.725 2.725 0 0 1-2.476-2.268 28.315 28.315 0 0 1 0-9.332 2.725 2.725 0 0 1 2.475-2.268l2.24-.175ZM10 14.47V9.53a.3.3 0 0 1 .454-.257l4.117 2.47a.3.3 0 0 1 0 .514l-4.117 2.47A.3.3 0 0 1 10 14.47Z"/></symbol></svg>