<svg width="122" height="121" viewBox="0 0 122 121" fill="none" xmlns="http://www.w3.org/2000/svg">
<path d="M55.9963 20.5608C55.9892 18.0038 56.0011 15.4396 55.9963 12.8802C56.4919 12.391 56.4752 13.107 56.7064 13.3457C59.5205 16.2762 61.2552 19.1121 63.1471 22.6854C69.2662 36.4633 69.1804 52.2997 66.526 66.9C65.4418 71.0263 64.6245 75.1644 64.0764 79.3073C64.3171 78.4896 64.715 77.8468 65.2678 77.3765L68.7944 70.081C70.9818 66.0162 73.6887 62.0459 77.6847 59.5502C99.547 46.7011 108.611 71.7353 94.8528 85.6763C93.964 86.5767 90.5042 89.4481 89.4272 89.7482C89.2365 89.8026 88.7123 89.9231 88.6456 89.6821C92.501 84.4592 89.6869 76.8376 83.3605 75.3062C77.9444 73.9946 73.7316 76.5777 71.5227 81.4437C71.2272 82.0936 70.1026 84.8539 70.5362 85.31C72.2042 85.2958 73.8007 85.4518 75.3257 85.7779C75.5997 86.1442 75.6402 92.8749 75.4115 93.2554C75.3352 93.383 75.2089 93.461 75.0707 93.5106C73.3765 93.461 71.6919 93.5413 70.0168 93.7493C69.2328 94.1109 70.8889 97.9016 71.0128 97.5967C71.2201 97.6511 73.4957 100.215 73.9842 100.676C74.2677 100.943 75.919 101.985 75.664 102.326C73.5743 103.812 69.8833 104.273 67.5911 102.999C66.5974 102.446 63.5975 99.0336 62.8088 99.2581C62.5371 99.3337 60.9764 103.618 60.5713 104.377C59.611 106.18 58.534 107.641 56.9518 108.94C56.2394 109.441 55.9058 108.539 55.8962 107.877C56.1845 103.318 56.3013 98.5822 55.9987 94.0518L55.5769 94.3519C51.4428 94.1983 47.3014 94.1227 43.1506 94.1274L42.6549 93.8131C42.4858 94.5173 40.9512 94.5244 40.7487 93.8131C40.732 93.7895 40.427 93.8745 40.3341 93.7682C40.122 93.5295 40.1863 88.1294 40.2721 87.4322C40.1482 86.4562 40.2745 84.6648 41.4635 85.3053C41.6732 84.5041 43.9488 84.731 44.5612 85.0689C45.1688 84.4143 45.8551 84.4214 46.4674 85.0689C47.3944 84.3198 49.8344 84.3127 50.7565 85.0689C51.4165 84.4781 52.0003 84.4829 52.6628 85.0689L52.8986 84.6105C53.2799 84.6979 55.4745 85.0217 55.4745 84.835L55.5078 32.3111C55.565 29.9596 55.7294 27.6152 55.9987 25.2756C55.4173 23.73 55.5984 22.0355 55.9987 20.549L55.9963 20.5608Z" fill="#252525"/>
<path d="M39.7926 85.7877C38.6775 84.1499 36.8117 82.2664 35.5464 80.4277C23.3107 62.6393 18.8763 40.7861 25.1383 19.8545C25.4409 18.8406 27.6236 12.4361 28.2384 12.292C28.6577 12.1927 30.2447 14.6482 30.5973 15.1468C31.9913 17.1131 33.3614 19.1739 34.5528 21.2701L39.1969 12.5307C41.6893 15.4044 43.3597 18.843 45.0396 22.213L45.5686 21.9153L49.5669 12.7646C49.8862 12.5449 51.8592 14.6435 52.1761 15.0145C53.1769 16.189 54.5255 18.1766 55.0426 19.6158L55.6812 20.6155C55.8075 21.6222 56.0362 24.3873 54.8043 22.6881L54.2873 22.7188C53.1721 20.4595 51.8496 18.3373 50.3175 16.3521C39.7688 38.0069 41.7298 63.9249 52.9767 84.632L52.6598 85.081C52.0164 85.081 51.385 85.0858 50.7536 85.081L49.9601 84.4548C40.5146 67.2005 37.9817 46.0042 43.5122 27.4241C44.115 25.68 43.8077 24.9615 43.1357 23.4112C42.8426 22.7353 39.6806 16.4963 39.2732 16.6404C38.8657 16.7846 36.2994 23.5719 35.8943 24.8079C29.3511 44.8202 34.6624 66.8483 46.3525 83.8829C46.4907 84.2704 46.5264 84.6698 46.4645 85.0787C45.8307 85.0834 45.1921 85.0645 44.5582 85.0787C44.1198 84.8282 43.6599 84.5611 43.3549 84.1475C41.046 80.9973 38.9396 76.9348 37.2692 73.3923C29.8348 57.6268 28.2503 40.4552 33.3471 23.709C32.973 22.707 29.1367 16.5766 28.6863 16.4963C28.2669 16.4206 26.4203 23.5837 26.1915 24.5881C23.275 37.3428 24.3734 50.4802 28.8579 62.7433C31.7673 70.7005 35.4607 76.3109 40.2239 83.1857C40.5146 83.6064 40.6337 84.1145 40.7434 84.606C41.2175 85.048 40.3478 86.0594 39.7902 85.7877H39.7926Z" fill="#252525"/>
<path d="M42.6519 93.8223L42.9497 94.536C40.9434 102.143 47.9918 107.274 54.9877 107.513L55.5191 108.004C56.1457 108.047 56.639 109.467 55.7573 109.659C49.2237 110.382 41.0554 105.355 40.4978 98.4425C40.4216 97.4877 40.8838 94.0113 40.7456 93.8246H42.6519V93.8223Z" fill="#252525"/>
<path d="M70.5315 85.3136C71.2463 85.4317 75.7737 85.0087 75.7737 85.6681V93.4669C75.7737 93.4929 75.4425 93.8214 75.4163 93.8214H70.0549C69.8858 95.1826 70.6435 96.3501 71.0081 97.6026C70.9914 97.5979 70.8937 97.813 70.7888 97.839C69.6213 94.5611 67.8961 93.4905 72.5974 93.2022C73.5005 93.1479 74.9683 93.9277 75.29 92.5121C75.0136 91.1792 75.8476 86.2896 74.5847 85.6633C73.653 85.2001 71.1463 85.9588 70.5291 85.3136H70.5315Z" fill="#252525"/>
<path d="M56.9496 108.947C56.4492 109.358 56.8114 109.54 55.7582 109.656C55.9846 109.155 55.508 108.269 55.52 108.002C55.1077 107.863 55.1053 107.465 55.5128 106.811C55.4866 102.753 55.5366 98.7072 55.6582 94.6778L55.9965 94.0586C56.2515 94.2807 56.2157 94.302 56.2491 94.6258C56.6637 98.7001 55.7725 103.606 56.23 107.652C56.292 108.193 56.3944 108.69 56.9496 108.947Z" fill="#252525"/>
<path d="M55.9964 20.5605C56.0012 22.0541 56.0012 23.7108 55.9964 25.2871C55.1243 25.4785 54.2546 23.2665 54.805 22.6875C55.1219 22.8695 55.4722 23.2807 55.5199 22.5741C55.6033 21.3121 55.4531 20.752 55.0433 19.6152L55.9964 20.5605Z" fill="#252525"/>
<path d="M41.4609 85.3144C40.7223 85.4799 40.3529 86.7844 40.2695 87.4414C40.2338 87.0373 39.9884 86.0754 39.793 85.7871L40.7461 84.6055C41.3466 84.1257 42.0829 84.7709 41.4609 85.3144Z" fill="#252525"/>
</svg>
