<svg width="24" height="24" viewBox="0 0 24 24" fill="none" xmlns="http://www.w3.org/2000/svg">
<path d="M14 13C13.1667 13 12.4583 12.7083 11.875 12.125C11.2917 11.5417 11 10.8333 11 10C11 9.16667 11.2917 8.45833 11.875 7.875C12.4583 7.29167 13.1667 7 14 7C14.8333 7 15.5417 7.29167 16.125 7.875C16.7083 8.45833 17 9.16667 17 10C17 10.8333 16.7083 11.5417 16.125 12.125C15.5417 12.7083 14.8333 13 14 13ZM7 16C6.45 16 5.97933 15.8043 5.588 15.413C5.19667 15.0217 5.00067 14.5507 5 14V6C5 5.45 5.196 4.97933 5.588 4.588C5.98 4.19667 6.45067 4.00067 7 4H21C21.55 4 22.021 4.196 22.413 4.588C22.805 4.98 23.0007 5.45067 23 6V14C23 14.55 22.8043 15.021 22.413 15.413C22.0217 15.805 21.5507 16.0007 21 16H7ZM9 14H19C19 13.45 19.196 12.9793 19.588 12.588C19.98 12.1967 20.4507 12.0007 21 12V8C20.45 8 19.9793 7.80433 19.588 7.413C19.1967 7.02167 19.0007 6.55067 19 6H9C9 6.55 8.80433 7.021 8.413 7.413C8.02167 7.805 7.55067 8.00067 7 8V12C7.55 12 8.021 12.196 8.413 12.588C8.805 12.98 9.00067 13.4507 9 14ZM19 20H3C2.45 20 1.97933 19.8043 1.588 19.413C1.19667 19.0217 1.00067 18.5507 1 18V8C1 7.71667 1.096 7.47933 1.288 7.288C1.48 7.09667 1.71733 7.00067 2 7C2.28267 6.99933 2.52033 7.09533 2.713 7.288C2.90567 7.48067 3.00133 7.718 3 8V18H19C19.2833 18 19.521 18.096 19.713 18.288C19.905 18.48 20.0007 18.7173 20 19C19.9993 19.2827 19.9033 19.5203 19.712 19.713C19.5207 19.9057 19.2833 20.0013 19 20Z" fill="#40579B"/>
</svg>
