<svg width="129" height="60" viewBox="0 0 129 60" fill="none" xmlns="http://www.w3.org/2000/svg">
<path d="M44.0159 0.198793C54.7009 -0.379604 68.773 0.59419 78.5268 3.09327C80.9209 3.7068 83.2633 4.64139 85.5755 5.20341C88.3752 5.88351 91.4044 6.30971 94.2861 7.04576C112.397 11.6882 129.195 21.4773 128.227 34.5038C127.717 41.3309 122.969 51.2047 113.273 54.6226C92.2542 62.0276 56.9478 59.2564 34.724 55.0292C8.23566 49.9944 -5.95889 36.5329 3.60529 17.4164C11.8585 7.21014 25.3393 1.21161 44.0159 0.198793ZM122.063 25.1505C121.843 24.8444 121.611 24.6496 121.407 24.3875C116.603 18.4555 108.719 14.8176 98.9967 12.0734C98.6492 11.9745 98.2231 11.6418 97.6054 11.6199C97.0613 11.6008 96.2365 11.1063 95.5807 11.0231C95.3817 10.9964 93.7813 10.7981 93.4253 10.646C91.4449 9.80557 88.5761 9.32251 86.2164 8.93481C72.552 6.6866 56.0652 5.30394 42.0931 7.08359C38.0707 7.59463 34.7434 9.72201 30.6064 9.70242C30.3567 9.7035 30.0462 9.61706 29.9654 9.61884C30.2188 8.78681 31.0126 8.13389 32.1186 7.64734C41.7244 3.45387 55.5364 3.40615 66.8035 3.56578C67.0607 3.56898 67.9066 3.61247 68.013 3.44128C66.3048 3.27467 64.61 3.05444 62.8948 2.90576C48.4367 1.64815 34.0457 2.75726 22.0223 8.2616C5.4818 15.8341 -4.01134 29.7734 7.74286 40.999C13.2523 46.2667 27.2894 50.084 37.0236 51.6993C55.7548 54.813 82.7426 58.0388 101.605 54.4405C120.466 50.8421 131.997 39.3459 123.435 27.5876L122.063 25.1505Z" fill="#86B455"/>
</svg>
