<svg id="Calque_1" xmlns="http://www.w3.org/2000/svg" viewBox="0 0 1000 374.17334">
    <path d="M471.67755,52.0871c-18.32629,0-25.82782,8.25043-25.82782,27.00427v34.40594c0,18.75385,7.50153,27.00427,25.82782,27.00427,17.89575,0,25.61261-7.6076,25.61261-26.25537v-13.18073h-18.64777v11.46448c0,8.78717-2.24982,10.93402-7.07404,10.93402-4.92719,0-7.07092-2.25293-7.07092-11.789v-30.76129c0-9.53607,2.14374-11.789,7.07092-11.789,4.82422,0,7.07404,2.14685,7.07404,10.93402v10.50342h18.64777v-12.21967c0-18.64777-7.71686-26.25537-25.61261-26.25537Z"></path>
    <path d="M527.39282,52.0871c-18.2171,0-25.71863,8.25043-25.71863,27.00427v34.40594c0,18.75385,7.50153,27.00427,25.71863,27.00427,18.22028,0,25.7218-8.25043,25.7218-27.00427v-34.40594c0-18.75385-7.50153-27.00427-25.7218-27.00427Zm7.07404,59.58789c0,9.53607-2.14374,11.789-7.07404,11.789s-7.07092-2.25293-7.07092-11.789v-30.76129c0-9.53607,2.14062-11.789,7.07092-11.789s7.07404,2.25293,7.07404,11.789v30.76129Z"></path>
    <polygon points="574.52222 95.59851 590.05884 139.9649 607.63623 139.9649 607.63623 52.62378 590.70166 52.62378 590.70166 96.24133 575.3772 52.62378 557.48151 52.62378 557.48151 139.9649 574.52222 139.9649 574.52222 95.59851"></polygon>
    <path d="M637.46045,140.50159c17.57434,0,25.29126-6.54041,25.29126-21.54346v-8.25049c0-13.61133-4.82422-18.42932-19.93335-22.3985-10.71875-2.88953-12.00439-3.85687-12.00439-8.03827v-5.24854c0-5.03644,1.92847-6.75262,6.3252-6.75262,4.71484,0,6.96472,2.14056,6.96472,8.35651v6.1098h18.64783v-7.39545c0-16.18256-7.50159-23.25348-25.29126-23.25348s-25.40039,5.57312-25.40039,21.75568v6.96484c0,12.64404,4.39355,17.25604,19.82739,22.3985,10.82153,2.78967,12.21643,3.75079,12.21643,8.14435v6.4281c0,5.25482-2.14368,6.85876-6.43127,6.85876-4.49951,0-6.85864-2.03455-6.85864-8.78717v-7.07092h-18.75391v8.68103c0,16.93152,8.03833,23.04132,25.40039,23.04132Z"></path>
    <polygon points="708.22168 122.39056 685.82324 122.39056 685.82324 102.88782 706.93604 102.88782 706.93604 86.38074 685.82324 86.38074 685.82324 70.19812 708.22168 70.19812 708.22168 52.62378 667.17554 52.62378 667.17554 139.9649 708.22168 139.9649 708.22168 122.39056"></polygon>
    <rect x="712.9574" y="52.62378" width="18.64783" height="87.34113"></rect>
    <polygon points="777.89502 122.39056 755.49646 122.39056 755.49646 52.62378 736.84863 52.62378 736.84863 139.9649 777.89502 139.9649 777.89502 122.39056"></polygon>
    <path d="M471.03479,143.41608h-24.75757v87.34113h24.75757c19.50275,0,25.71863-7.18323,25.71863-28.50836v-30.3244c0-21.3313-6.21588-28.50836-25.71863-28.50836Zm7.07092,57.22888c0,10.82172-2.24988,13.39294-7.18018,13.39294h-6.00061v-53.79639h6.00061c4.9303,0,7.18018,2.35907,7.18018,13.2868v27.11664Z"></path>
    <path d="M532.66968,203.53448c0,8.25671-1.92841,10.6095-6.43121,10.6095-4.39355,0-6.32202-2.35278-6.32202-10.6095v-60.11841h-18.64777v58.62061c0,22.3985,5.89453,29.25726,24.96979,29.25726,19.18445,0,25.07898-6.85876,25.07898-29.25726v-58.62061h-18.64777v60.11841Z"></path>
    <path d="M622.8811,173.52832v-7.39539c0-16.18262-7.50159-23.25354-25.29126-23.25354s-25.40039,5.57312-25.40039,21.75568v6.96484c0,12.64404,4.39368,17.25604,19.82739,22.3985,10.82166,2.78967,12.21655,3.75079,12.21655,8.14435v6.4281c0,5.25482-2.1438,6.85876-6.43127,6.85876-4.49963,0-6.85876-2.03455-6.85876-8.78717v-7.07092h-18.75391v8.68109c0,16.93146,8.03833,23.04132,25.40039,23.04132,17.57446,0,25.29126-6.54047,25.29126-21.54352v-8.25049c0-13.61133-4.82422-18.42926-19.93335-22.3985-10.71875-2.88953-12.00439-3.85687-12.00439-8.03827v-5.24854c0-5.03638,1.92847-6.75262,6.3252-6.75262,4.71497,0,6.96484,2.14062,6.96484,8.35651v6.1098h18.64771Z"></path>
    <path d="M626.54309,143.41608v87.34113h18.64783v-26.89819h6.10974c18.64465,0,24.43298-6.21588,24.43298-22.3985v-14.79089c0-17.0376-5.78833-23.25354-24.43298-23.25354h-24.75757Zm30.54285,26.04321v9.85437c0,7.50775-1.82227,9.21777-5.89453,9.21777h-6.00049v-28.28992h6.00049c4.07227,0,5.89453,1.60388,5.89453,9.21777Z"></path>
    <path d="M706.28967,142.87939c-18.21716,0-25.71863,8.25043-25.71863,27.00427v34.40594c0,18.75385,7.50146,27.00433,25.71863,27.00433,18.22021,0,25.7218-8.25049,25.7218-27.00433v-34.40594c0-18.75385-7.50159-27.00427-25.7218-27.00427Zm7.0741,59.58789c0,9.53607-2.1438,11.78906-7.0741,11.78906s-7.07092-2.25299-7.07092-11.78906v-30.76129c0-9.53607,2.14062-11.789,7.07092-11.789s7.0741,2.25293,7.0741,11.789v30.76129Z"></path>
    <path d="M755.60254,197.10638h4.82104l7.61084,33.65082h19.29053l-9.21777-36.86487c5.35779-3.21405,7.823-9.00562,7.823-18.11102v-10.39734c0-16.7193-5.57324-21.9679-24.11169-21.9679h-24.96985v87.34113h18.75391v-33.65082Zm0-36.97095h6.21594c3.85681,0,5.35779,1.4978,5.35779,7.81982v6.54041c0,6.4281-1.50098,7.81982-5.35779,7.81982h-6.21594v-22.18005Z"></path>
    <polygon points="821.30225 230.7572 821.30225 162.16992 833.4126 162.16992 833.4126 143.41608 790.43799 143.41608 790.43799 162.16992 802.54834 162.16992 802.54834 230.7572 821.30225 230.7572"></polygon>
    <path d="M471.03479,234.20844h-24.75757v87.34106h24.75757c19.50275,0,25.71863-7.18323,25.71863-28.5083v-30.32446c0-21.3313-6.21588-28.5083-25.71863-28.5083Zm7.07092,57.22882c0,10.82172-2.24988,13.39294-7.18018,13.39294h-6.00061v-53.79639h6.00061c4.9303,0,7.18018,2.35907,7.18018,13.28687v27.11658Z"></path>
    <polygon points="501.26868 321.5495 542.31494 321.5495 542.31494 303.97522 519.91644 303.97522 519.91644 284.47247 541.02936 284.47247 541.02936 267.96533 519.91644 267.96533 519.91644 251.78271 542.31494 251.78271 542.31494 234.20844 501.26868 234.20844 501.26868 321.5495"></polygon>
    <polygon points="608.85376 280.72168 599.19385 234.20844 572.18945 234.20844 572.18945 321.5495 590.19446 321.5495 590.19446 263.14111 602.63794 321.5495 615.61804 321.5495 627.19177 263.57172 627.19177 321.5495 645.19666 321.5495 645.19666 234.20844 618.51379 234.20844 608.85376 280.72168"></polygon>
    <path d="M675.32141,233.67169c-18.21716,0-25.71863,8.25043-25.71863,27.00427v34.40601c0,18.75378,7.50146,27.00427,25.71863,27.00427,18.22021,0,25.7218-8.25049,25.7218-27.00427v-34.40601c0-18.75385-7.50159-27.00427-25.7218-27.00427Zm7.0741,59.58789c0,9.53607-2.1438,11.78906-7.0741,11.78906s-7.07092-2.25299-7.07092-11.78906v-30.76129c0-9.53601,2.14062-11.789,7.07092-11.789s7.0741,2.25299,7.0741,11.789v30.76129Z"></path>
    <polygon points="738.66943 277.82593 723.34497 234.20844 705.44922 234.20844 705.44922 321.5495 722.48999 321.5495 722.48999 277.18311 738.02661 321.5495 755.604 321.5495 755.604 234.20844 738.66943 234.20844 738.66943 277.82593"></polygon>
    <polygon points="759.57324 252.96228 771.68372 252.96228 771.68372 321.5495 790.4375 321.5495 790.4375 252.96228 802.54797 252.96228 802.54797 234.20844 759.57324 234.20844 759.57324 252.96228"></polygon>
    <path d="M856.0354,266.57361v-10.39728c0-16.71936-5.57312-21.9679-24.11157-21.9679h-24.96973v87.34106h18.75378v-33.65082h4.82104l7.61072,33.65082h19.29053l-9.21777-36.86487c5.35791-3.21405,7.823-9.00555,7.823-18.11102Zm-18.75391-1.28564c0,6.4281-1.50085,7.81982-5.35767,7.81982h-6.21594v-22.18005h6.21594c3.85681,0,5.35767,1.4978,5.35767,7.81982v6.54041Z"></path>
    <polygon points="891.51025 224.56 876.61328 224.56 874.57886 231.20654 885.50977 231.20654 891.51025 224.56"></polygon>
    <polygon points="860.65674 321.5495 901.70312 321.5495 901.70312 303.97522 879.30444 303.97522 879.30444 284.47247 900.41748 284.47247 900.41748 267.96533 879.30444 267.96533 879.30444 251.78271 901.70312 251.78271 901.70312 234.20844 860.65674 234.20844 860.65674 321.5495"></polygon>
    <path d="M915.21765,234.20844l-10.28809,87.34106h18.11096l1.92847-18.966h10.39429l1.93152,18.966h18.21716l-10.28809-87.34106h-30.00623Zm11.25232,53.79633l3.75073-36.65265,3.64478,36.65265h-7.39551Z"></path>
    <polygon points="977.60156 303.97522 977.60156 234.20844 958.95374 234.20844 958.95374 321.5495 1000 321.5495 1000 303.97522 977.60156 303.97522"></polygon>
    <path class="logo--icon" d="M341.45258,145.14459c-3.32599-.78882-7.50403-1.20526-11.52155-1.20526h-38.67761l17.21997-17.21991c2.84082-2.84082,5.50067-6.0896,7.29474-8.99927,10.27814-16.66888,8.10425-38.16986-6.52045-52.79449-14.62463-14.62469-36.12567-16.79858-52.79456-6.52051-2.90961,1.79407-6.15839,4.45392-8.99921,7.29474l-17.21997,17.21997V44.24225c0-4.01752-.41644-8.1955-1.20526-11.52155C224.5097,13.66632,207.76904,0,187.08667,0s-37.42303,13.66632-41.94208,32.7207c-.78882,3.32605-1.2052,7.50403-1.2052,11.52155v38.67761l-17.21997-17.21997c-2.84082-2.84082-6.0896-5.50067-8.99921-7.29474-16.66888-10.27808-38.16992-8.10419-52.79456,6.52051-14.62469,14.62463-16.79852,36.12561-6.52045,52.79449,1.79407,2.90967,4.45392,6.15845,7.29474,8.99927l17.21997,17.21991H44.24231c-4.01752,0-8.19556,.41644-11.52161,1.20526C13.66632,149.66357,0,166.4043,0,187.08667s13.66632,37.42303,32.7207,41.94202c3.32605,.78882,7.50409,1.20526,11.52161,1.20526h38.67755l-17.21991,17.21997c-2.84082,2.84076-5.50067,6.08954-7.2948,8.99921-10.27802,16.66888-8.10419,38.16992,6.52051,52.79456,14.62463,14.62463,36.12567,16.79852,52.79456,6.52045,2.90961-1.79407,6.15839-4.45392,8.99921-7.29474l17.21997-17.21997v38.67761c0,4.01752,.41638,8.19556,1.2052,11.52155,4.51904,19.05444,21.2597,32.72076,41.94208,32.72076s37.42303-13.66632,41.94202-32.72076c.78882-3.32599,1.20526-7.50403,1.20526-11.52155v-38.67761l17.21997,17.21997c2.84082,2.84082,6.0896,5.50067,8.99921,7.29474,16.66888,10.27808,38.16992,8.10419,52.79456-6.52045,14.62469-14.62463,16.79858-36.12567,6.52051-52.79456-1.79413-2.90967-4.45398-6.15845-7.2948-8.99921l-17.21991-17.21997h38.67755c4.01752,0,8.19556-.41644,11.52155-1.20526,19.05444-4.51898,32.72076-21.25964,32.72076-41.94202s-13.66632-37.4231-32.72076-41.94208ZM75.05487,115.81592c-11.47498-11.47504-11.47455-29.2865,0-40.76105,11.47455-11.47455,29.28601-11.47498,40.76105,0l28.12347,28.12347v40.76099h-40.76105l-28.12347-28.12341Zm-31.90753,100.09314h-.00006c-16.22809-.00006-28.82239-12.59491-28.82239-28.82239s12.5943-28.82239,28.82239-28.82239h.00006c16.22748,0,28.82233,12.59491,28.82233,28.82239s-12.59485,28.82239-28.82233,28.82239Zm31.69849,0c7.14343-7.2489,11.44879-17.2171,11.44879-28.82239s-4.30536-21.57355-11.44879-28.82239h22.39899l28.82239,28.82239-28.82239,28.82239h-22.39899Zm69.09357,55.08588l-28.12347,28.12347c-11.47504,11.47504-29.2865,11.47455-40.76105,0s-11.47498-29.28601,0-40.76099l28.12347-28.12347h40.76105v40.76099Zm-26.43616-55.08588l26.495-26.495c.51459,10.26575,4.42151,19.44928,10.65826,26.495h-37.15326Zm26.495-31.14984l-26.495-26.49493h37.15326c-6.23676,7.04565-10.14368,16.22925-10.65826,26.49493Zm14.26605-40.81989v-26.4361l26.495,26.495c-10.26575,.51459-19.44928,4.42151-26.495,10.65826v-10.71716Zm0,75.57751c7.04572,6.23676,16.22925,10.14368,26.49493,10.65826l-26.49493,26.49493v-37.1532Zm28.82239,140.3316c-16.22748,0-28.82239-12.5943-28.82239-28.82245s12.59491-28.82239,28.82239-28.82239,28.82239,12.59491,28.82239,28.82239-12.59491,28.82245-28.82239,28.82245Zm28.82239-60.521c-7.24884-7.14337-17.2171-11.44873-28.82239-11.44873s-21.57355,4.30536-28.82239,11.44873v-22.39893l28.82239-28.82239,28.82239,28.82239v22.39893Zm0-42.65741l-26.49493-26.49493c10.26593-.51459,19.44934-4.42139,26.49493-10.65802v37.15295Zm-28.82239-40.76099c-16.22754,0-28.82239-12.59491-28.82239-28.82239s12.59485-28.82239,28.82239-28.82239,28.82239,12.59491,28.82239,28.82239-12.5943,28.82239-28.82239,28.82239Zm28.82239-61.25287c-7.04559-6.23657-16.22906-10.14337-26.495-10.65796l26.495-26.495v37.15295Zm0-57.41144l-28.82239,28.82239-28.82239-28.82239v-22.39893c7.24884,7.14343,17.21704,11.44873,28.82239,11.44873s21.57355-4.3053,28.82239-11.44873v22.39893Zm-28.82239-25.27509c-16.22748,0-28.82239-12.59485-28.82239-28.82239s12.59491-28.82239,28.82239-28.82239,28.82239,12.5943,28.82239,28.82239-12.59491,28.82239-28.82239,28.82239Zm43.14728,31.20868l28.12347-28.12347c11.47504-11.47498,29.28644-11.47455,40.76105,0,11.47455,11.47455,11.47498,29.28601,0,40.76105l-28.12347,28.12341h-40.76105v-40.76099Zm26.4361,55.08594l-26.49493,26.49493c-.51459-10.26569-4.42133-19.44928-10.65796-26.49493h37.15289Zm-37.15289,57.64478c6.23663-7.04572,10.14337-16.22925,10.65796-26.495l26.49493,26.495h-37.15289Zm79.60132,42.44836c11.47498,11.47498,11.47455,29.28644,0,40.76099-11.47461,11.47455-29.28601,11.47504-40.76105,0l-28.12347-28.12347v-40.76099h40.76105l28.12347,28.12347Zm.20905-42.44836h-22.39893l-28.82245-28.82239,28.82239-28.82239h22.39899c-7.14343,7.24884-11.44879,17.21704-11.44879,28.82239s4.30536,21.57349,11.44879,28.82239Zm31.69855,0h-.00006c-16.22748,0-28.82233-12.59491-28.82233-28.82239s12.59485-28.82239,28.82233-28.82239h.00006c16.22809,0,28.82239,12.59491,28.82239,28.82239s-12.5943,28.82233-28.82239,28.82239Z"></path>
    </svg>