<?xml version="1.0" encoding="UTF-8"?>
<svg id="uuid-bb5ec37c-ac43-400b-b229-f44ad2c35b19" data-name="Calque_1" xmlns="http://www.w3.org/2000/svg" viewBox="0 0 2000 1577.87">
  <defs>
    <style>
      .uuid-2104cd8d-de59-4c67-b6e7-b85de0101071 {
        fill: #fff;
      }
    </style>
  </defs>
  <path class="uuid-2104cd8d-de59-4c67-b6e7-b85de0101071" d="M1353.67,1036.77c0-.41-.01-.83-.02-1.24-.01-.73-.03-1.46-.06-2.19-.02-.58-.04-1.15-.08-1.73-.01-.33-.02-.66-.04-.99-.02-.51-.05-1-.09-1.51-.04-.76-.1-1.54-.15-2.3-.03-.48-.08-.96-.12-1.43-.06-.85-.14-1.71-.23-2.56-.03-.35-.08-.72-.11-1.08-.08-.68-.14-1.34-.23-2.01-.13-1.15-.28-2.29-.44-3.43-.05-.44-.12-.87-.19-1.3-.24-1.65-.51-3.28-.8-4.92-.1-.56-.2-1.13-.31-1.69-.19-1.01-.4-2.03-.61-3.04-.18-.88-.38-1.78-.58-2.66-.22-.9-.43-1.8-.66-2.7-.1-.39-.19-.79-.29-1.18-.22-.83-.44-1.66-.67-2.49-.02-.09-.05-.17-.08-.26-.25-.9-.51-1.8-.77-2.69-.29-1-.6-1.99-.93-2.98-.13-.42-.27-.84-.41-1.26-.23-.72-.47-1.43-.73-2.15-.28-.82-.57-1.64-.87-2.44-.19-.55-.4-1.1-.6-1.64-.53-1.39-1.09-2.78-1.66-4.15-.26-.63-.53-1.28-.81-1.91-1.43-3.33-3-6.63-4.69-9.88l-.65-1.23c-.37-.68-.73-1.36-1.11-2.03-.29-.54-.59-1.08-.89-1.6-3.41-6.02-7.28-11.89-11.62-17.61-.41-.55-.83-1.1-1.26-1.64-1.74-2.26-3.56-4.49-5.45-6.68-.4-.45-.8-.91-1.2-1.38-.46-.53-.94-1.05-1.41-1.58s-.95-1.05-1.43-1.57c-4.01-4.37-8.35-8.64-12.98-12.8-47.86-42.97-104.91-56.9-167.91-44.68-1.18.23-2.37.47-3.54.72h-.01c-2.36.49-4.68,1.04-6.99,1.62-1.15.29-2.31.59-3.45.9-3.43.93-6.83,1.95-10.17,3.07t-.01,0c-4.45,1.48-8.83,3.12-13.11,4.94-7.52,3.16-14.77,6.82-21.76,10.96-1.99,1.18-3.96,2.41-5.92,3.68t-.01,0c-.97.65-1.94,1.28-2.9,1.94-.96.65-1.93,1.31-2.88,1.99-.95.67-1.9,1.36-2.84,2.04-1.89,1.39-3.75,2.82-5.61,4.28-.91.73-1.83,1.48-2.74,2.24-.91.75-1.82,1.52-2.71,2.29-.9.77-1.8,1.55-2.69,2.35-.66.59-1.32,1.19-1.98,1.81-.67.6-1.32,1.23-1.97,1.84-.62.59-1.25,1.18-1.87,1.79-.68.66-1.34,1.32-2.01,1.99-.86.85-1.71,1.71-2.56,2.59-.29.3-.58.59-.88.9-.38.38-.74.74-1.11,1.12-.23.23-.44.46-.65.69-2.01,2.25-3.39,4.78-1.67,8.79,8.79,20.46,17.51,40.96,26.4,61.87,1.97,4.65,3.95,9.32,5.95,14.01,4.97,11.73,10.02,23.6,15.16,35.71.54-6.75,1.45-13.18,2.74-19.28.47-2.29,1-4.54,1.59-6.73.38-1.46.8-2.92,1.23-4.34.31-1,.62-1.99.95-2.97.26-.76.52-1.53.79-2.27.28-.77.56-1.54.84-2.29.36-.93.72-1.85,1.09-2.75.55-1.32,1.11-2.61,1.7-3.89.42-.9.84-1.8,1.28-2.68.05-.11.11-.2.16-.31.33-.69.68-1.37,1.04-2.03,1.2-2.29,2.5-4.51,3.86-6.64.28-.45.58-.9.87-1.34.15-.23.3-.45.45-.67.33-.49.67-1,1.02-1.48.05-.09.12-.17.17-.25.45-.63.9-1.27,1.38-1.88.58-.77,1.17-1.54,1.77-2.28.36-.46.73-.9,1.11-1.36.11-.14.22-.27.32-.39.39-.45.77-.9,1.18-1.36.1-.12.19-.23.29-.33.44-.51.9-1,1.36-1.48.37-.39.73-.77,1.1-1.14.24-.25.48-.51.73-.74.93-.93,1.86-1.83,2.82-2.69.4-.37.8-.72,1.19-1.08.45-.39.89-.77,1.34-1.15.41-.34.83-.69,1.25-1.02,1.83-1.48,3.72-2.88,5.67-4.2.29-.2.58-.4.88-.59.37-.25.74-.48,1.12-.72,1.61-1.03,3.27-2,4.97-2.93.54-.3,1.08-.59,1.62-.87.17-.09.34-.17.52-.26.6-.31,1.22-.62,1.84-.91.56-.28,1.13-.54,1.71-.81,1.5-.68,3.02-1.32,4.57-1.93.47-.19.95-.37,1.43-.55.28-.11.57-.22.87-.32.39-.14.79-.28,1.18-.41.61-.23,1.24-.43,1.86-.63,1.55-.51,3.12-.97,4.71-1.4.82-.23,1.66-.44,2.5-.65s1.68-.41,2.53-.59c.62-.14,1.26-.27,1.89-.4.38-.08.75-.15,1.13-.23.71-.13,1.43-.26,2.16-.39,5.58-.96,11.2-1.36,16.76-1.25.3,0,.6.01.89.02.42.01.84.02,1.26.04.6.02,1.19.05,1.8.09.46.03.91.06,1.37.1.39.03.76.06,1.15.1.26.02.52.04.76.08.43.04.87.09,1.3.14,4.06.45,8.06,1.17,12.01,2.14.37.1.73.18,1.1.28.65.17,1.28.34,1.91.53.55.15,1.1.3,1.64.47,1.09.32,2.16.67,3.24,1.03,1.08.37,2.14.75,3.21,1.15.8.3,1.58.61,2.37.95,1.57.65,3.13,1.33,4.67,2.05.77.37,1.54.74,2.3,1.12.51.26,1.01.52,1.51.79.51.26.99.52,1.48.8,1.5.82,2.97,1.68,4.43,2.58,1.93,1.19,3.82,2.45,5.67,3.79.69.49,1.38,1.01,2.05,1.53.68.52,1.36,1.03,2.02,1.57.88.71,1.76,1.44,2.62,2.18,2.32,2,4.55,4.11,6.67,6.34.44.46.88.94,1.32,1.41,1.5,1.61,2.94,3.29,4.31,5.02.4.49.79.99,1.18,1.5,1.24,1.61,2.43,3.28,3.56,4.98.25.37.49.73.72,1.1.24.36.47.72.7,1.09.28.44.56.89.83,1.34.18.29.36.58.53.88.48.81.95,1.62,1.4,2.45.45.82.89,1.64,1.31,2.47.19.38.39.75.57,1.13.03.06.06.14.1.2.24.47.46.95.69,1.42.26.55.51,1.1.75,1.65,15.88,35.6,2.68,83.7-30.41,110-1.02.82-2.05,1.6-3.1,2.37-.55.4-1.09.8-1.64,1.17-.54.38-1.07.74-1.6,1.11-1.08.72-2.16,1.42-3.25,2.09-.55.33-1.1.67-1.65.99-.55.33-1.1.65-1.66.95-.55.31-1.11.61-1.67.91-.56.3-1.12.59-1.68.87s-1.07.54-1.6.79c-3.6,1.73-7.28,3.21-11.05,4.41-.82.27-1.65.52-2.49.75-2.56.74-5.15,1.36-7.8,1.86-.69.13-1.38.25-2.08.37-1.39.23-2.79.42-4.2.58-2.81.32-5.67.53-8.55.59-1.48.03-2.97.03-4.46,0-.29,0-.57-.02-.86-.03-1.21-.04-2.42-.1-3.64-.19-.27-.02-.53-.03-.8-.05-1.17-.09-2.35-.19-3.5-.33-.87-.09-1.74-.2-2.6-.33-.37-.05-.73-.11-1.1-.16-.22-.03-.42-.06-.63-.11-.38-.06-.74-.12-1.12-.19-1.19-.2-2.39-.44-3.56-.71-.42-.1-.84-.19-1.27-.29-.03,0-.05-.01-.09-.02-.42-.1-.83-.2-1.25-.31-.43-.11-.86-.22-1.29-.34-.32-.09-.65-.17-.96-.26-2.07-.59-4.09-1.25-6.09-1.99-.49-.18-.99-.37-1.48-.56-.53-.2-1.07-.42-1.59-.63-.77-.32-1.54-.65-2.3-.99-.65-.28-1.28-.58-1.91-.88-.63-.3-1.27-.61-1.9-.94-.03-.02-.06-.03-.1-.04-.6-.3-1.19-.61-1.79-.94-.48-.25-.97-.52-1.45-.79-.76-.42-1.53-.86-2.28-1.31-.61-.37-1.23-.73-1.83-1.12-.61-.37-1.23-.76-1.84-1.16-.71-.46-1.42-.94-2.13-1.42-.18-.13-.37-.26-.56-.4-.51-.34-1.01-.71-1.51-1.08-.19-.13-.39-.27-.58-.42-.66-.47-1.3-.97-1.96-1.46-.73-.57-1.46-1.14-2.19-1.73-.44-.36-.88-.71-1.31-1.08-.44-.36-.87-.72-1.31-1.1-2.6-2.22-5.17-4.58-7.71-7.1.09.27.17.54.26.79.14.41.26.8.37,1.16.26.8.47,1.47.66,2.09.13.42.26.81.38,1.17.23.69.44,1.29.67,1.86.04.12.09.23.13.33,3.2,7.5,6.43,14.96,9.69,22.44,1.76,4.06,3.53,8.11,5.28,12.16,1.23,2.83,2.45,5.66,3.67,8.49.67,1.53,1.32,3.07,1.98,4.59,1.21,2.81,2.4,5.63,3.59,8.43,3.17,7.5,6.29,15.03,9.31,22.59.75,1.88,1.51,3.78,2.25,5.68.73,1.89,1.46,3.79,2.18,5.69.08.21.17.41.26.61.21.54.43,1.06.65,1.56.31.69.63,1.34.96,1.97.17.31.34.62.53.93.14.25.28.49.44.73.24.4.48.77.74,1.14.15.22.29.42.45.62.18.25.38.49.58.74.39.48.8.94,1.22,1.37.27.27.54.54.82.79.17.16.34.32.53.46.2.17.41.34.61.51.45.36.93.69,1.41.99.24.15.48.3.73.44s.49.28.74.41c.51.26,1.01.49,1.53.72,1.08.44,2.19.81,3.39,1.1.29.08.58.14.88.2.3.06.6.13.91.18.3.05.61.11.93.16.62.1,1.27.17,1.93.24.27.03.54.05.82.08.11.01.22.02.32.03.28.02.57.04.86.05.34.02.69.04,1.03.05,2.01.08,4.02.13,6.02.14,1.43.02,2.86.02,4.29,0,1.55-.02,3.11-.05,4.66-.11.77-.03,1.55-.06,2.32-.1.77-.03,1.54-.08,2.31-.12,3.09-.17,6.16-.43,9.22-.74.73-.08,1.46-.16,2.18-.24.81-.1,1.6-.19,2.4-.29.75-.1,1.52-.2,2.28-.31.62-.09,1.24-.17,1.84-.26,1.11-.16,2.21-.34,3.3-.53,3.72-.62,7.4-1.36,11.06-2.18,2.37-.54,4.72-1.13,7.06-1.75,3.51-.95,6.99-2,10.42-3.14,1.08-.36,2.14-.72,3.2-1.1.22-.08.44-.16.66-.23.79-.29,1.57-.57,2.35-.87,1.33-.49,2.66-1.01,3.98-1.54,4.46-1.8,8.84-3.75,13.14-5.9,2.95-1.46,5.86-3.02,8.72-4.66.77-.45,1.56-.9,2.32-1.36.73-.44,1.46-.87,2.19-1.32,1.01-.61,2.01-1.24,3-1.87.81-.52,1.61-1.04,2.42-1.58.74-.49,1.48-1,2.23-1.52.63-.43,1.26-.87,1.88-1.32.19-.12.38-.26.56-.39.66-.47,1.3-.95,1.95-1.42,4.59-3.38,9.03-7,13.26-10.88.95-.86,1.88-1.74,2.82-2.62,1.86-1.79,3.68-3.6,5.47-5.48.89-.94,1.77-1.88,2.65-2.84.87-.97,1.74-1.94,2.59-2.92.79-.9,1.56-1.82,2.33-2.74.17-.19.33-.4.49-.6.69-.84,1.38-1.69,2.05-2.55.09-.1.16-.2.24-.3.73-.93,1.45-1.87,2.16-2.82.08-.1.15-.18.2-.28.71-.94,1.4-1.87,2.07-2.83.12-.14.23-.29.32-.44.72-1.01,1.42-2.02,2.12-3.06.74-1.1,1.47-2.21,2.19-3.33.65-.99,1.27-1.99,1.89-3,.12-.18.24-.37.34-.56.67-1.1,1.31-2.19,1.96-3.31.59-1.02,1.17-2.04,1.74-3.09,1.8-3.26,3.51-6.61,5.1-10.05.33-.71.66-1.42.98-2.13.36-.74.68-1.5,1-2.25.32-.75.65-1.51.97-2.27.63-1.52,1.26-3.06,1.85-4.6.26-.65.51-1.29.74-1.95.36-.91.69-1.83,1.01-2.75.38-1.05.74-2.12,1.1-3.2.17-.49.33-1,.49-1.51.04-.1.08-.2.1-.3.51-1.55.99-3.12,1.45-4.69.5-1.65.97-3.31,1.4-4.99.23-.84.44-1.68.66-2.53.22-.85.42-1.7.62-2.55.69-2.89,1.32-5.77,1.89-8.63.14-.71.28-1.43.42-2.14.14-.71.27-1.43.4-2.14.14-.71.26-1.42.38-2.13.12-.71.24-1.42.36-2.13.34-2.12.66-4.24.93-6.35.1-.71.18-1.41.27-2.11.17-1.4.32-2.8.46-4.2.05-.56.11-1.11.16-1.66.08-.84.15-1.68.22-2.52.1-1.26.18-2.53.26-3.78.08-1.12.13-2.24.17-3.35.02-.29.03-.59.03-.88.04-1.1.08-2.18.1-3.27.03-1.24.04-2.47.04-3.71v-.02c0-.99-.01-1.97-.03-2.95ZM1881.48,1150.22c.15-6.94-2.17-8.49-8.64-8.42-29.53.29-59.06.12-88.6.09-2.95-.01-5.88-.25-8.65-.37h-.01v-59.32h99.4v-76.08h-99.46v-57.24h105.27v-75.33h-195.44v343.15h195.96c0-22.67-.29-44.58.17-66.47ZM1563.23,1079.1c13.96-7.56,27.73-13,39.12-21.59,23.34-17.61,32.46-43.18,33.88-71.51,1.95-38.9-9.08-72.42-43.56-94.52-21.98-14.08-46.92-18.34-72.55-18.48-43.58-.25-87.17-.08-130.75-.03-2.15,0-4.3.34-6.41.54v343.29h89.78v-131.38c2.95,4.18,4.44,6.15,5.77,8.23,24.94,39.09,49.93,78.15,74.67,117.36,3.03,4.81,6.33,6.64,12.06,6.59,31.77-.28,63.55-.11,95.32-.14,2.35,0,4.68-.38,8.19-.67-36.06-47.08-71.34-93.12-105.49-137.69ZM1514.66,1023.06c-12.1,3.03-24.89,3.39-37.43,4.49-1.52.13-4.71-2.56-4.72-3.97-.29-26.88-.22-53.77-.22-83.44,15.53,2,29.68,2.4,43.02,5.9,18.85,4.95,28.06,19.44,27.78,39.19-.28,19.21-9.84,33.18-28.43,37.84ZM958.06,667.41c-4.14-80.62-65-150.99-145.28-159.97-51.11-5.72-103.23-2.39-154.9-3.09-.23,0-.46.3-1.31.9v342.68c48.71,0,96.64,2.68,144.16-.57,92.72-6.35,162.08-87.43,157.33-179.96ZM863,697.96c-.11.62-.22,1.24-.33,1.85-.06.37-.14.71-.2,1.07-.08.34-.14.68-.22,1.01-.11.54-.23,1.07-.34,1.6-.55,2.43-1.17,4.83-1.87,7.18-.27.88-.54,1.75-.83,2.62-.28.87-.58,1.73-.88,2.58-.83,2.27-1.72,4.5-2.69,6.65-.63,1.42-1.31,2.81-2.02,4.16-.24.45-.47.9-.71,1.34-.28.53-.57,1.03-.86,1.54-.22.37-.43.73-.65,1.1-.25.43-.52.86-.79,1.29l-.81,1.26c-.42.65-.85,1.28-1.28,1.9-.87,1.25-1.77,2.47-2.71,3.66-.46.6-.94,1.18-1.42,1.76-1.6,1.91-3.29,3.75-5.06,5.5-.58.58-1.17,1.15-1.78,1.7-.49.46-.98.9-1.48,1.34-.8.71-1.61,1.4-2.44,2.07-.56.46-1.13.91-1.7,1.36-.54.42-1.08.83-1.62,1.23-.2.15-.41.29-.61.44-.47.34-.95.68-1.42,1-.24.16-.47.32-.72.49-.43.29-.86.58-1.3.86-1.2.77-2.42,1.53-3.67,2.24-.33.2-.68.4-1.02.59-.71.4-1.42.79-2.14,1.17-.59.31-1.18.61-1.77.91-.02.01-.03.01-.04.02-.45.23-.9.44-1.36.66-.99.48-1.99.94-3.01,1.39-.35.16-.71.31-1.06.46-2.19.93-4.42,1.79-6.69,2.57-.6.2-1.22.41-1.84.6-.63.2-1.27.41-1.9.6-.35.11-.72.22-1.09.32-.09.03-.18.05-.28.09-.62.18-1.26.36-1.89.53-.83.23-1.65.44-2.49.65-.44.11-.88.2-1.32.31-.49.12-1,.24-1.52.34-.14.03-.29.06-.44.1-.58.13-1.16.26-1.75.37-.84.17-1.69.33-2.55.48-.85.16-1.7.3-2.56.43-.13.02-.26.04-.4.06-.67.11-1.33.2-2.01.3-1.94.26-3.89.48-5.85.67-.73.06-1.46.13-2.19.18-.86.06-1.72.12-2.59.17h-.05c-.75.04-1.5.08-2.25.11-.3.01-.61.02-.91.03-7.68.26-15.5-.11-23.3-1.05v-190.91c.6-.06,1.2-.14,1.81-.19.48-.05.97-.1,1.45-.15,1.33-.13,2.66-.24,3.98-.32.94-.06,1.87-.13,2.8-.17.95-.05,1.89-.1,2.84-.13.66-.03,1.31-.04,1.97-.06.45-.01.9-.02,1.36-.02.76-.02,1.52-.02,2.27-.02,1.12,0,2.24.01,3.35.04.1,0,.2,0,.31.01,1.07.02,2.12.05,3.17.11,1,.04,2,.1,3,.17.31.02.63.04.95.08.79.05,1.57.12,2.36.19.19.01.4.03.6.05.93.09,1.86.19,2.79.3.13.01.27.03.41.05,1.04.12,2.08.26,3.11.42,1.07.15,2.13.32,3.18.51h.02c3.17.56,6.26,1.24,9.28,2.02,1.76.46,3.51.96,5.22,1.51.74.23,1.47.47,2.19.72.62.2,1.25.43,1.86.65.82.29,1.62.6,2.43.91.77.3,1.55.62,2.31.95.4.16.8.33,1.19.52.47.19.95.41,1.41.62.33.15.67.31,1,.47.77.36,1.54.72,2.29,1.11.77.39,1.55.8,2.31,1.22.38.2.75.41,1.13.62.25.13.49.27.73.41.55.31,1.1.63,1.64.97.63.37,1.26.75,1.87,1.15.71.45,1.42.91,2.12,1.41.31.19.61.41.93.63.4.27.8.55,1.18.85.27.18.54.38.8.57.71.52,1.4,1.05,2.09,1.6,1.52,1.2,2.98,2.46,4.41,3.77.54.49,1.08,1,1.59,1.51.17.16.33.32.51.49.24.23.46.46.69.7.98.97,1.91,1.97,2.82,2.99.45.49.89,1,1.31,1.52.11.11.2.22.28.32.4.46.77.93,1.14,1.4.51.6.99,1.23,1.45,1.84,1.18,1.57,2.31,3.18,3.39,4.85.63.98,1.25,1.98,1.85,3,.59,1.01,1.17,2.05,1.72,3.11,1.67,3.15,3.15,6.47,4.45,9.91.44,1.14.85,2.3,1.25,3.46,1.19,3.52,2.19,7.13,3.02,10.82.28,1.24.54,2.47.77,3.72.24,1.25.45,2.5.65,3.75.15.95.29,1.89.41,2.85.13.95.25,1.9.36,2.86.13,1.27.25,2.55.35,3.83.13,1.74.23,3.5.29,5.24.02.66.04,1.32.05,1.99.01.8.02,1.6.02,2.41,0,7.06-.59,14.09-1.77,20.91ZM1283.78,537.92c-55.51-47.92-120.54-61.48-190.05-39.27-156.09,49.88-157.32,220.91-74.08,301.89,37.24,36.23,83.01,51.11,144.79,51.24,63.36-1.84,122.33-30.33,156.6-98.22,34.31-67.95,30.71-156.97-37.27-215.64ZM1248.51,678.07c-.24,1.74-.52,3.46-.83,5.17h0c-.15.86-.31,1.71-.49,2.56h0c-.17.85-.36,1.7-.55,2.53-.01.01,0,.01,0,.01-.19.84-.4,1.67-.61,2.5h0c-.22.84-.43,1.67-.67,2.49h0c-.23.83-.46,1.64-.71,2.44h0c-.25.83-.51,1.62-.77,2.43h0c-.26.81-.53,1.6-.82,2.39h0c-.28.8-.57,1.58-.87,2.37h0c-.3.79-.6,1.56-.93,2.32h0c-.31.79-.63,1.55-.97,2.3h0c-.33.76-.67,1.52-1.02,2.27h0c-.34.75-.7,1.5-1.06,2.23h0c-.37.75-.73,1.48-1.12,2.21h0c-.38.73-.76,1.45-1.16,2.16h0c-.4.72-.8,1.43-1.21,2.13-.01,0,0,.01,0,.01-.41.7-.83,1.4-1.26,2.09h0c-.42.7-.85,1.38-1.3,2.05h0c-.43.69-.88,1.36-1.33,2.01-.01.01,0,.01,0,.01-.91,1.33-1.85,2.64-2.82,3.92h0c-.47.65-.97,1.28-1.46,1.9-.01,0,0,.01,0,.01-.99,1.25-2.01,2.46-3.07,3.67h0c-.52.6-1.04,1.19-1.58,1.78h0c-.54.59-1.08,1.17-1.62,1.74-.55.57-1.11,1.13-1.67,1.69-17.88,17.74-42,27.97-68.31,26.68-23.69-1.16-44.99-10.8-61.19-25.89-.56-.53-1.12-1.05-1.67-1.59-19.49-19.03-31.15-46.15-29.97-75.8,1.17-29.34,17.93-55.61,42.14-71.67,1.24-.82,2.5-1.61,3.78-2.39,15.86-9.51,34.54-14.76,53.98-13.89,9.31.42,18.36,2.22,26.94,5.17,1.43.48,2.84,1.01,4.25,1.57,4.21,1.67,8.27,3.6,12.19,5.8,1.3.73,2.59,1.48,3.85,2.27,1.27.79,2.52,1.6,3.74,2.43,1.85,1.26,3.65,2.57,5.4,3.95,2.05,1.6,4.04,3.27,5.95,5.02.54.47,1.05.96,1.56,1.45.82.76,1.6,1.54,2.38,2.33,10.28,10.45,18.08,22.94,22.32,36.42.29.93.57,1.85.83,2.79.26.94.49,1.87.72,2.82s.43,1.89.61,2.84c.1.47.19.96.27,1.43.94,5.31,1.32,10.75,1.09,16.21-.01.26-.03.53-.04.79-.08,1.49-.17,2.97-.3,4.45,0,.08-.01.16-.02.24-.16,1.74-.35,3.46-.58,5.17h0ZM1118.15,1216.89c-.12-.38-.24-.73-.36-1.08-.1-.31-.19-.61-.29-.9-.58-1.82-1.04-3.28-1.64-4.68-23.42-55.22-46.86-110.43-70.28-165.65-11.72-27.62-23.43-55.22-35.12-82.84-11.7-27.62-23.41-55.23-35.09-82.85-.18-.43-.37-.83-.56-1.2-.1-.18-.19-.37-.28-.54-.01-.02-.02-.03-.03-.05-.2-.33-.4-.65-.61-.94-.09-.13-.18-.25-.28-.37-.13-.18-.28-.36-.45-.53-.1-.11-.19-.22-.3-.31-.48-.46-1.01-.84-1.6-1.14-.19-.11-.39-.19-.6-.28-.16-.08-.33-.14-.52-.19-.06-.02-.15-.04-.23-.08-.18-.05-.38-.1-.57-.14-.2-.05-.42-.1-.63-.13-.84-.14-1.75-.19-2.78-.18-5.9.06-11.78.12-17.68.15-11.03.06-22.06.09-33.11,0-5.29-.03-10.58-.1-15.87-.19-.36-.01-.7,0-1.03.01-.17,0-.34.01-.51.02-.18.01-.37.02-.54.04-1.82.16-3.2.65-4.26,1.47-.09.06-.17.14-.26.22-.44.38-.83.83-1.16,1.34-.08.11-.14.22-.2.32-.06.11-.13.22-.19.33s-.12.24-.18.36c-.12.25-.24.49-.34.76-.05.13-.11.27-.16.41-.05.14-.1.28-.15.42-.05.15-.1.3-.15.45-.04.15-.1.3-.14.46-.04.15-.09.31-.14.47-.05.16-.1.33-.14.51-3.53,13.74-7.09,27.46-10.65,41.18-3.56,13.73-7.14,27.45-10.73,41.17-3.58,13.73-7.18,27.44-10.77,41.16-3.59,13.72-7.19,27.43-10.79,41.15-.74,2.84-1.9,5.56-3.63,10.52-17.87-62.31-35.09-122.34-52.3-182.35h-129.74v343.69h97.62c-1.76-65.21-3.52-129.86-5.27-194.5.17.17.34.36.49.54.11.11.19.22.28.32,1.89,2.26,2.71,4.75,3.5,7.27,4.66,14.94,9.32,29.89,13.97,44.83,3.5,11.21,6.99,22.41,10.48,33.62,6.98,22.42,13.95,44.84,20.9,67.26,1.16,3.74,2.32,7.49,3.47,11.23,2.31,7.48,4.62,14.94,6.92,22.42.11.34.22.68.33,1,.2.58.42,1.12.65,1.61.13.27.25.52.39.75.14.28.3.53.45.77.16.25.33.47.51.69s.36.42.54.61c.17.18.36.36.55.51.15.13.31.25.48.37.09.06.18.12.28.17.13.09.25.15.39.23.04.02.1.04.14.06.15.09.31.15.47.22.33.15.69.26,1.05.37.23.05.45.11.69.15.17.03.34.06.53.09,0,0,.01.01.02,0,.16.02.33.04.51.06.06.01.13.02.18.02.31.03.65.05.98.06.44.01.89.01,1.38,0,15.73-.47,31.5-.3,47.24-.11.32,0,.63,0,.94-.01.19,0,.39-.01.57-.02.38-.01.73-.04,1.07-.1.12-.02.23-.03.33-.05.24-.03.45-.09.67-.14.15-.04.3-.09.45-.13.03-.01.08-.03.11-.04.14-.05.28-.1.41-.16.14-.06.27-.13.39-.19,1.11-.6,1.94-1.58,2.55-3.13.05-.12.1-.24.14-.37.18-.49.34-1.05.49-1.67,11.03-46.16,22.38-92.24,33.65-138.35,1.02-4.18,2.05-8.38,3.09-12.6.84-3.4,1.68-6.83,2.54-10.28,2.44-9.95,4.97-20.19,7.66-31.1,1.91,4.04,2.96,5.93,3.72,7.91,11.06,28.63,22.14,57.24,33.18,85.87,3.69,9.54,7.36,19.08,11.04,28.63,5.88,15.28,11.75,30.55,17.59,45.84,2.92,7.64,5.83,15.29,8.75,22.94.06.18.14.36.22.53.2.52.42.99.65,1.43.23.43.45.83.68,1.19.11.15.2.3.3.44.15.22.31.43.48.62.09.11.17.2.27.3.87.96,1.88,1.6,3.08,2.02.15.05.31.11.46.15,0,0,.01.01.02.01.26.08.52.14.79.19.02,0,.03.01.04.01.13.02.25.04.38.06,1.05.19,2.24.26,3.56.25,12.23-.1,24.47-.13,36.71-.14,19.03-.03,38.07,0,57.1.01h13.07c-.06-.19-.13-.39-.18-.57ZM944.41,199.12c-.05-.14-.12-.27-.18-.39-.34-.6-.7-1.2-1.05-1.8-.37-.6-.74-1.18-1.13-1.78-.42-.63-.84-1.26-1.28-1.88-.44-.62-.88-1.24-1.34-1.85-.49-.66-1-1.3-1.52-1.95-.38-.47-.75-.94-1.14-1.39-.19-.24-.4-.46-.59-.69-1.26-1.45-2.57-2.85-3.93-4.2-.31-.32-.63-.63-.97-.95-.34-.33-.69-.67-1.04-.99-5-4.63-11.38-7.78-17.82-12.01h-.01c.45-.82.9-1.64,1.36-2.45,4.94-8.93,9.68-17.33,14.15-25.7,1.62-3.04,3.21-6.09,4.74-9.16.66-1.29.41-3.04.03-4.85-.01-.04-.01-.08-.02-.11-.06-.3-.14-.6-.2-.9-.15-.65-.3-1.3-.42-1.95-.03-.19-.06-.39-.1-.57-.03-.19-.05-.38-.08-.56-1.61.7-3.56,1.14-5.23,1.81-.17.06-.33.13-.49.2-.16.08-.31.14-.46.23-.16.08-.3.15-.45.24-.43.25-.82.54-1.15.87-.12.12-.23.24-.33.37-.3.39-.6.77-.89,1.17-.08.1-.15.2-.23.3-.32.43-.65.86-.96,1.3-1.37,1.87-2.68,3.79-3.97,5.71-.32.48-.65.97-.97,1.44-1.3,1.94-2.58,3.87-3.89,5.79-.48.71-.98,1.42-1.47,2.12-.34.47-.68.95-1.03,1.42-.2.28-.41.56-.62.84-.28.39-.58.77-.87,1.16-.38.48-.75.97-1.14,1.44-.49.61-.99,1.24-1.47,1.86-.48.62-.97,1.26-1.46,1.89-4.68,6.1-9.34,12.51-14.94,17.29-.23.19-.44.38-.67.55-.27.23-.53.44-.8.63-1.07.83-2.17,1.59-3.31,2.29-.47.29-.94.58-1.39.88-.45.29-.89.59-1.32.9-.4.28-.77.56-1.15.84-.04.02-.08.05-.11.09-.37.28-.72.56-1.07.84-.43.36-.85.72-1.26,1.09-.37.32-.72.66-1.07,1-.28.27-.55.54-.81.81-.16.16-.32.33-.48.51-.56.6-1.1,1.22-1.6,1.84-.26.32-.52.63-.76.96-.09.12-.17.23-.26.34-.48.65-.94,1.3-1.38,1.97-.38.56-.73,1.13-1.07,1.7-.27.44-.52.88-.77,1.33-.04.09-.09.17-.13.26-.3.54-.59,1.1-.87,1.66-.3.61-.6,1.23-.88,1.86-.29.63-.57,1.27-.84,1.91-.83,1.94-1.59,3.96-2.33,6.06-1.03,2.9-2.11,5.8-3.26,8.65-.46,1.14-.94,2.27-1.42,3.39-.5,1.13-.99,2.24-1.51,3.35-.52,1.11-1.05,2.21-1.6,3.29-.83,1.62-1.69,3.23-2.6,4.8-.39.66-.77,1.31-1.17,1.96-.15.25-.3.49-.46.74-.4.65-.82,1.28-1.24,1.91-.67,1-1.37,1.98-2.09,2.96-.54.73-1.1,1.44-1.67,2.15-.28.34-.57.7-.86,1.04-.86,1.03-1.76,2.04-2.72,3.03-.2.23-.42.45-.65.68-3.4,3.5-7.27,6.63-11.73,9.33-23.3,14.13-46.94,27.69-70.39,41.55-23.7,14.01-45.45,30.12-60.07,54.26-1.32,2.18-4.68,3.95-7.35,4.37-19.34,3.09-38.1,8.33-54.52,19.01-16.91,11.01-32.94,23.39-49.02,35.61-3.98,3.02-7.5,6.28-11.62,6.05-.28-.02-.56-.05-.84-.1-.14-.02-.28-.05-.43-.09-.22-.05-.43-.11-.66-.18-.22-.06-.43-.15-.66-.24-.3-.13-.6-.27-.9-.42-.16-.09-.31-.17-.47-.27-.3-.18-.61-.39-.94-.6-.12-.09-.25-.18-.38-.28-.13-.1-.25-.19-.38-.3-.4-.31-.81-.67-1.22-1.05-.76-.72-1.88-1.13-3.12-1.38-.23-.04-.45-.09-.69-.12-.03-.01-.08-.02-.12-.02-.27-.04-.54-.08-.82-.11-.38-.04-.74-.08-1.12-.11-.74-.06-1.48-.12-2.17-.19-5.87-.6-11.82-.55-17.64-1.42-.38-.05-.73-.12-1.08-.18-.42-.08-.84-.17-1.23-.26-.25-.06-.47-.13-.7-.19-.9-.26-1.7-.57-2.39-.91-.16-.09-.32-.17-.47-.27-.06-.03-.12-.08-.18-.11-.19-.12-.38-.25-.55-.38-.18-.14-.36-.28-.52-.43-.31-.3-.58-.61-.82-.95-.22-.32-.39-.66-.52-1.01,0-.02-.01-.04-.02-.06-.14-.38-.24-.79-.27-1.2-.13-1.08.05-2.29.52-3.65.1-.27.2-.55.31-.84.23-.56.51-1.15.83-1.76.16-.31.33-.62.52-.94,14.27-24.79,18.75-51.64,15.93-79.69-.46-4.56-1.24-9.03-2.37-13.37-.25-.96-.52-1.91-.81-2.86-.72-2.38-1.55-4.71-2.51-6.99-.38-.91-.79-1.82-1.21-2.71-.2-.45-.42-.89-.65-1.33-.16-.34-.33-.68-.51-1-.19-.39-.4-.76-.61-1.15-.34-.65-.7-1.27-1.07-1.89-.23-.4-.46-.79-.7-1.16-.26-.43-.53-.85-.8-1.27s-.55-.84-.83-1.26c-.29-.41-.57-.83-.87-1.24-.29-.41-.59-.82-.89-1.22-.3-.41-.61-.81-.93-1.2-.32-.4-.63-.8-.97-1.19-.66-.79-1.32-1.56-2.02-2.32-.35-.39-.71-.76-1.06-1.14h-.01c-.24-.26-.47-.51-.71-.74-.42-.43-.84-.85-1.27-1.26-.05-.06-.12-.12-.17-.17-.37-.36-.73-.7-1.1-1.04-1.6-1.5-3.26-2.88-4.98-4.13-.27-.19-.54-.39-.81-.57s-.54-.37-.81-.55c-3.87-2.57-8.09-4.42-12.78-5.17-.22-.03-.43-.06-.65-.1-.33-.04-.67-.09-1-.12-.31-.03-.63-.06-.96-.09h-.11c-.3-.03-.6-.04-.9-.05-1.82-.06-3.71.03-5.68.31-3.49.49-6.86,1.16-10.1,2.02-.43.11-.85.23-1.28.36-.46.13-.91.26-1.37.39-.62.19-1.25.39-1.86.59,0,.01-.01,0-.01,0-1.31.43-2.59.9-3.85,1.41-.63.26-1.26.52-1.88.79-1.23.53-2.43,1.11-3.61,1.72h-.01c-1.17.6-2.32,1.25-3.45,1.94-.01.01-.01,0-.01,0-.57.34-1.12.7-1.67,1.05-.55.37-1.09.73-1.62,1.11-.54.38-1.07.76-1.58,1.16-.48.37-.96.74-1.43,1.13-.06.05-.13.12-.2.16-.43.37-.86.73-1.28,1.11-.05.04-.11.09-.16.14-.47.42-.94.85-1.4,1.29-.47.45-.95.91-1.4,1.39-.46.47-.91.96-1.36,1.45-.89.99-1.74,2.01-2.56,3.09-.82,1.07-1.6,2.18-2.36,3.33-.76,1.15-1.47,2.35-2.15,3.57-.68,1.24-1.32,2.52-1.94,3.84-.61,1.31-1.18,2.68-1.72,4.09-.62,1.66-1.22,3.31-1.75,4.96-.56,1.66-1.07,3.3-1.53,4.95-.24.82-.45,1.64-.68,2.45,0,0,.01,0,0,.01-.43,1.64-.82,3.27-1.16,4.91-.35,1.62-.66,3.25-.93,4.87h0c-.27,1.64-.51,3.26-.69,4.87-.09.73-.16,1.46-.24,2.19-.02.17-.03.36-.04.54-.37,3.81-.49,7.6-.41,11.36.01,1.36.08,2.71.16,4.06.04.67.09,1.33.14,2v.08c.12,1.33.25,2.67.41,3.99.16,1.34.34,2.69.57,4.02.1.6.2,1.19.31,1.8.01.12.03.23.06.34.11.61.23,1.23.35,1.84-.01.02,0,.04.01.06.12.61.25,1.23.39,1.83.03.17.06.33.11.49.12.54.25,1.08.38,1.61.31,1.32.66,2.66,1.04,3.97.16.59.34,1.19.52,1.79.03.1.05.19.09.28.19.62.39,1.24.58,1.86,0,.01.01.03.02.05.2.65.42,1.29.65,1.93.23.66.45,1.31.69,1.97.47,1.3.97,2.6,1.5,3.91.26.61.51,1.23.76,1.84.14.32.27.65.41.96.68,1.58,1.4,3.15,2.16,4.72.04.08.08.16.12.24.61,1.28,1.26,2.57,1.95,3.85.33.63.68,1.28,1.02,1.91.36.63.71,1.28,1.07,1.91,1.08,1.9,2.21,3.81,3.41,5.7.39.63.79,1.26,1.19,1.89.43.66.87,1.31,1.32,1.96h.01c.89,1.3,1.81,2.57,2.7,3.8.45.62.88,1.24,1.31,1.84-11.75.61-22.58,1.34-33.42,1.65-3.65.11-8.36.4-10.82-1.59-10.65-8.6-21.7-17.08-30.69-27.29-19.28-21.88-40.96-39.14-70.39-44.8-.24-.04-.48-.11-.73-.17-.14-.04-.28-.09-.42-.13-.3-.1-.6-.22-.9-.34-.17-.06-.35-.15-.53-.24-.32-.15-.65-.32-.96-.52-.03-.01-.06-.03-.1-.05-.16-.09-.31-.18-.46-.29-.32-.2-.63-.43-.94-.68-.14-.11-.28-.22-.41-.33-.3-.27-.57-.54-.82-.81-.37-.4-.68-.82-.93-1.25-.43-.75-.86-1.52-1.3-2.26-.33-.59-.68-1.16-1.03-1.74-.53-.91-1.08-1.82-1.65-2.72-.91-1.47-1.84-2.93-2.79-4.37-.4-.61-.81-1.23-1.22-1.84-.14-.23-.29-.45-.45-.67-.38-.57-.77-1.14-1.16-1.71-1.15-1.67-2.32-3.32-3.52-4.95-.97-1.32-1.96-2.65-2.95-3.95-.09-.11-.16-.22-.26-.32-.99-1.3-2-2.58-3.02-3.86-.98-1.22-1.96-2.42-2.96-3.63,0-.01-.01-.02-.03-.03-.99-1.19-1.99-2.38-3-3.55-1.02-1.18-2.04-2.37-3.09-3.53-1.03-1.16-2.09-2.32-3.14-3.47-1.05-1.15-2.12-2.29-3.2-3.43-.09-.11-.19-.2-.29-.31-.98-1.03-1.96-2.05-2.95-3.07-2.17-2.25-4.38-4.46-6.62-6.66-1.12-1.1-2.24-2.18-3.37-3.27-.91-.88-1.83-1.75-2.74-2.61-7.05-6.69-14.3-13.19-21.61-19.62-18.16-15.96-36.52-31.74-53.82-48.59-5.62-5.48-9.42-13.74-11.69-21.43-1.96-6.63-.47-14.25-.63-21.43-.32-14.79-4.45-25.98-21.92-28.25-7.46-.97-12.83-8.55-21.84.67-5.54,5.67-8.22,13.55-15.02,17.98h-.01c-.88.57-.27,3.24-.63,4.87-.28,1.2-.52,2.45-.84,3.67-.14.53-.3,1.05-.47,1.57-.04.12-.09.24-.13.37-.16.44-.34.87-.55,1.29-.04.09-.08.16-.12.25-.4.77-.74,1.56-1.03,2.36-.14.4-.28.8-.4,1.19-.12.4-.23.8-.32,1.19s-.18.8-.26,1.19c-.06.4-.13.81-.17,1.2s-.09.8-.11,1.2c-.08,1.12-.04,2.24.08,3.35.03.24.05.47.09.71.03.24.08.47.11.71.08.41.16.82.25,1.23.02.05.03.12.04.17.22.94.51,1.85.85,2.74.09.23.17.45.27.68.1.23.19.44.29.67.1.22.2.44.31.66.1.22.22.43.32.65.12.22.23.43.35.65.12.22.24.42.37.63,1.14,1.88,2.54,3.64,4.17,5.23.04.05.1.1.15.14.31.31.65.61.98.9.77.67,1.58,1.29,2.43,1.88.79.55,1.57,1.09,2.37,1.65,1.58,1.09,3.17,2.18,4.76,3.31.8.54,1.58,1.11,2.38,1.68,1.13.79,2.25,1.59,3.36,2.41,1.11.8,2.21,1.61,3.29,2.43,1.73,1.29,3.43,2.62,5.11,3.97.54.44,1.08.88,1.61,1.33.59.48,1.17.98,1.75,1.48.54.45,1.07.91,1.58,1.38.47.42.94.84,1.39,1.25.77.72,1.55,1.44,2.3,2.18.63.61,1.26,1.24,1.87,1.87.67.68,1.32,1.37,1.96,2.07.65.7,1.27,1.41,1.88,2.12,1.05,1.23,2.09,2.46,3.11,3.71.96,1.16,1.91,2.32,2.84,3.51.09.1.16.18.22.28.79.97,1.55,1.95,2.3,2.93.49.62.98,1.25,1.44,1.88.38.47.74.95,1.1,1.43.48.62.96,1.26,1.43,1.9,4.81,6.45,9.4,13.07,13.93,19.75,1.18,1.74,2.36,3.5,3.53,5.25,3.13,4.67,6.24,9.35,9.36,14.01,1.12,1.67,2.23,3.35,3.34,5.02.97,1.46,1.91,2.93,2.86,4.39,1.03,1.57,2.04,3.15,3.06,4.73,1.02,1.58,2.03,3.17,3.03,4.75,6.04,9.52,12,19.11,18.12,28.57,1.02,1.57,2.04,3.15,3.07,4.72,2.05,3.14,4.13,6.26,6.25,9.36,1.27,1.86,2.55,3.72,3.83,5.56.69.98,1.38,1.96,2.08,2.94.27.38.54.75.81,1.13,1,1.4,2,2.79,3.02,4.16,13.89,18.86,29.68,36.28,43.56,55.36,15.8,21.72,35.1,40.89,52.74,61.3,2.1,2.42,4.67,5.68,4.63,8.52-.01.44-.01.89-.01,1.33,0,.76.01,1.53.03,2.29.01.67.03,1.32.06,1.99h0c.01.34.03.68.05,1.01.06,1.3.16,2.59.29,3.87.06.71.14,1.42.23,2.12.01.11.02.22.03.32.08.69.17,1.38.27,2.07.09.66.18,1.3.29,1.95.37,2.32.81,4.62,1.32,6.9.32,1.45.68,2.89,1.07,4.34.57,2.15,1.21,4.29,1.88,6.42.23.71.46,1.41.7,2.12.24.7.48,1.4.73,2.11.25.7.51,1.4.76,2.1.52,1.39,1.05,2.78,1.61,4.16,1.67,4.15,3.51,8.24,5.44,12.31.52,1.09,1.04,2.17,1.59,3.25,1.45,2.96,2.97,5.91,4.51,8.83.6,1.14,1.18,2.28,1.73,3.42.29.58.57,1.16.84,1.73.27.56.54,1.12.79,1.68,1.3,2.83,2.5,5.69,3.59,8.57.26.66.51,1.32.74,1.99.27.7.52,1.4.75,2.1.22.6.42,1.2.62,1.82,1.36,4.02,2.54,8.08,3.57,12.18.62,2.45,1.19,4.93,1.72,7.4.17.83.34,1.66.51,2.49.25,1.25.48,2.49.71,3.73.22,1.25.43,2.51.65,3.75.27,1.67.53,3.35.76,5.02s.46,3.36.68,5.05c.2,1.69.4,3.38.58,5.07.14,1.27.27,2.54.39,3.82.15,1.5.28,2.99.41,4.5.13,1.47.25,2.96.35,4.43,3.07,40.9-3.81,80.6-14.91,119.79-4.4,15.52-9.23,30.94-13.91,46.4-.65,2.12-1.28,4.25-1.91,6.38-.75,2.51-1.51,5.02-2.24,7.54-.37,1.26-.73,2.52-1.1,3.78-.37,1.24-.72,2.47-1.07,3.72-.18.6-.34,1.2-.52,1.81-.44,1.55-.87,3.11-1.3,4.66-.43,1.56-.86,3.11-1.27,4.67-.37,1.37-.73,2.72-1.1,4.09-.33,1.27-.66,2.54-.98,3.81-.33,1.27-.65,2.54-.96,3.81-.63,2.54-1.25,5.09-1.84,7.64-.68,2.95-1.33,5.9-1.95,8.85-.33,1.57-.66,3.15-.97,4.73-.26,1.28-.51,2.55-.73,3.83-.37,1.89-.7,3.79-1.03,5.69-.55,3.18-1.04,6.37-1.5,9.57-.45,3.21-.86,6.42-1.22,9.65s-.66,6.45-.9,9.7c-.19,2.55-.4,5.12-.6,7.7-.26,3.35-.53,6.71-.74,10.08-.05.85-.11,1.7-.14,2.55-.05,1.08-.11,2.16-.16,3.24-.01.44-.03.87-.05,1.3-.03,1.1-.05,2.18-.08,3.27-.02.97-.03,1.94-.03,2.89,0,8.62.72,17.08,2.93,25.03.49,1.79.98,3.58,1.45,5.38.04.15.08.3.12.45.43,1.65.86,3.3,1.27,4.96,3.06,12.23,5.58,24.52,7.84,36.85.24,1.33.48,2.66.72,3.98.53,2.94,1.03,5.87,1.53,8.82.31,1.84.62,3.68.93,5.53.62,3.69,1.22,7.37,1.81,11.07.58,3.69,1.17,7.39,1.75,11.09.3,1.98.61,3.95.93,5.93.61,3.93,1.29,7.85,2.02,11.78.48,2.61,1,5.23,1.53,7.83.35,1.71.71,3.42,1.09,5.13.05.25.11.48.16.71.28,1.33.58,2.67.89,4,.57,2.44,1.15,4.88,1.75,7.3.29,1.18.6,2.37.9,3.54,1.07,4.08,2.18,8.13,3.38,12.16.34,1.17.69,2.35,1.05,3.51.12.41.25.82.38,1.23.49,1.62,1.01,3.24,1.54,4.85,5.94,18.23,14.35,21.31,33.21,17.47,6.87-1.4,13.78-2.64,20.72-3.69,1.15-.17,2.19-.25,3.12-.18.15,0,.3.02.44.04.14,0,.28.02.41.05.17.01.33.04.49.1.02-.01.04,0,.06.01.17.03.34.09.51.15.03,0,.06.01.09.03.17.05.33.12.48.2,0,0,.01-.01.01,0,.17.08.34.17.49.28.15.1.29.2.43.32.01,0,.01.01.01.01.14.12.28.26.4.4.38.42.68.94.93,1.55.15.4.27.85.37,1.34.04.25.09.51.12.77.09.79.12,1.67.08,2.66-.05,1.27-.1,2.55-.14,3.82-.09,2.27-.17,4.54-.25,6.82-.12,3.23-.22,6.47-.31,9.69-.03,1.51-.08,3-.11,4.51-.04,1.78-.09,3.56-.12,5.35-.04,2.01-.08,4.02-.1,6.04-.08,5.58-.1,11.17-.08,16.75,0,1.44.02,2.88.03,4.32.01.67.02,1.34.04,2.01.02.68.03,1.34.05,2.01.03.67.05,1.33.09,2,.03.67.06,1.33.11,1.99.04.67.09,1.32.14,1.98.05.67.11,1.32.17,1.98.12,1.23.25,2.45.4,3.67.02.11.03.2.04.3.16,1.28.34,2.55.57,3.81.11.63.23,1.27.34,1.9.37,1.9.79,3.79,1.3,5.65.14.54.29,1.08.45,1.61.06.25.14.51.23.75.13.44.27.88.41,1.32.19.61.4,1.22.61,1.82.65,1.81,1.37,3.58,2.16,5.34.54,1.16,1.11,2.31,1.72,3.45.3.55.61,1.11.94,1.65.34.6.7,1.18,1.07,1.76.31.51.63,1,.97,1.5.08.11.15.22.22.31.32.47.65.94.99,1.4.01.02.02.04.03.05.39.53.77,1.05,1.18,1.57,2.08,2.65,4.42,5.19,7.1,7.61,1.1,1,2.17,1.83,3.22,2.49.14.09.27.17.41.25.16.1.31.18.46.27.28.15.56.29.84.42.02.01.03.02.04.02.27.13.54.24.8.33.01,0,.02.01.03.01.27.11.54.19.81.27.03.01.05.02.09.02.26.06.53.13.79.17.27.05.54.1.8.12.82.08,1.61.02,2.4-.16.14-.03.28-.06.41-.11.15-.04.3-.09.44-.14.15-.04.3-.11.45-.17.24-.11.47-.22.71-.34.24-.12.46-.26.69-.41.16-.1.32-.2.48-.34.14-.08.27-.18.4-.29.32-.26.65-.54.97-.86l.42-.42c.82-.87,1.61-1.89,2.41-3.11.49-.75.96-1.53,1.41-2.32.23-.4.44-.81.65-1.22.17-.32.33-.65.48-.98.25-.49.48-.99.7-1.5.28-.62.55-1.26.8-1.89.26-.63.49-1.27.72-1.91.76-2.12,1.45-4.25,2.08-6.38.17-.57.33-1.14.49-1.72.15-.54.3-1.09.44-1.62.14-.55.28-1.09.42-1.64.45-1.79.85-3.58,1.23-5.38.25-1.26.49-2.51.72-3.77.33-1.89.63-3.78.89-5.67.11-.79.22-1.58.31-2.38.3-2.37.55-4.75.75-7.13.11-1.27.2-2.55.29-3.82.04-.63.09-1.28.13-1.91.08-1.28.14-2.55.19-3.83.25-5.67.32-11.35.3-17.04-.01-2.62-.08-5.25-.16-7.87-.1-2.61-.22-5.24-.32-7.85-.35-8-.7-16-.24-24.02.04-.7.09-1.39.14-2.08.11-1.4.24-2.78.4-4.17.08-.69.16-1.38.26-2.08.25-1.85.56-3.7.94-5.55.11-.52.2-1.02.3-1.54.1-.51.18-1,.26-1.5.16-.99.29-1.96.4-2.92.71-6.35.24-11.8-1.46-16.62-.26-.74-.55-1.47-.87-2.19h-.01c-.27-.6-.55-1.19-.86-1.76-.13-.25-.27-.49-.41-.74-.53-.9-1.1-1.79-1.72-2.65-.24-.33-.48-.66-.74-.98-.76-.96-1.59-1.89-2.49-2.81-.3-.31-.6-.61-.91-.91-.22-.2-.43-.41-.66-.61s-.45-.41-.69-.61c-.23-.19-.46-.4-.7-.6-1.19-1-2.47-1.98-3.85-2.93-.28-.19-.56-.38-.84-.57-1.98-1.33-4.14-2.61-6.49-3.88-1.11-.6-2.22-1.2-3.32-1.82-5.52-3.07-10.93-6.33-16.22-9.76-.38-.25-.74-.51-1.1-.76-.14-.11-.28-.22-.41-.32-.33-.26-.66-.54-.96-.82-.15-.14-.29-.28-.43-.42-.17-.17-.34-.36-.52-.54-.16-.18-.32-.37-.48-.55-.62-.74-1.15-1.53-1.61-2.36-.12-.22-.23-.42-.33-.63-.13-.27-.26-.54-.37-.81-.11-.23-.2-.46-.29-.7-.44-1.15-.76-2.38-1-3.67-.05-.3-.1-.61-.14-.93-.02-.1-.03-.19-.04-.28-.04-.35-.09-.71-.12-1.08-.04-.42-.09-.85-.1-1.29-.03-.44-.05-.89-.06-1.34-.04-2.09-.05-4.16-.02-6.23v-.11c0-.72.02-1.44.04-2.16,0-.09,0-.17.01-.26.09-3.75.29-7.48.61-11.19.04-.69.11-1.37.17-2.04.02-.2.04-.4.06-.6.12-1.38.27-2.74.43-4.12.16-1.5.34-2.99.55-4.49.11-.75.2-1.5.31-2.25.2-1.5.43-2.99.68-4.48.11-.74.24-1.48.37-2.23.12-.74.25-1.5.38-2.24.26-1.48.54-2.97.82-4.45.69-3.61,1.44-7.23,2.24-10.82.15-.7.31-1.4.47-2.1,1.19-5.3,2.48-10.59,3.82-15.87.28-1.1.56-2.19.83-3.29.54-2.21,1.08-4.41,1.61-6.63.27-1.11.54-2.23.8-3.33,1.15-4.87,2.29-9.81,3.44-14.86,2-8.81,4.04-17.97,6.32-27.77,5.79,10.09,11.08,17.91,14.97,26.38.37.79.72,1.58,1.05,2.37.36.79.69,1.57,1.01,2.37.24.57.46,1.13.69,1.7.19.48.39.97.57,1.45.17.43.33.85.48,1.28.22.56.42,1.12.62,1.69.18.52.38,1.04.55,1.56.15.43.3.86.44,1.3.17.47.33.96.47,1.43.24.73.47,1.46.7,2.19.53,1.69,1.02,3.39,1.5,5.09.46,1.7.91,3.41,1.33,5.12.2.86.41,1.71.61,2.57.19.86.39,1.72.58,2.58.75,3.44,1.42,6.91,2.03,10.39.3,1.74.59,3.49.87,5.23.55,3.49,1.04,6.99,1.52,10.5.26,1.87.51,3.75.73,5.65.31,2.44.61,4.88.9,7.33.3,2.54.6,5.08.91,7.62.39,3.21.76,6.41,1.14,9.62.19,1.6.38,3.22.56,4.82.38,3.21.75,6.41,1.13,9.62,1.27,10.8,2.6,21.59,4.23,32.33.13.83.26,1.65.39,2.47.18,1.19.37,2.39.57,3.58.24,1.5.49,2.98.74,4.46.04.24.09.47.13.7.25,1.46.52,2.92.79,4.37.29,1.58.59,3.16.9,4.74,3,15.18,5.83,28.57-.13,44.34-.31.83-.6,1.67-.87,2.51-.24.74-.45,1.5-.66,2.25-.05.19-.11.39-.15.59-.17.65-.32,1.29-.46,1.94-.13.59-.26,1.18-.37,1.79-.19,1.11-.37,2.22-.49,3.33-.52,4.15-.59,8.36-.36,12.59.09,1.51.2,3.01.37,4.52.63,6.02,1.81,12.08,3.16,18.06.67,2.98,1.39,5.96,2.11,8.91,5.26,21.49,8.12,42.89,7.22,64.35-.08,1.76-.18,3.53-.3,5.29-.19,2.65-.44,5.3-.75,7.95-.26,2.33-.58,4.66-.96,6.99-.11.74-.23,1.47-.36,2.22-.4,2.31-.84,4.63-1.34,6.94-.18.88-.38,1.78-.59,2.67-.71,3.09-1.52,6.18-2.41,9.27-6.4,22.06-11.82,44.53-15.8,67.14-5.77,32.7,1.1,62.58,24.72,87.35,7.75,8.11,15.22,7.91,22.75-.77,1.5-1.72,2.9-3.5,4.23-5.29.66-.9,1.3-1.81,1.91-2.73,1.55-2.3,2.97-4.66,4.25-7.06.33-.63.67-1.27.99-1.9.63-1.28,1.25-2.57,1.82-3.87.03-.03.04-.06.05-.11.27-.62.54-1.25.8-1.87,2.72-6.61,4.65-13.57,5.93-20.83.25-1.45.47-2.92.68-4.39.09-.63.17-1.26.25-1.88.08-.63.15-1.27.22-1.89.08-.62.14-1.26.19-1.89.15-1.52.27-3.03.37-4.55.03-.49.06-1,.09-1.5.03-.52.05-1.04.08-1.56.01-.33.03-.68.03-1.02.03-.75.05-1.51.06-2.26.03-1.18.04-2.37.04-3.54s-.01-2.28-.03-3.42c-.02-1.04-.05-2.1-.09-3.14-.05-1.39-.12-2.76-.2-4.15-.04-.85-.1-1.69-.15-2.54-.09-1.28-.18-2.57-.3-3.85-.09-1.08-.18-2.14-.29-3.22-.44-4.62-1.01-9.22-1.66-13.82-.45-3.24-.94-6.49-1.44-9.73-.54-3.55-1.11-7.09-1.68-10.63-.29-1.84-.58-3.67-.85-5.5-.28-1.83-.54-3.66-.79-5.49s-.48-3.66-.7-5.49c-1.65-13.8-2.37-27.51-1.19-41.07.1-1.15.2-2.3.33-3.44.39-3.44.89-6.87,1.55-10.3.43-2.28.94-4.56,1.51-6.83.28-1.14.58-2.27.9-3.4.16-.57.32-1.13.49-1.7.32-1.13.69-2.26,1.07-3.4t0-.01c.38-1.13.76-2.25,1.18-3.38,1.02-2.82,2.17-5.64,3.45-8.44,1.05-2.3,2.05-4.63,3-6.95.31-.79.62-1.56.93-2.33,1.83-4.67,3.44-9.38,4.86-14.13.47-1.58.93-3.16,1.36-4.76.22-.8.42-1.59.62-2.39s.41-1.59.6-2.39c.84-3.42,1.58-6.87,2.23-10.34.34-1.84.67-3.68.97-5.53.3-1.86.57-3.72.82-5.58.51-3.72.9-7.47,1.23-11.22.84-9.79,1.09-19.7.86-29.69-.4-17.41-.89-34.82-.82-52.22,0-.86.01-1.73.01-2.59.01-1.17.02-2.36.04-3.53.02-1.64.04-3.28.08-4.92h0c.03-1.65.08-3.28.13-4.92.04-1.64.1-3.27.16-4.91.05-1.64.13-3.28.2-4.92.16-3.27.34-6.54.58-9.81.23-3.27.48-6.54.8-9.81.45-4.89,1.01-9.79,1.68-14.68.23-1.62.45-3.26.71-4.88.48-3.26,1.03-6.51,1.64-9.77.33-1.82.69-3.64,1.04-5.45.34-1.82.71-3.64,1.09-5.45.32-1.65.66-3.28,1.01-4.92,1.93-9.25,3.99-18.47,6.04-27.69,1.73-7.79,5.31-15.42,5.65-23.23.22-4.94.39-9.89.53-14.82.03-1.13.06-2.27.09-3.41.04-1.43.08-2.86.11-4.29.04-1.58.08-3.15.1-4.72.06-3.27.12-6.54.15-9.81.13-11.26.14-22.53.1-33.79-.02-5.72-.13-11.42-.31-17.12-.1-2.85-.22-5.7-.36-8.54-.06-1.42-.14-2.84-.23-4.26-.17-2.84-.36-5.67-.56-8.5-.11-1.42-.22-2.84-.33-4.25-.24-2.83-.49-5.66-.77-8.48-.14-1.41-.29-2.82-.44-4.23-.77-7.05-1.7-14.07-2.79-21.07-.44-2.8-.9-5.59-1.39-8.39-.49-2.79-1.01-5.58-1.56-8.37-.47-2.43-.98-4.86-1.51-7.29-.23-1.04-.45-2.09-.68-3.12-.24-1.04-.47-2.09-.71-3.12-.87-3.82-1.81-7.62-2.81-11.41-.72-2.76-1.47-5.52-2.26-8.27-.77-2.75-1.59-5.5-2.44-8.24-1.07-3.44-2.07-7.11-2.02-10.66.5-44.33,6.24-87.97,19-130.47.38-1.26.76-2.52,1.16-3.78.23-.75.46-1.51.71-2.26,1.32-4.24,2.73-8.44,4.2-12.61.37-1.02.73-2.04,1.1-3.06.37-1.02.74-2.03,1.12-3.04.85-2.3,1.72-4.59,2.62-6.87.29-.73.58-1.46.87-2.18.47-1.19.96-2.39,1.45-3.57.54-1.3,1.08-2.58,1.62-3.86.83-1.94,1.68-3.86,2.54-5.78.44-.99.89-1.98,1.34-2.95,1.5-3.26,3.06-6.49,4.66-9.68.57-1.14,1.15-2.27,1.73-3.4.01-.03.03-.08.05-.11.37-.71.73-1.41,1.11-2.11,1.39-2.65,2.83-5.28,4.3-7.9.55-.97,1.1-1.94,1.66-2.89.25-.43.51-.86.75-1.29.67-1.15,1.36-2.3,2.04-3.44.11-.17.22-.36.32-.53.77-1.29,1.56-2.56,2.37-3.84.03-.04.06-.09.09-.14.84-1.32,1.68-2.66,2.55-3.97.88-1.37,1.79-2.72,2.7-4.07.01,0,0-.01,0-.01,5.48-8.09,11.39-15.93,17.79-23.5,2.12-2.52,4.3-5.01,6.55-7.47,1.08-1.19,2.17-2.38,3.29-3.55.06-.08.14-.15.22-.24,1.11-1.17,2.23-2.33,3.37-3.5,1.17-1.2,2.36-2.39,3.55-3.56h.01c2.5-2.45,5.13-4.77,7.83-7.01.56-.46,1.12-.93,1.68-1.39.66-.54,1.31-1.07,1.98-1.6,4.73-3.81,9.55-7.52,14.06-11.5.54-.47,1.08-.96,1.6-1.44.47-.43.94-.86,1.4-1.3.06-.05.13-.11.18-.17.22-.19.42-.39.62-.59.48-.47.96-.94,1.42-1.41,1.34-1.37,2.64-2.76,3.87-4.22.94-1.1,1.87-2.18,2.83-3.26,1.88-2.15,3.82-4.26,5.79-6.34.97-1.03,1.96-2.07,2.96-3.08.99-1.02,1.99-2.02,3-3.02,4.09-4.06,8.28-7.97,12.59-11.77.62-.56,1.25-1.11,1.88-1.65.61-.54,1.23-1.08,1.84-1.6.84-.72,1.69-1.44,2.55-2.16,1.04-.88,2.09-1.75,3.14-2.62.12-.1.24-.2.37-.3.86-.71,1.73-1.42,2.6-2.12,3.45-2.81,6.96-5.56,10.5-8.27,25.51-19.55,51.28-39.22,67.42-67.62,10.21-17.97,23.38-33.07,38.12-46.72,2.85-2.65,5.81-5.23,8.88-7.72.45-.37.9-.73,1.37-1.1,1.41-1.13,2.84-2.24,4.3-3.31.41-.31.83-.61,1.25-.91.48-.36.97-.71,1.46-1.05,1.52-1.09,3.07-2.13,4.63-3.14.69-.45,1.38-.89,2.08-1.32.14-.09.28-.17.43-.27.73-.45,1.47-.89,2.22-1.33,1.59-.95,3.21-1.84,4.83-2.7.81-.42,1.62-.84,2.44-1.25.83-.41,1.65-.8,2.47-1.18.95-.43,1.87-.89,2.78-1.36.45-.24.9-.48,1.34-.72.44-.25.88-.49,1.32-.74.43-.25.86-.51,1.29-.77.43-.26.85-.52,1.27-.79,2.51-1.6,4.88-3.33,7.15-5.15.75-.61,1.51-1.23,2.24-1.86.74-.62,1.46-1.27,2.18-1.91,0,0,0,.01.01,0,.8-.72,1.58-1.45,2.37-2.18s1.56-1.48,2.32-2.24c2.78-2.7,5.48-5.5,8.2-8.31.26-.26.51-.57.75-.9.09-.11.16-.23.25-.36.11-.16.22-.32.31-.49.11-.16.2-.34.3-.52.2-.35.39-.73.56-1.11.17-.39.33-.77.48-1.17.08-.2.14-.4.2-.59.1-.3.18-.59.26-.89.18-.73.31-1.45.34-2.11.03-.7-.02-1.33-.2-1.85Z"/>
  <path d="M912.42,169.27c6.44,4.23,12.81,7.38,17.82,12,5.45,5.03,10.34,11.04,14,17.46,1.28,2.24-.76,7.99-3.08,10.39-9.69,9.96-19.04,19.84-32.47,26.04-13.23,6.11-25.59,15.32-36.35,25.29-14.74,13.66-27.9,28.76-38.11,46.73-16.14,28.4-41.91,48.07-67.42,67.62-18.09,13.86-35.13,28.64-50.04,46.2-9.88,11.63-23.67,19.84-34.66,30.64-38.42,37.77-62.52,84.04-77.85,135.14-12.75,42.51-18.5,86.15-19,130.48-.04,3.55.96,7.22,2.02,10.66,13.54,43.88,18.97,88.92,19.15,134.67.09,23.62-.06,47.26-1.07,70.85-.33,7.81-3.92,15.44-5.65,23.23-3.22,14.47-6.47,28.94-9.17,43.52-7.79,42.05-6.17,84.53-5.21,126.95.75,33.01-3.64,65.03-17.46,95.31-14.6,31.98-12.33,64.98-6.96,98.44,3.95,24.66,7.99,49.4,4.52,74.6-2.47,17.98-8.67,34.22-20.66,48.05-7.53,8.68-15.01,8.89-22.75.77-23.62-24.77-30.49-54.64-24.72-87.35,3.98-22.61,9.4-45.08,15.8-67.14,10.29-35.47,8.13-70.45-.5-105.68-4.57-18.65-9.13-38.37-2.28-56.49,5.96-15.78,3.12-29.17.13-44.35-4.99-25.28-7.47-51.08-10.58-76.71-3.28-27.07-6.02-54.27-17.59-79.42-3.89-8.46-9.18-16.28-14.97-26.38-4.76,20.57-8.54,38.31-13,55.88-6.29,24.85-11.53,49.75-10.93,75.63.16,7.2,2.1,12.69,7.95,16.49,6.35,4.12,12.88,7.99,19.55,11.58,19.38,10.44,26.1,22.48,21.75,43.82-3.66,17.98-1.07,35.75-1.02,53.63.07,21.1-1.04,42.13-8.24,62.29-1.22,3.41-2.78,6.8-4.76,9.83-5.18,7.95-11.03,8.33-18.06,1.98-17.12-15.47-21.09-35.9-21.32-57.44-.21-19.1.29-38.21,1.06-57.3.28-6.86-2.64-8.63-8.44-7.74-6.93,1.05-13.85,2.29-20.72,3.69-18.86,3.84-27.27.76-33.21-17.47-6.56-20.15-11.39-41.08-14.69-62.03-4.98-31.61-9.74-63-18.35-94.06-4.85-17.48-2.52-37.41-1.11-56.07,3.92-52.02,22.41-100.68,36.47-150.34,11.1-39.19,17.97-78.89,14.91-119.79-2.04-27.3-6.36-54.01-19.4-78.76-11.43-21.7-21.22-44.06-20.87-69.48.04-2.84-2.53-6.1-4.63-8.53-17.63-20.41-36.94-39.57-52.74-61.3-13.88-19.08-29.67-36.5-43.56-55.36-17.79-24.15-32.73-50.38-49.46-75.34-12.49-18.64-24.71-37.68-39.25-54.65-9.84-11.48-23-20.41-35.61-29.13-9.67-6.69-14.2-18.73-8.76-29.34,1.11-2.17,1.56-4.72,2.11-7.14.37-1.63-.25-4.3.64-4.87,6.81-4.42,9.48-12.31,15.03-17.98,9-9.22,14.37-1.63,21.83-.66,17.48,2.26,21.61,13.46,21.93,28.25.16,7.18-1.32,14.8.63,21.43,2.27,7.69,6.08,15.96,11.69,21.43,17.29,16.86,35.66,32.63,53.82,48.59,27.52,24.19,54.04,49.2,72.35,81.58,1.29,2.27,4.53,4.3,7.18,4.81,29.44,5.66,51.12,22.91,70.39,44.8,8.99,10.21,20.04,18.7,30.7,27.29,2.46,1.98,7.17,1.69,10.82,1.59,10.84-.3,21.68-1.03,33.42-1.65-1.71-2.42-3.62-4.94-5.34-7.6-20.72-31.96-26.28-66.13-12.64-102.03,8.56-22.52,26.78-33.79,50.26-37.12,13.47-1.91,23.33,4.7,31.93,13.68,11.54,12.05,17.16,27.12,18.78,43.33,2.82,28.06-1.67,54.91-15.93,79.69-4.34,7.54-2.35,11.82,6.56,13.15,5.82.87,11.77.82,17.64,1.42,2.76.29,6.29.27,8.04,1.92,7.55,7.12,12.48,2.05,18.48-2.51,16.08-12.22,32.11-24.61,49.02-35.61,16.42-10.69,35.18-15.92,54.53-19,2.66-.42,6.03-2.19,7.35-4.38,14.62-24.14,36.37-40.25,60.06-54.26,23.46-13.86,47.09-27.43,70.39-41.55,17.81-10.8,26.39-28.67,32.98-47.28,3.96-11.19,8.45-20.13,19.54-26.84,9.16-5.55,15.66-15.8,22.66-24.51,5.8-7.2,10.35-15.41,16.05-22.7,1.63-2.08,5.35-2.52,8.11-3.71.33,3.01,1.93,6.66.79,8.93-6.17,12.26-13.02,24.18-20.25,37.31Z"/>
  <path d="M661.11,873.22h129.74c17.21,60,34.43,120.03,52.31,182.35,1.72-4.96,2.88-7.69,3.62-10.52,14.38-54.87,28.8-109.73,42.94-164.67,1.43-5.56,3.52-7.7,9.56-7.6,22.21.39,44.44.27,66.66.04,4.88-.05,7.48,1.43,9.45,6.07,46.75,110.48,93.65,220.9,140.5,331.34.85,2,1.42,4.12,2.47,7.23h-9.01c-32.63,0-65.26-.13-97.88.12-5.77.04-8.69-1.39-10.91-7.22-23.3-61.17-46.96-122.2-70.55-183.26-.77-1.99-1.81-3.87-3.73-7.91-4.77,19.4-9.05,36.69-13.28,53.99-11.27,46.1-22.63,92.18-33.65,138.34-1.21,5.06-3.52,6.08-8.11,6.02-15.75-.2-31.51-.36-47.25.11-6.18.19-8.73-2.01-10.5-7.74-18.44-59.83-37.13-119.59-55.75-179.37-.88-2.83-1.83-5.64-4.27-8.13,1.75,64.65,3.51,129.29,5.27,194.51h-97.62v-343.69Z"/>
  <path d="M1283.78,537.92c-55.51-47.92-120.54-61.48-190.05-39.27-156.09,49.88-157.32,220.91-74.08,301.89,37.24,36.23,83.01,51.11,144.79,51.24,63.36-1.84,122.33-30.33,156.6-98.22,34.31-67.95,30.71-156.97-37.27-215.64ZM1248.51,678.07c-.24,1.74-.52,3.46-.83,5.17h0c-.15.86-.31,1.71-.49,2.56h0c-.17.85-.36,1.7-.55,2.53-.01.01,0,.01,0,.01-.19.84-.4,1.67-.61,2.5h0c-.22.84-.43,1.67-.67,2.49h0c-.23.83-.46,1.64-.71,2.44h0c-.25.83-.51,1.62-.77,2.43h0c-.26.81-.53,1.6-.82,2.39h0c-.28.8-.57,1.58-.87,2.37h0c-.3.79-.6,1.56-.93,2.32h0c-.31.79-.63,1.55-.97,2.3h0c-.33.76-.67,1.52-1.02,2.27h0c-.34.75-.7,1.5-1.06,2.23h0c-.37.75-.73,1.48-1.12,2.21h0c-.38.73-.76,1.45-1.16,2.16h0c-.4.72-.8,1.43-1.21,2.13-.01,0,0,.01,0,.01-.41.7-.83,1.4-1.26,2.09h0c-.42.7-.85,1.38-1.3,2.05h0c-.43.69-.88,1.36-1.33,2.01-.01.01,0,.01,0,.01-.91,1.33-1.85,2.64-2.82,3.92h0c-.47.65-.97,1.28-1.46,1.9-.01,0,0,.01,0,.01-.99,1.25-2.01,2.46-3.07,3.67h0c-.52.6-1.04,1.19-1.58,1.78h0c-.54.59-1.08,1.17-1.62,1.74-.55.57-1.11,1.13-1.67,1.69-17.88,17.74-42,27.97-68.31,26.68-23.69-1.16-44.99-10.8-61.19-25.89-.56-.53-1.12-1.05-1.67-1.59-19.49-19.03-31.15-46.15-29.97-75.8,1.17-29.34,17.93-55.61,42.14-71.67,1.24-.82,2.5-1.61,3.78-2.39,15.86-9.51,34.54-14.76,53.98-13.89,9.31.42,18.36,2.22,26.94,5.17,1.43.48,2.84,1.01,4.25,1.57,4.21,1.67,8.27,3.6,12.19,5.8,1.3.73,2.59,1.48,3.85,2.27,1.27.79,2.52,1.6,3.74,2.43,1.85,1.26,3.65,2.57,5.4,3.95,2.05,1.6,4.04,3.27,5.95,5.02.54.47,1.05.96,1.56,1.45.82.76,1.6,1.54,2.38,2.33,10.28,10.45,18.08,22.94,22.32,36.42.29.93.57,1.85.83,2.79.26.94.49,1.87.72,2.82s.43,1.89.61,2.84c.1.47.19.96.27,1.43.94,5.31,1.32,10.75,1.09,16.21-.01.26-.03.53-.04.79-.08,1.49-.17,2.97-.3,4.45,0,.08-.01.16-.02.24-.16,1.74-.35,3.46-.58,5.17h0Z"/>
  <path d="M958.06,667.41c-4.14-80.62-65-150.99-145.28-159.97-51.11-5.72-103.23-2.39-154.9-3.09-.23,0-.46.3-1.31.9v342.68c48.71,0,96.64,2.68,144.16-.57,92.72-6.35,162.08-87.43,157.33-179.96ZM863,697.96c-.11.62-.22,1.24-.33,1.85-.06.37-.14.71-.2,1.07-.08.34-.14.68-.22,1.01-.11.54-.23,1.07-.34,1.6-.55,2.43-1.17,4.83-1.87,7.18-.27.88-.54,1.75-.83,2.62-.28.87-.58,1.73-.88,2.58-.83,2.27-1.72,4.5-2.69,6.65-.63,1.42-1.31,2.81-2.02,4.16-.24.45-.47.9-.71,1.34-.28.53-.57,1.03-.86,1.54-.22.37-.43.73-.65,1.1-.25.43-.52.86-.79,1.29l-.81,1.26c-.42.65-.85,1.28-1.28,1.9-.87,1.25-1.77,2.47-2.71,3.66-.46.6-.94,1.18-1.42,1.76-1.6,1.91-3.29,3.75-5.06,5.5-.58.58-1.17,1.15-1.78,1.7-.49.46-.98.9-1.48,1.34-.8.71-1.61,1.4-2.44,2.07-.56.46-1.13.91-1.7,1.36-.54.42-1.08.83-1.62,1.23-.2.15-.41.29-.61.44-.47.34-.95.68-1.42,1-.24.16-.47.32-.72.49-.43.29-.86.58-1.3.86-1.2.77-2.42,1.53-3.67,2.24-.34.22-.68.41-1.02.59-.71.4-1.42.79-2.14,1.17-.59.31-1.18.61-1.77.91-.02.01-.03.01-.04.02-.45.23-.9.44-1.36.66-.99.48-1.99.94-3.01,1.39-.35.16-.71.31-1.06.46-2.19.93-4.42,1.79-6.69,2.57-.6.2-1.22.41-1.84.6-.63.2-1.27.41-1.9.6-.35.11-.72.22-1.09.32-.09.03-.18.05-.28.09-.62.18-1.26.36-1.89.53-.83.23-1.65.44-2.49.65-.44.11-.88.2-1.32.31-.51.13-1.01.24-1.52.34-.14.03-.29.06-.44.1-.58.13-1.16.26-1.75.37-.84.17-1.69.33-2.55.48-.85.16-1.7.3-2.56.43-.13.02-.26.04-.4.06-.67.11-1.33.2-2.01.3-1.94.26-3.89.48-5.85.67-.73.06-1.46.13-2.19.18-.86.06-1.72.12-2.59.17h-.05c-.75.04-1.5.08-2.25.11-.31.01-.61.02-.91.03-7.68.26-15.5-.11-23.3-1.05v-190.91c.6-.06,1.2-.14,1.81-.19.48-.05.97-.1,1.45-.15,1.33-.13,2.66-.24,3.98-.32.94-.06,1.87-.13,2.8-.17.95-.05,1.89-.1,2.84-.13.66-.03,1.31-.04,1.97-.06.45-.01.9-.02,1.36-.02.76-.02,1.52-.02,2.27-.02,1.12,0,2.24.01,3.35.04.1,0,.2,0,.31.01,1.07.02,2.12.05,3.17.11,1.01.04,2.01.1,3,.17.31.02.63.04.95.08.8.05,1.58.12,2.36.19.19.01.4.03.6.05.94.09,1.87.19,2.79.3.13.01.27.03.41.05,1.04.12,2.08.26,3.11.42,1.07.15,2.13.32,3.18.51h.02c3.16.55,6.26,1.23,9.28,2.02,1.76.46,3.51.96,5.22,1.51.74.23,1.47.47,2.19.72.62.2,1.25.43,1.86.65.82.3,1.62.6,2.43.91.77.3,1.55.62,2.31.95.4.16.8.33,1.19.52.47.2.95.41,1.41.62.33.15.67.31,1,.47.77.36,1.54.72,2.29,1.11.77.4,1.55.8,2.31,1.22.38.2.75.41,1.13.62.25.13.49.27.73.41.55.31,1.1.63,1.64.97.63.37,1.26.75,1.87,1.15.71.46,1.42.93,2.12,1.41.31.19.61.41.93.63.4.27.8.55,1.18.85.27.18.54.38.8.57.71.53,1.4,1.05,2.09,1.6,1.52,1.2,2.98,2.46,4.41,3.77.54.49,1.06.99,1.59,1.51.17.16.33.32.51.49.24.23.46.46.69.7.98.97,1.91,1.97,2.82,2.99.45.49.89,1,1.31,1.52.11.11.2.22.28.32.4.46.77.93,1.14,1.4.51.6.99,1.23,1.45,1.84,1.18,1.57,2.31,3.18,3.39,4.85.63.98,1.25,1.98,1.85,3,.59,1.01,1.17,2.05,1.72,3.11,1.67,3.15,3.15,6.47,4.45,9.91.44,1.14.85,2.3,1.25,3.46,1.19,3.52,2.19,7.13,3.02,10.82.28,1.24.54,2.47.77,3.72.24,1.25.45,2.5.65,3.75.15.95.29,1.89.41,2.85.13.95.25,1.9.36,2.86.13,1.27.25,2.55.35,3.83.13,1.74.23,3.5.29,5.24.02.66.04,1.32.05,1.99.01.8.02,1.6.02,2.41,0,7.06-.59,14.09-1.77,20.91Z"/>
  <path d="M1563.23,1079.1c13.96-7.56,27.73-13,39.12-21.59,23.34-17.61,32.46-43.18,33.88-71.51,1.95-38.9-9.08-72.42-43.56-94.52-21.98-14.08-46.92-18.34-72.55-18.48-43.58-.25-87.17-.08-130.75-.03-2.15,0-4.3.34-6.41.54v343.29h89.78v-131.38c2.95,4.18,4.44,6.15,5.77,8.23,24.94,39.09,49.93,78.15,74.67,117.36,3.03,4.81,6.33,6.64,12.06,6.59,31.77-.28,63.55-.11,95.32-.14,2.35,0,4.68-.38,8.19-.67-36.06-47.08-71.34-93.12-105.49-137.69ZM1514.66,1023.06c-12.1,3.03-24.89,3.39-37.43,4.49-1.52.13-4.71-2.56-4.72-3.97-.29-26.88-.22-53.77-.22-83.44,15.53,2,29.68,2.4,43.02,5.9,18.85,4.95,28.06,19.44,27.78,39.19-.28,19.21-9.84,33.18-28.43,37.84Z"/>
  <path d="M1880.8,873.55v75.32c-17.89,0-35.27,0-52.65,0s-34.74,0-52.62,0v57.25h99.46v76.08h-99.4v59.31c2.77.12,5.71.36,8.66.36,29.53.04,59.07.2,88.6-.08,6.47-.06,8.79,1.48,8.64,8.42-.46,21.89-.17,43.8-.17,66.48h-195.96v-343.14h195.44Z"/>
  <path d="M1076,1050.29c-16.47-38.75-31.88-75.22-47.51-111.59-2.43-5.65,1.29-8.36,4.31-11.5,26.97-27.99,59.78-45.68,97.74-53.04,63-12.22,120.05,1.71,167.92,44.68,51.1,45.88,64.75,104.48,49.18,169.88-21.52,90.41-99.69,137.34-182.36,134.1-11.14-.44-18.64-3.97-23.26-16.08-11.6-30.43-25.19-60.1-37.95-90.08-.74-1.73-1.2-3.58-2.46-7.4,18.05,17.88,37.67,28.42,61.21,30.2,23.7,1.79,45.11-4.74,63.74-19.54,33.09-26.3,46.29-74.4,30.42-110-17.42-39.06-60.53-62.37-102.17-55.25-46.03,7.86-74.48,41.58-78.79,95.62Z"/>
  <path class="uuid-2104cd8d-de59-4c67-b6e7-b85de0101071" d="M1249.46,667.41c-1.26,28.87-12.91,54.25-30.86,72.05,17.95-17.8,29.6-43.18,30.85-72.05.39-8.9-.87-17.69-3.52-26.09,2.66,8.4,3.92,17.19,3.53,26.09Z"/>
  <path class="uuid-2104cd8d-de59-4c67-b6e7-b85de0101071" d="M836.39,604.46c-1.43-1.3-2.89-2.56-4.41-3.77,1.52,1.2,2.99,2.46,4.41,3.77Z"/>
  <path class="uuid-2104cd8d-de59-4c67-b6e7-b85de0101071" d="M845.81,738.77c.94-1.18,1.84-2.41,2.71-3.66-.87,1.26-1.77,2.47-2.71,3.66Z"/>
  <path class="uuid-2104cd8d-de59-4c67-b6e7-b85de0101071" d="M849.57,620.08c-1.08-1.67-2.21-3.28-3.39-4.85,1.18,1.57,2.32,3.18,3.4,4.85.63.98,1.25,1.98,1.84,3-.6-1.02-1.22-2.02-1.85-3Z"/>
  <path class="uuid-2104cd8d-de59-4c67-b6e7-b85de0101071" d="M849.8,733.21l.81-1.26c-.26.42-.53.84-.8,1.26-.42.65-.85,1.28-1.29,1.9.43-.62.86-1.26,1.28-1.9Z"/>
  <path class="uuid-2104cd8d-de59-4c67-b6e7-b85de0101071" d="M855.63,722.52c.97-2.15,1.86-4.38,2.69-6.65-.82,2.27-1.71,4.5-2.69,6.65Z"/>
  <path class="uuid-2104cd8d-de59-4c67-b6e7-b85de0101071" d="M860.03,710.66c.7-2.35,1.32-4.74,1.87-7.18-.54,2.43-1.16,4.83-1.87,7.18Z"/>
</svg>