<svg width="480" height="35" viewBox="0 0 480 35" fill="none" xmlns="http://www.w3.org/2000/svg">
<path d="M156.118 26.2239C155.981 26.9688 157.492 26.6234 158.241 26.6449C161.494 26.7421 164.762 26.5694 168.015 26.6449C234.263 28.1672 302.007 27.3143 368.454 26.2023C401.532 25.6517 434.458 24.4101 467.551 24.0862C472.148 24.043 478.195 22.3156 479.998 26.8933C480.089 28.2212 477.63 29.9702 476.057 30.5209C469.689 32.7881 446.263 31.9352 437.726 32.2051C325.663 35.7032 212.699 35.8327 100.545 33.0688C83.914 32.6586 64.5649 33.0904 48.2701 31.7948C39.886 31.1255 42.36 24.9283 50.1485 24.097C61.9076 22.8446 75.2092 23.0065 87.1516 22.3372C152.544 18.6556 217.953 15.3735 283.407 12.0266C294.265 11.4759 305.062 10.4611 315.92 10.3099C316.057 9.56498 314.545 9.91047 313.797 9.88887C311.369 9.8133 308.925 9.96445 306.512 9.88887C251.336 8.02109 194.236 9.39224 138.785 9.04675C120.902 8.93879 102.652 8.2802 84.7539 8.15065C60.411 7.9779 33.2429 9.37064 9.35817 8.19383C6.28858 8.04268 0.714461 7.85914 0.0577838 5.27879C-0.537808 2.95756 3.60078 0.884643 6.4871 0.549953C20.2468 -1.09111 39.4126 1.57561 53.7679 0.431192C166.503 1.08977 279.421 1.97508 392.155 2.61207C412.482 2.73083 436.886 1.33809 456.617 2.57968C465.673 3.15189 465.459 8.37737 457.518 10.1264C453.349 11.0441 449.18 10.5043 445.056 10.7634C357.52 16.4099 269.647 19.9188 181.957 24.5073C173.36 24.9607 164.746 25.9108 156.133 26.2239H156.118Z" fill="#86B455"/>
</svg>
