<svg width="30" height="29" viewBox="0 0 30 29" fill="none" xmlns="http://www.w3.org/2000/svg">
<path fill-rule="evenodd" clip-rule="evenodd" d="M6.94002 0.416748C5.32272 0.416748 3.77163 1.05906 2.6278 2.20244C1.48398 3.34583 0.841075 4.89667 0.840454 6.51397V22.7795C0.840454 24.3972 1.48309 25.9486 2.62698 27.0925C3.77087 28.2364 5.32232 28.8791 6.94002 28.8791H23.2055C24.8228 28.8784 26.3737 28.2355 27.5171 27.0917C28.6604 25.9479 29.3028 24.3968 29.3028 22.7795V6.51397C29.3021 4.89708 28.6596 3.34659 27.5162 2.20327C26.3729 1.05995 24.8224 0.417369 23.2055 0.416748H6.94002ZM24.96 6.52334C24.96 6.98927 24.7749 7.43612 24.4454 7.76558C24.116 8.09504 23.6691 8.28013 23.2032 8.28013C22.7373 8.28013 22.2904 8.09504 21.961 7.76558C21.6315 7.43612 21.4464 6.98927 21.4464 6.52334C21.4464 6.05741 21.6315 5.61057 21.961 5.28111C22.2904 4.95164 22.7373 4.76656 23.2032 4.76656C23.6691 4.76656 24.116 4.95164 24.4454 5.28111C24.7749 5.61057 24.96 6.05741 24.96 6.52334ZM15.0751 9.77457C13.7829 9.77457 12.5437 10.2879 11.63 11.2016C10.7163 12.1153 10.203 13.3546 10.203 14.6467C10.203 15.9389 10.7163 17.1782 11.63 18.0919C12.5437 19.0056 13.7829 19.5189 15.0751 19.5189C16.3673 19.5189 17.6066 19.0056 18.5203 18.0919C19.434 17.1782 19.9473 15.9389 19.9473 14.6467C19.9473 13.3546 19.434 12.1153 18.5203 11.2016C17.6066 10.2879 16.3673 9.77457 15.0751 9.77457ZM7.85824 14.6467C7.85824 12.7333 8.61834 10.8983 9.97133 9.54528C11.3243 8.19229 13.1594 7.43219 15.0728 7.43219C16.9862 7.43219 18.8212 8.19229 20.1742 9.54528C21.5272 10.8983 22.2873 12.7333 22.2873 14.6467C22.2873 16.5601 21.5272 18.3952 20.1742 19.7482C18.8212 21.1012 16.9862 21.8613 15.0728 21.8613C13.1594 21.8613 11.3243 21.1012 9.97133 19.7482C8.61834 18.3952 7.85824 16.5601 7.85824 14.6467Z" fill="#40579B"/>
</svg>
