<?xml version="1.0" encoding="UTF-8"?>
<svg id="uuid-0cbd6b22-26e2-42b5-9bd8-91c61fadc68c" data-name="Calque_1" xmlns="http://www.w3.org/2000/svg" viewBox="0 0 2000 772.09">
  <path d="M379.32,598.59c.02,6.24-1.51,8.58-8.02,8.11-7.8-.56-15.69-.46-23.5-.02-5.71.33-7.45-1.48-7.41-7.29.25-35.23.12-70.45.12-105.68v-101.42c-.4-.11-.81-.22-1.21-.32-.76,1.69-1.62,3.35-2.26,5.09-24.81,67.53-49.67,135.05-74.26,202.67-1.88,5.18-4.09,7.41-9.75,6.95-8.45-.68-18.91,2.3-24.88-1.7-5.63-3.77-6.71-14.49-9.55-22.23-22.32-60.87-44.59-121.75-66.89-182.62-.92-2.52-1.99-5-4.3-7.35v214.42h-32.97v-251.48h57.56c25.11,68.13,50.03,135.78,75.65,205.32,4.04-10.78,7.41-19.66,10.71-28.57,20.9-56.48,41.85-112.95,62.55-169.51,1.95-5.31,4.35-7.36,10.22-7.18,15.62.47,31.27.16,47.59.16.18,2.95.45,5.38.45,7.81.03,78.28-.05,156.56.15,234.84Z"/>
  <rect x="597.37" y="107" width="95.48" height="94.9"/>
  <path d="M357.98,107v101.12h101.01v-101.12h-101.01ZM453.08,202.23h-89.11v-89.12h89.11v89.12Z"/>
  <path d="M693.13,211.19c-1.68,1.14-3.36,3.27-5.05,3.28-33.85.19-67.71.14-102.33.14-.13-2.78-.33-5.22-.34-7.66-.02-30.61-.07-61.21.09-91.81,0-2.72,1.42-5.43,2.18-8.14h2.77c.3,2.71.84,5.42.84,8.14.07,28.3.04,56.6.04,84.9v8.87h100.77c.34.76.69,1.52,1.03,2.28Z"/>
  <path d="M1857.25,481.3c29.52-23.56,32.28-52.48,24.09-72.29-13.29-32.13-38.49-43.69-72.47-39.74,4.29-30.52-4.54-55.72-33.02-69.38-31.61-15.17-57.9-4.11-78.95,22.24-18.65-23.71-41.89-35.19-70.8-25.54-34.51,11.52-45.94,38.19-41.73,72.81-30.59-3.95-55.51,4.68-69.32,32.84-15.74,32.09-3.93,58.21,22.38,79.64-23.8,18.48-36,41.53-25.39,70.81,12.04,33.22,38.02,45.21,72.45,40.98-4.29,30.86,4.95,55.83,33.48,69.32,31.26,14.78,57.63,4.57,78.55-21.63,26.15,31.84,56.23,31.64,76.45,23.21,26.16-10.9,37.25-32.6,36.17-71.17,30.27,4.62,54.5-4.78,68.55-31.68,16.62-31.82,5.6-58.5-20.44-80.42ZM1528.53,436.06c-2.79-19.15,7.03-37.7,24.09-45.5,17.12-7.83,39.26-2.93,50.75,11.68,1.51,1.9,1.47,5.48,1.24,8.21-1.58,18.72,15.25,32.52,32.73,26.68,10.81-3.62,18.36-15.55,16.73-26.46-1.92-12.95-12-23.07-24.44-21.37-11.5,1.57-16.31-4.86-21.04-12.44-9.64-15.44-8.37-34.68,2.77-48.34,11.33-13.89,30-19.44,46.66-13.86,16.98,5.69,28.43,21,28.71,39.06.24,16.1.05,32.22.05,48.33h.05c0,16.11.07,32.21-.02,48.32-.06,12.5-6.83,20.69-19.04,20.8-33.86.33-67.75.56-101.59-.49-19.31-.61-34.99-16.33-37.65-34.62ZM1686.79,607.09c-.26,23.58-17.28,41.87-39.88,43.09-22.89,1.24-42.49-15.49-44.68-38.99-1.37-14.73,4.65-26.99,15.76-36.57,1.47-1.26,4.57-1.14,6.82-.88,14.15,1.63,25.62-6.41,28.48-20.19,2.62-12.64-4.61-24.41-17.35-28.24-17.64-5.3-34.24,9.64-31.51,27.99.39,2.65-.78,6.39-2.6,8.36-13.88,15.04-34.53,18.67-51.65,9.52-16.8-8.99-25.85-29.26-21.22-47.55,4.85-19.15,21.66-32.4,42.11-32.54,31.59-.21,63.19-.15,94.78-.02,13.01.06,20.88,8.23,20.96,21.37.09,16.35.02,32.7.02,49.05-.01,15.2.13,30.4-.04,45.6ZM1706.84,354.99c.12-20.53,13.09-36.87,32.76-41.47,18.62-4.35,38.38,4.85,47.1,21.94,8.91,17.49,4.72,39.1-10.63,51.89-2.11,1.75-6.25,1.62-9.41,1.49-14.17-.59-24.88,8.05-27.02,22.15-1.79,11.78,6.5,23.35,19.11,26.67,15.74,4.14,32.63-9.51,30.3-25.43-1-6.83,1.18-10.7,5.78-14.72,13.52-11.8,31.94-14.41,47.62-6.46,16.11,8.17,24.99,25.5,22.7,44.3-1.95,16-15.01,30.53-31.62,34.57-4.64,1.13-9.58,1.45-14.38,1.47-29.5.13-59,.11-88.5.05-16.95-.03-23.82-7-23.83-23.94-.01-15.18,0-30.37,0-45.56s-.07-31.3.02-46.95ZM1842.56,571.35c-17.4,8.67-38.19,4.46-51.46-10.72-1.37-1.56-2.08-4.49-1.76-6.59,1.75-11.6-3.13-22.03-13.19-27.15-9.65-4.93-21.43-3.19-28.77,4.24-7.62,7.72-9.43,19.7-4.42,29.36,5.17,9.97,15.18,14.61,26.64,13.01,2.44-.34,5.88.62,7.65,2.28,13.05,12.21,18.06,27.25,12.7,44.48-5.18,16.64-17.37,26.03-34.43,29.22-23.73,4.44-48.14-15.57-48.61-40.18-.32-16.34-.06-32.7-.06-49.05h-.03c0-16.12-.05-32.24.02-48.36.05-12.13,7.9-20.66,20.12-20.76,32.52-.25,65.04-.43,97.55.08,19.79.3,36.74,14.62,40.53,32.64,4.1,19.5-5.03,38.8-22.48,47.5Z"/>
  <path d="M757.83,604.39c0,.43-.29.85-.61,1.73h-38.48c0-3.24.02-6.16,0-9.07-.27-37.29-.3-74.57-.97-111.85-.19-10.76-2.57-21.86-13.99-26.52-12.3-5.02-23.76-.94-33.29,7.41-13.83,12.1-20.2,28.57-23.06,46.01-2.25,13.75-2.53,27.89-2.91,41.87-.46,17.22-.11,34.47-.11,52.15h-38.85v-171.73h38.8v38.87c.45.13.89.25,1.34.38,2.09-3.41,4.07-6.9,6.27-10.23,13.56-20.45,31.84-32.78,57.1-33.43,27.39-.7,47.78,16.48,48.43,43.9,1.03,43.48.33,87,.33,130.51Z"/>
  <path d="M555.11,244.72v-126.53c-.66-.42-1.33-.84-1.99-1.26-9.38,7.16-18.76,14.31-28.51,21.75-9.52-10.2-20.7-18.73-35.12-24.36v124.31h-123.55c19.15,56.75,104.31,85.88,159.53,27.89,54.76,56.94,135.88,29.18,156.55-21.8h-126.91ZM521.38,261.81c-20.92,22.84-46.91,33.47-77.76,30.1-30.57-3.34-53.41-19.28-69.85-47.21h121.38v-120.21c.68-.45,1.35-.9,2.03-1.35,8.17,6.51,16.35,13.02,24.74,19.7-27,39.99-27.22,79.23-.54,118.97Z"/>
  <path d="M570.69,489.03c-6.58-30.15-24.21-50.81-55.23-56.43-14.46-2.62-29.94-2.57-44.56-.67-30.22,3.93-49.56,22.03-57.29,51.39-3.13,11.9-4.04,24.39-5.48,33.53,1.05,11.55,1.44,19.84,2.62,28.01,4.92,33.91,23.91,56.61,55.36,62.62,14.64,2.8,30.39,2.84,45.22.91,31.09-4.04,50.37-22.85,58.3-53.05,5.77-21.98,5.88-44.22,1.06-66.31ZM526.83,561.18c-1.24,5.09-3.11,10.12-5.4,14.84-6.17,12.75-16.34,19.61-30.77,19.46-14.26-.15-24.95-7.15-29.5-20.01-4.54-12.83-6.45-26.62-8.94-40.1-.91-4.89-.15-10.09-.15-15.16-.25-18.47.45-36.87,8.17-54.1,7.22-16.15,19.48-23.02,36.51-20.8,13.05,1.71,21.63,9.75,25.66,21.41,3.79,10.95,6.34,22.57,7.61,34.1,2.23,20.19,1.65,40.47-3.19,60.36Z"/>
  <path d="M1362.14,477.34c-.58-20.97-10.81-37.22-32.41-43.14-24.33-6.67-48.86-6.52-72.76,2.01-19.94,7.12-32.37,26.48-30.66,46h39.65c2-7.94,3.11-15.56,5.84-22.54,4.33-11.04,13.79-14.73,25.04-14.78,10.26-.05,17.89,4.26,21.85,13.83,6.9,16.68,4.98,34.14,4.9,51.22-11.88,1.18-22.93,1.91-33.87,3.43-18.35,2.55-36.31,6.71-51.7,17.82-13.57,9.79-20.22,23.22-18.5,39.95,1.77,17.26,12.12,28.39,27.69,34.89,24.59,10.27,53.72,3.06,70.99-17.33,1.51-1.78,3.02-3.55,5.86-6.91v24.31h38.21c.35-1.11.74-1.76.74-2.4-.17-42.12.3-84.26-.87-126.36ZM1321.39,559.37c-4.08,16.16-16.25,25.07-32.39,28.2-9.9,1.92-18.98-2.89-23.6-11.7-5.47-10.42-3.88-24.59,3.97-32.76,10.32-10.75,24.03-13.77,37.98-16,5.15-.82,10.39-1.09,17.39-1.78-1.06,12-.66,23.41-3.35,34.04Z"/>
  <path d="M1145.1,431.69c-11.33-1.56-23.04-1.91-34.44-.99-33.76,2.71-55.03,21.71-62.43,54.71-3.84,17.07-3.73,34.35-.85,51.48,5.35,31.72,21.13,56.1,52.58,67.07,29.8,10.4,59.89,8.41,89.45-2,1.75-.61,3.55-3.28,3.87-5.23.62-3.68.18-7.54.18-11.95-4.83,1.46-8.51,2.66-12.24,3.68-36.83,10.04-68.21-2.77-84.08-35.9-5.57-11.62-7.92-24.82-11.22-37.44-1.16-4.48-.76-9.36-1.12-14.66h111.36c1.91-35.03-14.26-63.71-51.06-68.77ZM1086.08,483.74c1.9-14.33,6.06-27,19.1-34.2,12.55-6.94,25.91-7.04,38.08.86,11.69,7.6,14.71,19.69,14.59,33.34h-71.77Z"/>
  <path d="M854.8,452.1c-.69,1.6-1.02,2.01-1.02,2.42.25,37.98.2,75.96.99,113.93.28,13.43,7.47,19.79,20.91,21.11,4.1.4,8.28.35,12.4.09,3.88-.24,7.72-1.02,11.96-1.62v20.22c-22.62,2.77-45.24,5.15-66.78-5.24-13.21-6.38-18.53-18.26-18.64-32.31-.28-36.38-.17-72.76-.22-109.15v-8.95h-29.64v-18.68h29.64c0-11.85.31-22.84-.13-33.8-.21-5.34,1.47-8.3,6.27-10.75,10.8-5.5,21.27-11.64,33.04-18.17v62.41h50.68v18.49h-49.46Z"/>
  <rect x="1404.84" y="356.29" width="38.7" height="249.83"/>
  <path d="M1031.1,430.24v36.8c-7.44,1.07-14.55,1.73-21.5,3.16-23.75,4.92-37.35,19.47-38.48,43.86-1.29,27.55-.85,55.18-1.15,82.78-.03,2.96,0,5.92,0,9.29h-38.82v-171.84h38.53v41.6c.6.39,1.19.77,1.79,1.16,12.93-24.5,28.62-45.33,59.63-46.81Z"/>
  <path d="M1142.69,293.11h-14.09c-.15-2.87-.39-5.53-.42-8.19-.19-17.72-.2-35.45-.56-53.16-.14-6.83-1.28-13.91-8.76-16.58-7.73-2.77-15.14-.84-21.16,4.77-10.21,9.5-14.36,21.77-14.74,35.32-.34,12.38-.07,24.78-.07,37.64h-14.43v-129.46h14.2v58.13c.43.09.85.19,1.28.28,1.49-2.43,2.88-4.94,4.5-7.29,7.64-11.11,23.39-16.11,37-11.82,11.06,3.49,17.18,13.19,17.23,27.72.08,20.68.02,41.36.02,62.64Z"/>
  <path d="M919.56,223.39c-.21-9.35-6.13-15.88-14.92-18.89-14-4.79-28.19-4.61-41.89,1.07-8.56,3.55-14.15,9.93-14.76,20.25,7.59-.02,16,4.02,19.33-7.11.49-1.65,2.8-3.02,4.57-3.98,16.99-9.27,33-.1,33.94,18.87.35,7.04-1.73,9.22-8.74,9.01-13.5-.41-26.68,1.79-38.66,8.52-10.78,6.05-14.78,14.45-12.43,25.11,2.4,10.89,10.14,17.52,21.91,18.71,14.16,1.43,26.83-1.94,37.74-12.9.3,4.34.53,7.63.78,11.04h13.3c0-23.72.34-46.72-.17-69.7ZM877.44,284.84c-6.33-.04-11.87-2.17-14.34-8.69-2.3-6.1.06-12.79,6.29-16.68,10.78-6.74,22.83-7.48,35.57-7.07,1.86,18.09-10.65,32.52-27.52,32.44Z"/>
  <path d="M1439.06,239.29c1.35-21.46-8.89-34.57-29.04-37.24-5.6-.74-11.52-.46-17.13.4-13.7,2.08-23.04,9.9-27.54,23.07-4.12,12.1-4.01,24.51-1.08,36.75,3.65,15.26,12.89,26.6,28.38,29.83,11.72,2.45,24.14,2.39,36.22,2.08,8.9-.22,8.88-1.2,7.58-11.3-39.13,5.92-63.76-12.98-56.05-43.59h58.66ZM1403.82,211.96c10.36.46,17,6.36,18.13,16.7h-40.92c2.54-11.42,10.68-17.25,22.79-16.7Z"/>
  <path d="M1324.76,293.06h-14.39c-.12-2.3-.34-4.51-.34-6.72-.03-15.18,0-30.37-.04-45.56,0-2.98.09-6.01-.3-8.95-.88-6.63-1.32-13.95-8.91-16.62-8.34-2.92-16.05-.59-22.22,5.56-10.01,10.01-13.65,22.71-14.01,36.42-.31,11.71-.07,23.43-.07,35.67h-13.84v-88.78h13.59v17.43c.44.11.88.23,1.32.35.92-1.38,1.92-2.72,2.76-4.15,8.01-13.68,24.36-19.95,39.31-14.79,9.62,3.32,15.64,10.43,16.23,20.38.94,16.05.7,32.17.89,48.26.09,7.07.02,14.14.02,21.5Z"/>
  <polygon points="826.57 280.98 826.57 292.9 756.54 292.9 756.54 163.35 772.78 163.35 772.78 280.98 826.57 280.98"/>
  <path d="M1032.39,284.11v9.04c-18.27,3.3-36.36,4.02-53.49-5.25-9.56-5.17-15.75-13.32-18.84-23.69-3.65-12.22-3.61-24.55.05-36.74,3.79-12.66,12.15-20.9,25.07-24.23,10.73-2.75,21.48-2.74,32.02.75,11.77,3.9,17.87,12.72,18.15,26.4h-16.31c-.29-.55-.78-1.09-.85-1.69-.99-8.33-4.76-14.53-13.46-16.24-9.25-1.82-17.85.1-23.42,8.11-9.22,13.25-8.64,27.87-3.31,42.25,4.87,13.14,15.42,19.86,29.04,21.14,8.18.77,16.5.15,25.35.15Z"/>
  <path d="M1171.14,356.01c-12.88,15.98-24.52,30.49-36.31,44.87-1.01,1.23-3.07,2.2-4.67,2.24-8.24.23-16.49.11-25.85.11,1.57-3.28,2.6-5.7,3.85-7.99,6.3-11.48,12.78-22.85,18.92-34.41,1.83-3.46,3.9-5.01,7.99-4.91,11.42.28,22.85.09,36.07.09Z"/>
  <path d="M483.48,196.49v35.52c-2.04.23-3.56.55-5.09.55-36.88.03-73.76,0-110.64.05-3.52.01-6.68.05-5.64-5.69h7.28c33.66,0,67.31-.14,100.96.12,5.83.05,7.35-1.75,7.31-7.41-.23-33.37-.11-66.75-.1-100.12v-8.02c6.59-1.07,5.89,2.94,5.89,6.28.03,26.24.02,52.48.03,78.72Z"/>
  <path d="M691.35,223c-1.62,1.19-3.23,3.41-4.84,3.42-37.11.07-74.21-.09-111.32-.22-.2,0-.4-.22-1.01-.59-.15-1.23-.51-2.77-.51-4.3-.03-35.22-.02-70.45-.04-105.67-.01-3.35-.41-6.83,5.43-5.93v110.71h110.91c.46.86.92,1.72,1.38,2.58Z"/>
  <rect x="1189.27" y="203.89" width="13.75" height="89.14"/>
  <path d="M680.14,238.37c-34.32,0-68.64,0-102.96,0h-15.69v-6.07c0-37.5.01-74.99-.02-112.48,0-3.52-.48-7.24,5.7-6.77v119.54h119.84c.52,6.5-3.47,5.77-6.87,5.77Z"/>
  <path d="M471.37,162.65v57.12c-2,.24-3.73.62-5.47.62-33.67.03-67.33.01-101,.05-3.5,0-6.72.11-5.29-5.83h106.14v-105.81c.87-.32,1.73-.63,2.6-.94,1,1.91,2.85,3.81,2.88,5.74.23,16.35.14,32.7.14,49.05Z"/>
  <rect x="1187.14" y="163.48" width="18.41" height="16.1"/>
</svg>