<svg width="445" height="11" viewBox="0 0 445 11" fill="none" xmlns="http://www.w3.org/2000/svg">
<path d="M7.42196 0.0104605C75.8769 0.700967 144.332 1.3287 212.787 1.97736C279.307 2.61555 345.88 3.25375 412.36 4.08026C421.101 4.18488 431.576 3.41068 440.023 4.03841C442.224 4.20581 444.666 4.79169 445 6.76905C445 7.88851 442.932 9.47877 441.691 9.97049C437.541 11.634 419.753 10.797 413.962 10.7342C330.094 9.82402 246.2 9.03935 162.32 8.2233C108.97 7.70019 55.3938 7.77343 2.09769 6.46565C-3.40006 3.27467 3.16521 0.4708 7.43531 0L7.42196 0.0104605Z" fill="#86B455"/>
</svg>
