<svg width="254" height="60" viewBox="0 0 254 60" fill="none" xmlns="http://www.w3.org/2000/svg">
<path d="M87.0686 0.987675C108.334 0.175318 136.302 0.841827 155.648 3.1288C160.397 3.69027 165.035 4.57408 169.622 5.08581C175.176 5.705 181.192 6.06517 186.907 6.73854C222.829 10.9872 256.026 20.4136 253.816 33.4676C252.651 40.3091 242.993 50.2915 223.632 53.9231C181.663 61.7914 111.499 59.7911 67.3877 56.0478C14.812 51.5899 -13.1269 38.4323 6.31455 19.0974C22.9535 8.70569 49.8983 2.40944 87.0686 0.987675ZM241.76 24.2446C241.329 23.9431 240.872 23.7533 240.471 23.4955C231.046 17.6657 215.445 14.1985 196.167 11.6656C195.478 11.5742 194.637 11.2507 193.409 11.2423C192.328 11.2351 190.698 10.7584 189.395 10.6895C189 10.6671 185.821 10.5037 185.116 10.3593C181.196 9.56183 175.5 9.14127 170.815 8.805C143.686 6.85454 110.923 5.83178 83.0936 7.91785C75.0817 8.51711 68.4172 10.7183 60.1891 10.7892C59.6922 10.7957 59.0765 10.716 58.9158 10.7196C59.4381 9.88159 61.0312 9.21099 63.2418 8.70002C82.4396 4.29444 109.913 3.94463 132.32 3.85792C132.831 3.8555 134.513 3.88052 134.728 3.70692C131.334 3.57758 127.968 3.39432 124.56 3.28307C95.83 2.34105 67.1818 3.76542 43.1465 9.53538C10.0816 17.4733 -9.10533 31.6269 14.0285 42.6009C24.8717 47.7507 52.7082 51.2628 72.0344 52.6661C109.223 55.3716 162.832 58.0087 200.427 53.9961C238.023 49.9835 261.209 38.2296 244.436 26.6529L241.76 24.2446Z" fill="#86B455"/>
</svg>
