<svg width="208" height="49" viewBox="0 0 208 49" fill="none" xmlns="http://www.w3.org/2000/svg">
<path d="M71.3136 1.03457C88.6314 0.373009 111.408 0.915796 127.163 2.77825C131.03 3.23549 134.808 3.95524 138.543 4.37198C143.066 4.87624 147.965 5.16955 152.62 5.71793C181.873 9.17791 208.908 16.8545 207.108 27.4853C206.16 33.0569 198.294 41.1863 182.527 44.1438C148.349 50.5515 91.2088 48.9225 55.286 45.8741C12.4697 42.2437 -10.283 31.5285 5.54959 15.7826C19.0999 7.31992 41.043 2.19242 71.3136 1.03457ZM197.29 19.9744C196.939 19.7289 196.567 19.5743 196.241 19.3644C188.565 14.6167 175.86 11.7931 160.16 9.73041C159.599 9.65598 158.915 9.3925 157.915 9.38566C157.034 9.37982 155.706 8.99159 154.646 8.93545C154.324 8.91723 151.735 8.78416 151.161 8.66659C147.968 8.01714 143.33 7.67464 139.515 7.40079C117.421 5.81239 90.7401 4.97948 68.0764 6.67832C61.5518 7.16635 56.1244 8.95893 49.4236 9.01664C49.019 9.02197 48.5175 8.95707 48.3867 8.95996C48.812 8.27754 50.1094 7.73142 51.9096 7.3153C67.5438 3.72752 89.9174 3.44264 108.165 3.37203C108.582 3.37005 109.951 3.39043 110.126 3.24905C107.362 3.14372 104.621 2.99447 101.845 2.90388C78.4486 2.13672 55.1182 3.29669 35.5445 7.9956C8.61735 14.46 -7.00795 25.9864 11.8316 34.9233C20.662 39.1171 43.3313 41.9773 59.0701 43.1201C89.3555 45.3234 133.013 47.471 163.63 44.2032C194.247 40.9355 213.129 31.3634 199.469 21.9356L197.29 19.9744Z" fill="#86B455"/>
</svg>
