<svg width="29" height="36" viewBox="0 0 29 36" fill="none" xmlns="http://www.w3.org/2000/svg">
<path d="M8.81946 8.23808C8.81946 6.69098 9.41782 5.20725 10.4829 4.11329C11.548 3.01933 12.9926 2.40474 14.4989 2.40474C16.0051 2.40474 17.4497 3.01933 18.5148 4.11329C19.5799 5.20725 20.1783 6.69098 20.1783 8.23808V9.40474H22.45V8.23808C22.45 6.07214 21.6123 3.99492 20.1212 2.46337C18.6301 0.931825 16.6076 0.0714111 14.4989 0.0714111C12.3901 0.0714111 10.3677 0.931825 8.87654 2.46337C7.38541 3.99492 6.5477 6.07214 6.5477 8.23808V9.40474H8.81946V8.23808ZM1.78609 14.8507C1.87889 13.9948 2.27572 13.204 2.90065 12.6297C3.52558 12.0554 4.33474 11.738 5.17329 11.7381H23.8244C24.6626 11.7385 25.4712 12.0562 26.0956 12.6305C26.7201 13.2047 27.1166 13.9952 27.2094 14.8507L28.9791 31.1841C29.0321 31.6734 28.9841 32.1687 28.838 32.6377C28.692 33.1066 28.4513 33.5386 28.1316 33.9055C27.8119 34.2724 27.4205 34.5659 26.9828 34.7668C26.5452 34.9677 26.0712 35.0715 25.5919 35.0714H3.40586C2.92669 35.0712 2.45296 34.9671 2.0156 34.7661C1.57824 34.565 1.18708 34.2715 0.867648 33.9046C0.548218 33.5378 0.307704 33.1059 0.161805 32.6371C0.0159062 32.1683 -0.0320962 31.6732 0.0209315 31.1841L1.78609 14.8507Z" fill="#252525"/>
</svg>
