<svg width="27" height="27" viewBox="0 0 27 27" fill="none" xmlns="http://www.w3.org/2000/svg">
<path d="M19.125 20.25C19.7217 20.25 20.294 20.4871 20.716 20.909C21.1379 21.331 21.375 21.9033 21.375 22.5C21.375 23.0967 21.1379 23.669 20.716 24.091C20.294 24.5129 19.7217 24.75 19.125 24.75C18.5283 24.75 17.956 24.5129 17.534 24.091C17.1121 23.669 16.875 23.0967 16.875 22.5C16.875 21.2512 17.8762 20.25 19.125 20.25ZM1.125 2.25H4.80375L5.86125 4.5H22.5C22.7984 4.5 23.0845 4.61853 23.2955 4.8295C23.5065 5.04048 23.625 5.32663 23.625 5.625C23.625 5.81625 23.5687 6.0075 23.49 6.1875L19.4625 13.4663C19.08 14.1525 18.3375 14.625 17.4937 14.625H9.1125L8.1 16.4587L8.06625 16.5938C8.06625 16.6683 8.09588 16.7399 8.14863 16.7926C8.20137 16.8454 8.27291 16.875 8.3475 16.875H21.375V19.125H7.875C7.27826 19.125 6.70597 18.8879 6.28401 18.466C5.86205 18.044 5.625 17.4717 5.625 16.875C5.625 16.4812 5.72625 16.11 5.895 15.795L7.425 13.0387L3.375 4.5H1.125V2.25ZM7.875 20.25C8.47174 20.25 9.04403 20.4871 9.46599 20.909C9.88795 21.331 10.125 21.9033 10.125 22.5C10.125 23.0967 9.88795 23.669 9.46599 24.091C9.04403 24.5129 8.47174 24.75 7.875 24.75C7.27826 24.75 6.70597 24.5129 6.28401 24.091C5.86205 23.669 5.625 23.0967 5.625 22.5C5.625 21.2512 6.62625 20.25 7.875 20.25ZM18 12.375L21.1275 6.75H6.9075L9.5625 12.375H18Z" fill="black"/>
</svg>
