<svg width="30" height="30" viewBox="0 0 30 30" fill="none" xmlns="http://www.w3.org/2000/svg">
<path d="M1.57987 0.0666121C1.43113 0.0144044 1.27359 -0.00747388 1.11639 0.00224778C0.959201 0.0119694 0.805488 0.053097 0.664179 0.123243C0.522869 0.19339 0.396777 0.291157 0.293223 0.41087C0.189668 0.530583 0.110714 0.669857 0.0609442 0.820607C0.0111739 0.971357 -0.00842144 1.13058 0.00329609 1.28903C0.0150136 1.44749 0.0578105 1.60201 0.129202 1.74364C0.200594 1.88527 0.299158 2.01118 0.419173 2.11407C0.539189 2.21695 0.678264 2.29476 0.828326 2.34297L1.24849 2.48534C2.32031 2.84527 3.03063 3.08683 3.55227 3.33158C4.04696 3.56353 4.261 3.7507 4.39736 3.94266C4.53371 4.13462 4.64312 4.39697 4.70495 4.94406C4.76996 5.52155 4.77154 6.27661 4.77154 7.41718V11.6916C4.77154 13.8783 4.77154 15.6428 4.95705 17.0297C5.14732 18.4694 5.55955 19.682 6.51404 20.645C7.46695 21.608 8.67037 22.0207 10.0973 22.2143C11.4704 22.4015 13.2193 22.4015 15.3867 22.4015H26.5726C26.888 22.4015 27.1905 22.2751 27.4135 22.0501C27.6365 21.8251 27.7618 21.5199 27.7618 21.2017C27.7618 20.8835 27.6365 20.5783 27.4135 20.3533C27.1905 20.1283 26.888 20.0019 26.5726 20.0019H15.4739C13.1986 20.0019 11.6115 19.9987 10.4129 19.8372C9.25067 19.6788 8.6339 19.3893 8.19471 18.9477C7.82211 18.5718 7.5605 18.0663 7.39243 17.2025H23.438C24.9585 17.2025 25.718 17.2025 26.3142 16.8058C26.9103 16.409 27.21 15.7052 27.8093 14.2942L28.4879 12.6946C29.7722 9.67115 30.4144 8.16104 29.7088 7.08285C29.0032 6.00466 27.3749 6.00466 24.115 6.00466H7.14191C7.13751 5.55956 7.11264 5.1149 7.0674 4.67212C6.98019 3.89627 6.78834 3.18441 6.32695 2.53973C5.86556 1.89346 5.25672 1.48394 4.55591 1.156C3.89475 0.845661 3.056 0.564115 2.06346 0.22818L1.57987 0.0666121ZM9.92452 25.2009C10.5553 25.2009 11.1602 25.4537 11.6062 25.9037C12.0523 26.3537 12.3028 26.9641 12.3028 27.6005C12.3028 28.2369 12.0523 28.8472 11.6062 29.2972C11.1602 29.7472 10.5553 30 9.92452 30C9.29376 30 8.68883 29.7472 8.24281 29.2972C7.7968 28.8472 7.54623 28.2369 7.54623 27.6005C7.54623 26.9641 7.7968 26.3537 8.24281 25.9037C8.68883 25.4537 9.29376 25.2009 9.92452 25.2009ZM24.1943 25.2009C24.8251 25.2009 25.43 25.4537 25.876 25.9037C26.322 26.3537 26.5726 26.9641 26.5726 27.6005C26.5726 28.2369 26.322 28.8472 25.876 29.2972C25.43 29.7472 24.8251 30 24.1943 30C23.5635 30 22.9586 29.7472 22.5126 29.2972C22.0666 28.8472 21.816 28.2369 21.816 27.6005C21.816 26.9641 22.0666 26.3537 22.5126 25.9037C22.9586 25.4537 23.5635 25.2009 24.1943 25.2009Z" fill="#FDFFFC"/>
</svg>
