<svg width="25" height="25" viewBox="0 0 25 25" fill="none" xmlns="http://www.w3.org/2000/svg">
<path d="M9.24609 18.3239C6.66193 18.3239 4.47511 17.4645 2.68563 15.7457C0.89616 14.0269 0.000949069 11.9275 7.52632e-07 9.44766C-0.000947564 6.96777 0.894263 4.86842 2.68563 3.14962C4.477 1.43081 6.66382 0.571411 9.24609 0.571411C11.8284 0.571411 14.0156 1.43081 15.808 3.14962C17.6003 4.86842 18.495 6.96777 18.4922 9.44766C18.4922 10.4491 18.3262 11.3936 17.9943 12.2812C17.6624 13.1688 17.212 13.9541 16.643 14.6368L24.6088 22.2841C24.8696 22.5344 25 22.8531 25 23.24C25 23.6269 24.8696 23.9455 24.6088 24.1959C24.348 24.4462 24.0161 24.5714 23.6131 24.5714C23.2101 24.5714 22.8781 24.4462 22.6174 24.1959L14.6515 16.5487C13.9403 17.0949 13.1223 17.5273 12.1977 17.8459C11.2731 18.1646 10.2892 18.3239 9.24609 18.3239ZM9.24609 15.5927C11.0242 15.5927 12.5358 14.9955 13.7809 13.8011C15.0261 12.6067 15.6482 11.1555 15.6472 9.44766C15.6463 7.73978 15.0242 6.28908 13.7809 5.09556C12.5377 3.90205 11.0261 3.30438 9.24609 3.30256C7.4661 3.30074 5.95496 3.89841 4.71266 5.09556C3.47037 6.29272 2.8478 7.74342 2.84495 9.44766C2.84211 11.1519 3.46468 12.603 4.71266 13.8011C5.96065 14.9992 7.47179 15.5964 9.24609 15.5927Z" fill="#FDFFFC"/>
</svg>
