<svg width="52" height="50" viewBox="0 0 52 50" fill="none" xmlns="http://www.w3.org/2000/svg">
<path d="M19.2319 36.9844C13.8568 36.9844 9.30822 35.1939 5.58612 31.6131C1.86401 28.0322 0.00197406 23.6586 1.56548e-06 18.4922C-0.00197093 13.3257 1.86007 8.95211 5.58612 5.37127C9.31217 1.79042 13.8608 0 19.2319 0C24.603 0 29.1525 1.79042 32.8806 5.37127C36.6086 8.95211 38.4696 13.3257 38.4637 18.4922C38.4637 20.5785 38.1185 22.5462 37.4282 24.3954C36.7378 26.2447 35.8009 27.8805 34.6174 29.303L51.1863 45.2347C51.7288 45.7563 52 46.4201 52 47.2262C52 48.0322 51.7288 48.6961 51.1863 49.2176C50.6439 49.7392 49.9535 50 49.1152 50C48.2769 50 47.5865 49.7392 47.0441 49.2176L30.4751 33.2859C28.9957 34.4239 27.2945 35.3248 25.3713 35.9886C23.4481 36.6524 21.4016 36.9844 19.2319 36.9844ZM19.2319 31.2945C22.9303 31.2945 26.0745 30.0503 28.6644 27.5619C31.2542 25.0735 32.5482 22.0503 32.5462 18.4922C32.5443 14.9341 31.2503 11.9118 28.6644 9.42532C26.0784 6.93883 22.9342 5.69369 19.2319 5.6899C15.5295 5.68611 12.3863 6.93125 9.80233 9.42532C7.21836 11.9194 5.92342 14.9417 5.9175 18.4922C5.91158 22.0427 7.20653 25.0659 9.80233 27.5619C12.3981 30.0578 15.5413 31.302 19.2319 31.2945Z" fill="#252525"/>
</svg>
