<svg width="311" height="44" viewBox="0 0 311 44" fill="none" xmlns="http://www.w3.org/2000/svg">
<path d="M309.438 2.2697C311.098 4.0397 309.478 6.6397 307.558 7.5497C302.988 9.7097 280.608 8.40971 273.908 8.52971C251.688 8.9297 229.358 9.70971 207.108 10.1497C171.178 10.8497 135.038 10.3097 99.2678 13.7197C92.9678 14.3197 86.7178 15.6197 80.3678 15.7097L85.7178 16.5197C118.388 16.3697 150.998 17.5697 183.598 18.1097C214.418 18.6197 245.528 18.0997 276.298 19.6997C279.188 19.8497 289.358 18.2197 287.288 23.4797C285.488 28.0697 276.058 26.0797 272.358 26.0297C225.708 25.4197 180.088 26.7797 133.928 32.4697C126.148 33.4297 118.398 34.7497 110.608 35.6097L113.968 36.4197C148.418 36.0997 182.598 37.0397 217.048 37.1797C221.408 37.8897 220.168 42.3597 216.858 43.3897C214.158 44.2297 211.568 43.5497 209.088 43.5497C168.328 43.5197 127.618 43.5097 86.9378 42.7497C81.2878 42.6397 74.0378 43.3897 68.6578 42.7297C63.2778 42.0697 65.5778 37.3197 69.5178 36.0997C89.8478 32.4297 110.218 28.6897 130.738 26.0997C135.128 25.5497 139.708 25.6497 144.028 24.6597C144.468 24.5597 145.318 24.6597 145.218 24.0697L98.8878 23.2497C76.9978 22.8697 55.0678 23.0597 33.2378 22.0597C30.7878 21.9497 25.8478 22.9197 24.4878 20.8597C23.0578 18.6897 24.5278 17.1497 26.4978 16.1397L45.3578 12.9197C40.7878 12.9997 36.1878 12.8097 31.6178 12.8997C24.6778 13.0297 17.5078 13.5897 10.5678 13.7297C7.68783 13.7897 -2.23219 14.7697 0.457811 9.5897C1.65781 7.2797 4.99783 6.71971 7.34783 6.53971C22.1278 5.42971 38.5578 6.4597 53.5378 6.1697C54.4778 6.1497 55.3478 5.7597 56.2878 5.7397C84.0378 5.2197 111.768 5.1597 139.468 3.7697C193.188 1.0697 248.058 -1.7503 301.798 1.3697C303.728 1.4797 308.148 0.879703 309.448 2.2697H309.438Z" fill="#86B455"/>
</svg>
